<?xml version="1.0" encoding="utf-8"?>
<!-- Generator: Adobe Illustrator 23.0.2, SVG Export Plug-In . SVG Version: 6.00 Build 0)  -->
<svg version="1.1" xmlns="http://www.w3.org/2000/svg" xmlns:xlink="http://www.w3.org/1999/xlink" x="0px" y="0px"
	 viewBox="0 0 677.7 538.4" enable-background="new 0 0 677.7 538.4" xml:space="preserve">
<g id="walls">
	<rect x="88.6" y="69.6" fill="#FFFFFF" stroke="#5E6367" stroke-width="0.5" stroke-miterlimit="10" width="147.6" height="16"/>
	<rect x="88.6" y="85.6" fill="#FFFFFF" stroke="#5E6367" stroke-width="0.5" stroke-miterlimit="10" width="147.6" height="6.2"/>
	<rect x="88.6" y="91.8" fill="#FFFFFF" stroke="#5E6367" stroke-width="0.5" stroke-miterlimit="10" width="147.6" height="6.2"/>
	<rect x="261.3" y="69.6" fill="#FFFFFF" stroke="#5E6367" stroke-width="0.5" stroke-miterlimit="10" width="149.2" height="16"/>
	<rect x="261.3" y="80" fill="#FFFFFF" stroke="#5E6367" stroke-width="0.5" stroke-miterlimit="10" width="149.2" height="6.2"/>
	
		<rect x="261.3" y="85.6" fill="#FFFFFF" stroke="#5E6367" stroke-width="0.5" stroke-miterlimit="10" width="149.2" height="12.4"/>
	<rect x="434" y="69.6" fill="#FFFFFF" stroke="#5E6367" stroke-width="0.5" stroke-miterlimit="10" width="148.1" height="16"/>
	<rect x="434" y="85.6" fill="#FFFFFF" stroke="#5E6367" stroke-width="0.5" stroke-miterlimit="10" width="148.1" height="6.2"/>
	<rect x="434" y="91.8" fill="#FFFFFF" stroke="#5E6367" stroke-width="0.5" stroke-miterlimit="10" width="148.1" height="6.2"/>
	<polygon fill="#FFFFFF" stroke="#5E6367" stroke-width="0.5" stroke-miterlimit="10" points="232.5,69.6 232.5,41.3 184.6,41.3 
		184.6,69.6 181.6,69.6 181.6,37.7 235.8,37.7 235.8,69.9 	"/>
	<line fill="#FFFFFF" stroke="#5E6367" stroke-miterlimit="10" x1="203.4" y1="383.8" x2="186.4" y2="426.3"/>
	<line fill="none" stroke="#5E6367" stroke-width="0.5" stroke-miterlimit="10" x1="503.3" y1="470.7" x2="503.3" y2="435.3"/>
	<line fill="none" stroke="#5E6367" stroke-width="0.5" stroke-miterlimit="10" x1="485.6" y1="470.7" x2="500" y2="435.3"/>
	<line fill="none" stroke="#5E6367" stroke-width="0.5" stroke-miterlimit="10" x1="457.6" y1="406.9" x2="499.2" y2="406.9"/>
	<polyline fill="none" stroke="#5E6367" stroke-width="0.5" stroke-miterlimit="10" points="488.7,391.1 457.6,391.1 457.6,468.8 
		503.3,423.3 457.6,422.3 	"/>
	<polygon fill="#FFFFFF" stroke="#5E6367" stroke-width="0.5" stroke-miterlimit="10" points="488,387.3 536.9,387.3 536.9,423.3 
		503.3,423.3 503.3,393.5 507.6,393.5 507.6,418.7 532.9,418.7 532.9,391.1 488,391.1 	"/>
	<g>
		<g>
			<polyline fill="none" stroke="#5E6367" stroke-width="0.5" stroke-miterlimit="10" points="475.8,396.4 475.8,456.1 500,456.1 
				556.1,456.1 556.1,360.9 499.8,360.9 			"/>
			<g>
				<polygon fill="#5E6367" points="501.4,358.8 501.8,359.2 500,360.9 501.8,362.5 501.4,362.9 499.2,360.9 				"/>
			</g>
		</g>
	</g>
	<line fill="none" stroke="#5E6367" stroke-width="0.5" stroke-miterlimit="10" x1="488" y1="387.3" x2="488" y2="334.4"/>
	<line fill="none" stroke="#5E6367" stroke-width="0.5" stroke-miterlimit="10" x1="503.3" y1="334.4" x2="503.3" y2="387.3"/>
	<line fill="none" stroke="#5E6367" stroke-width="0.5" stroke-miterlimit="10" x1="520.8" y1="334.4" x2="520.8" y2="387.3"/>
	<line fill="none" stroke="#5E6367" stroke-width="0.5" stroke-miterlimit="10" x1="535.3" y1="334.4" x2="535.3" y2="387.3"/>
	<line fill="none" stroke="#5E6367" stroke-width="0.5" stroke-miterlimit="10" x1="584.4" y1="340.2" x2="536.9" y2="387.3"/>
	<line fill="none" stroke="#5E6367" stroke-width="0.5" stroke-miterlimit="10" x1="584.4" y1="391.1" x2="536.9" y2="391.1"/>
	<line fill="none" stroke="#5E6367" stroke-width="0.5" stroke-miterlimit="10" x1="584.4" y1="408.5" x2="536.9" y2="408.5"/>
	<polyline fill="none" stroke="#5E6367" stroke-width="0.5" stroke-miterlimit="10" points="584.4,470.7 536.9,423.3 584.4,423.3 	
		"/>
	<line fill="none" stroke="#5E6367" stroke-width="0.5" stroke-miterlimit="10" x1="535.3" y1="468.8" x2="535.3" y2="423.3"/>
	<line fill="none" stroke="#5E6367" stroke-width="0.5" stroke-miterlimit="10" x1="520.8" y1="468.8" x2="520.8" y2="423.3"/>
	
		<rect x="257.3" y="329.7" fill="#FFFFFF" stroke="#5E6367" stroke-width="0.5" stroke-miterlimit="10" width="155.6" height="4.7"/>
	<line fill="#FFFFFF" stroke="#5E6367" stroke-miterlimit="10" x1="401.2" y1="500.6" x2="361.1" y2="481.6"/>
	<line fill="#FFFFFF" stroke="#5E6367" stroke-miterlimit="10" x1="196.9" y1="312.5" x2="236.7" y2="329.7"/>
	<line fill="#FFFFFF" stroke="#5E6367" stroke-miterlimit="10" x1="488" y1="309.3" x2="443.9" y2="329.7"/>
	<rect x="67.6" y="69.6" fill="#5E6367" stroke="#5E6367" stroke-width="0.5" stroke-miterlimit="10" width="24.3" height="16"/>
	<rect x="67.6" y="85.6" fill="#5E6367" stroke="#5E6367" stroke-width="0.5" stroke-miterlimit="10" width="21.1" height="12.4"/>
	<rect x="67.6" y="97.9" fill="#5E6367" stroke="#5E6367" stroke-width="0.5" stroke-miterlimit="10" width="17.1" height="31.2"/>
	<rect x="233" y="69.6" fill="#5E6367" stroke="#5E6367" stroke-width="0.5" stroke-miterlimit="10" width="31.6" height="16"/>
	<rect x="236.2" y="85.6" fill="#5E6367" stroke="#5E6367" stroke-width="0.5" stroke-miterlimit="10" width="25.1" height="12.4"/>
	<rect x="240.2" y="97.9" fill="#5E6367" stroke="#5E6367" stroke-width="0.5" stroke-miterlimit="10" width="17.1" height="31.2"/>
	<rect x="405.7" y="69.6" fill="#5E6367" stroke="#5E6367" stroke-width="0.5" stroke-miterlimit="10" width="31.6" height="16"/>
	<rect x="408.9" y="85.6" fill="#5E6367" stroke="#5E6367" stroke-width="0.5" stroke-miterlimit="10" width="25.1" height="12.4"/>
	<rect x="412.9" y="97.9" fill="#5E6367" stroke="#5E6367" stroke-width="0.5" stroke-miterlimit="10" width="17.1" height="31.2"/>
	<rect x="576.9" y="69.6" fill="#5E6367" stroke="#5E6367" stroke-width="0.5" stroke-miterlimit="10" width="40.7" height="16"/>
	<rect x="582.1" y="85.6" fill="#5E6367" stroke="#5E6367" stroke-width="0.5" stroke-miterlimit="10" width="35.5" height="12.4"/>
	<rect x="584.5" y="97.9" fill="#5E6367" stroke="#5E6367" stroke-width="0.5" stroke-miterlimit="10" width="33" height="372.7"/>
	
		<rect x="67.6" y="265.4" fill="#5E6367" stroke="#5E6367" stroke-width="0.5" stroke-miterlimit="10" width="17.1" height="205.3"/>
	
		<rect x="67.6" y="129.2" fill="#5E6367" stroke="#5E6367" stroke-width="0.5" stroke-miterlimit="10" width="16.6" height="136.2"/>
	
		<rect x="67.6" y="470.7" fill="#5E6367" stroke="#5E6367" stroke-width="0.5" stroke-miterlimit="10" width="293.5" height="14.2"/>
	<rect x="84.6" y="329.7" fill="#5E6367" stroke="#5E6367" stroke-width="0.5" stroke-miterlimit="10" width="106.8" height="4.7"/>
	<rect x="178.7" y="334.4" fill="#5E6367" stroke="#5E6367" stroke-width="0.5" stroke-miterlimit="10" width="7.6" height="49.4"/>
	<rect x="178.7" y="426.3" fill="#5E6367" stroke="#5E6367" stroke-width="0.5" stroke-miterlimit="10" width="7.6" height="44.3"/>
	<rect x="168.9" y="461.2" fill="#5E6367" stroke="#5E6367" stroke-width="0.5" stroke-miterlimit="10" width="9.8" height="9.4"/>
	<rect x="84.6" y="334.4" fill="#5E6367" stroke="#5E6367" stroke-width="0.5" stroke-miterlimit="10" width="94.1" height="8.2"/>
	<rect x="236.7" y="329.7" fill="#5E6367" stroke="#5E6367" stroke-width="0.5" stroke-miterlimit="10" width="20.6" height="4.7"/>
	<rect x="412.9" y="329.7" fill="#5E6367" stroke="#5E6367" stroke-width="0.5" stroke-miterlimit="10" width="31" height="4.7"/>
	
		<rect x="240.2" y="265.4" fill="#5E6367" stroke="#5E6367" stroke-width="0.5" stroke-miterlimit="10" width="17.1" height="64.3"/>
	
		<rect x="412.9" y="265.4" fill="#5E6367" stroke="#5E6367" stroke-width="0.5" stroke-miterlimit="10" width="17.1" height="64.3"/>
	
		<rect x="412.9" y="129.2" fill="#5E6367" stroke="#5E6367" stroke-width="0.5" stroke-miterlimit="10" width="5.8" height="136.2"/>
	<rect x="488" y="329.7" fill="#5E6367" stroke="#5E6367" stroke-width="0.5" stroke-miterlimit="10" width="96.5" height="4.7"/>
	
		<rect x="412.9" y="470.7" fill="#5E6367" stroke="#5E6367" stroke-width="0.5" stroke-miterlimit="10" width="204.6" height="14.2"/>
	<rect x="252.5" y="129.2" fill="#5E6367" stroke="#5E6367" stroke-width="0.5" stroke-miterlimit="10" width="4.8" height="141"/>
	<polyline fill="#FFFFFF" stroke="#5E6367" stroke-miterlimit="10" points="412.9,97.9 257.3,201.7 412.9,329.7 	"/>
</g>
<g id="SIZE" display="none">
	<g id="size-1" display="inline">
		<rect x="149" y="186.6" fill="#FFFFFF" stroke="#000000" stroke-miterlimit="10" width="69.2" height="27.4"/>
		<rect x="149" y="213.8" fill="#FFFFFF" stroke="#000000" stroke-miterlimit="10" width="69.2" height="27.3"/>
		<rect x="106.7" y="186.6" fill="#FFFFFF" stroke="#000000" stroke-miterlimit="10" width="42.3" height="54.5"/>
		<g>
			<path d="M128,228.6c-1.8,0-3.5-0.3-4.9-0.9c-1.4-0.6-2.6-1.5-3.4-2.6c-0.8-1.1-1.3-2.4-1.4-3.9h3.5c0.1,0.9,0.4,1.7,0.9,2.4
				c0.6,0.7,1.3,1.2,2.2,1.5c0.9,0.4,1.9,0.5,3,0.5c1.2,0,2.3-0.2,3.3-0.6c0.9-0.4,1.7-1,2.2-1.8c0.5-0.8,0.8-1.6,0.8-2.7
				c0-1.1-0.3-2-0.8-2.8c-0.5-0.8-1.3-1.4-2.3-1.9c-1-0.5-2.2-0.7-3.7-0.7h-2.3v-3.1h2.3c1.1,0,2.1-0.2,3-0.6c0.9-0.4,1.5-1,2-1.7
				c0.5-0.7,0.7-1.6,0.7-2.6c0-1-0.2-1.8-0.6-2.5c-0.4-0.7-1-1.3-1.8-1.7s-1.7-0.6-2.7-0.6c-1,0-1.9,0.2-2.8,0.5
				c-0.9,0.4-1.6,0.9-2.1,1.5c-0.5,0.7-0.8,1.5-0.9,2.4h-3.3c0.1-1.5,0.5-2.8,1.4-3.9c0.8-1.1,2-2,3.3-2.6c1.4-0.6,2.9-0.9,4.5-0.9
				c1.8,0,3.3,0.4,4.5,1.1s2.2,1.6,2.9,2.8c0.7,1.2,1,2.4,1,3.8c0,1.6-0.4,3-1.3,4.1c-0.8,1.1-2,1.9-3.4,2.4v0.2
				c1.8,0.3,3.2,1.1,4.2,2.3s1.5,2.8,1.5,4.6c0,1.6-0.4,2.9-1.3,4.2c-0.8,1.2-2,2.2-3.4,2.9C131.5,228.3,129.8,228.6,128,228.6z"/>
		</g>
		<g>
			<path d="M165.3,193.7v11.9h-1.4v-10.4h-0.1l-2.9,1.9v-1.5l3-2H165.3z"/>
			<path d="M172.9,193.7v11.9h-1.4v-10.4h-0.1l-2.9,1.9v-1.5l3-2H172.9z"/>
			<path d="M180.2,205.8c-0.9,0-1.6-0.2-2.2-0.7c-0.6-0.5-1.1-1.2-1.4-2.1c-0.3-0.9-0.5-2-0.5-3.3c0-1.3,0.2-2.4,0.5-3.3
				c0.3-0.9,0.8-1.6,1.4-2.1s1.4-0.7,2.2-0.7c0.9,0,1.6,0.2,2.2,0.7s1.1,1.2,1.4,2.1c0.3,0.9,0.5,2,0.5,3.3c0,1.3-0.2,2.4-0.5,3.3
				c-0.3,0.9-0.8,1.6-1.4,2.1C181.8,205.5,181.1,205.8,180.2,205.8z M180.2,204.5c0.9,0,1.5-0.4,2-1.3s0.7-2,0.7-3.6
				c0-1-0.1-1.9-0.3-2.6c-0.2-0.7-0.5-1.3-0.9-1.7s-0.9-0.6-1.5-0.6c-0.9,0-1.5,0.4-2,1.3c-0.5,0.8-0.7,2-0.7,3.6
				c0,1,0.1,1.9,0.3,2.6c0.2,0.7,0.5,1.3,0.9,1.6S179.6,204.5,180.2,204.5z"/>
			<path d="M188.2,204l-0.1,0.6c-0.1,0.4-0.2,0.9-0.3,1.4c-0.1,0.5-0.3,1-0.4,1.4c-0.1,0.4-0.3,0.8-0.4,1.1h-1
				c0.1-0.2,0.1-0.6,0.2-1c0.1-0.4,0.2-0.9,0.2-1.4c0.1-0.5,0.2-1,0.2-1.5l0.1-0.7H188.2z"/>
			<path d="M194.2,205.8c-0.7,0-1.3-0.1-1.8-0.4s-1-0.6-1.3-1.1c-0.3-0.5-0.5-1-0.5-1.6h1.4c0.1,0.5,0.3,1,0.7,1.3s1,0.5,1.6,0.5
				c0.5,0,0.9-0.1,1.3-0.3c0.4-0.2,0.7-0.5,0.9-0.9c0.2-0.4,0.3-0.9,0.3-1.4c0-0.5-0.1-1-0.3-1.4c-0.2-0.4-0.5-0.7-0.9-1
				c-0.4-0.2-0.8-0.4-1.4-0.4c-0.4,0-0.7,0.1-1.1,0.2c-0.4,0.1-0.7,0.3-0.9,0.4l-1.3-0.2l0.7-5.9h6.2v1.3h-5l-0.4,3.5h0.1
				c0.2-0.2,0.6-0.4,0.9-0.5c0.4-0.1,0.8-0.2,1.2-0.2c0.7,0,1.4,0.2,2,0.5c0.6,0.3,1,0.8,1.3,1.4c0.3,0.6,0.5,1.3,0.5,2.1
				c0,0.8-0.2,1.4-0.5,2c-0.3,0.6-0.8,1.1-1.4,1.4C195.6,205.6,194.9,205.8,194.2,205.8z"/>
			<path d="M200.8,205.6l5.3-10.5V195H200v-1.3h7.6v1.3l-5.3,10.6H200.8z"/>
		</g>
		<g>
			<path d="M165.3,220.9v11.9h-1.4v-10.4h-0.1l-2.9,1.9v-1.5l3-2H165.3z"/>
			<path d="M172.9,220.9v11.9h-1.4v-10.4h-0.1l-2.9,1.9v-1.5l3-2H172.9z"/>
			<path d="M180.2,233c-0.9,0-1.6-0.2-2.2-0.7c-0.6-0.5-1.1-1.2-1.4-2.1c-0.3-0.9-0.5-2-0.5-3.3c0-1.3,0.2-2.4,0.5-3.3
				c0.3-0.9,0.8-1.6,1.4-2.1s1.4-0.7,2.2-0.7c0.9,0,1.6,0.2,2.2,0.7s1.1,1.2,1.4,2.1c0.3,0.9,0.5,2,0.5,3.3c0,1.3-0.2,2.4-0.5,3.3
				c-0.3,0.9-0.8,1.6-1.4,2.1C181.8,232.7,181.1,233,180.2,233z M180.2,231.7c0.9,0,1.5-0.4,2-1.3s0.7-2,0.7-3.6
				c0-1-0.1-1.9-0.3-2.6c-0.2-0.7-0.5-1.3-0.9-1.7s-0.9-0.6-1.5-0.6c-0.9,0-1.5,0.4-2,1.3c-0.5,0.8-0.7,2-0.7,3.6
				c0,1,0.1,1.9,0.3,2.6c0.2,0.7,0.5,1.3,0.9,1.6S179.6,231.7,180.2,231.7z"/>
			<path d="M188.2,231.2l-0.1,0.6c-0.1,0.4-0.2,0.9-0.3,1.4c-0.1,0.5-0.3,1-0.4,1.4c-0.1,0.4-0.3,0.8-0.4,1.1h-1
				c0.1-0.2,0.1-0.6,0.2-1c0.1-0.4,0.2-0.9,0.2-1.4c0.1-0.5,0.2-1,0.2-1.5l0.1-0.7H188.2z"/>
			<path d="M194.2,233c-0.7,0-1.3-0.1-1.8-0.4s-1-0.6-1.3-1.1c-0.3-0.5-0.5-1-0.5-1.6h1.4c0.1,0.5,0.3,1,0.7,1.3s1,0.5,1.6,0.5
				c0.5,0,0.9-0.1,1.3-0.3c0.4-0.2,0.7-0.5,0.9-0.9c0.2-0.4,0.3-0.9,0.3-1.4c0-0.5-0.1-1-0.3-1.4c-0.2-0.4-0.5-0.7-0.9-1
				c-0.4-0.2-0.8-0.4-1.4-0.4c-0.4,0-0.7,0.1-1.1,0.2c-0.4,0.1-0.7,0.3-0.9,0.4l-1.3-0.2l0.7-5.9h6.2v1.3h-5l-0.4,3.5h0.1
				c0.2-0.2,0.6-0.4,0.9-0.5c0.4-0.1,0.8-0.2,1.2-0.2c0.7,0,1.4,0.2,2,0.5c0.6,0.3,1,0.8,1.3,1.4c0.3,0.6,0.5,1.3,0.5,2.1
				c0,0.8-0.2,1.4-0.5,2c-0.3,0.6-0.8,1.1-1.4,1.4C195.6,232.8,194.9,233,194.2,233z"/>
			<path d="M200.8,232.8l5.3-10.5v-0.1H200v-1.3h7.6v1.3l-5.3,10.6H200.8z"/>
		</g>
		<g>
			<path d="M153,134.3v10.1h-1.2v-8.8h-0.1l-2.5,1.6V136l2.5-1.7H153z"/>
			<path d="M159.3,144.6c-0.7,0-1.2-0.1-1.7-0.3c-0.5-0.2-0.9-0.5-1.2-0.9c-0.3-0.4-0.5-0.9-0.5-1.4h1.2c0,0.3,0.1,0.6,0.3,0.8
				c0.2,0.2,0.5,0.4,0.8,0.5c0.3,0.1,0.7,0.2,1.1,0.2c0.4,0,0.8-0.1,1.2-0.2c0.3-0.2,0.6-0.4,0.8-0.6c0.2-0.3,0.3-0.6,0.3-0.9
				c0-0.4-0.1-0.7-0.3-1c-0.2-0.3-0.5-0.5-0.8-0.7c-0.4-0.2-0.8-0.2-1.3-0.2h-0.8v-1.1h0.8c0.4,0,0.8-0.1,1.1-0.2
				c0.3-0.1,0.5-0.3,0.7-0.6c0.2-0.3,0.3-0.6,0.3-0.9c0-0.3-0.1-0.6-0.2-0.9c-0.2-0.3-0.4-0.5-0.6-0.6s-0.6-0.2-1-0.2
				c-0.3,0-0.7,0.1-1,0.2c-0.3,0.1-0.6,0.3-0.8,0.5c-0.2,0.2-0.3,0.5-0.3,0.9h-1.2c0-0.5,0.2-1,0.5-1.4c0.3-0.4,0.7-0.7,1.2-0.9
				s1-0.3,1.6-0.3c0.6,0,1.2,0.1,1.6,0.4c0.4,0.3,0.8,0.6,1,1s0.4,0.9,0.4,1.3c0,0.6-0.1,1.1-0.4,1.5c-0.3,0.4-0.7,0.7-1.2,0.8v0.1
				c0.6,0.1,1.1,0.4,1.5,0.8c0.4,0.4,0.5,1,0.5,1.6c0,0.6-0.1,1-0.4,1.5c-0.3,0.4-0.7,0.8-1.2,1C160.6,144.5,160,144.6,159.3,144.6z
				"/>
			<path d="M166.2,143.1l-0.1,0.5c-0.1,0.4-0.1,0.8-0.3,1.2c-0.1,0.4-0.2,0.8-0.4,1.2c-0.1,0.4-0.2,0.7-0.3,0.9h-0.9
				c0-0.2,0.1-0.5,0.2-0.8c0.1-0.3,0.1-0.7,0.2-1.2c0.1-0.4,0.1-0.9,0.2-1.3l0.1-0.6H166.2z"/>
			<path d="M171.3,144.6c-0.7,0-1.3-0.1-1.8-0.4c-0.5-0.2-0.9-0.6-1.2-1c-0.3-0.4-0.4-0.9-0.4-1.5c0-0.4,0.1-0.8,0.3-1.2
				s0.4-0.7,0.7-0.9s0.6-0.4,1-0.5v-0.1c-0.5-0.1-0.9-0.4-1.2-0.8c-0.3-0.4-0.4-0.9-0.4-1.4c0-0.5,0.1-1,0.4-1.4
				c0.3-0.4,0.6-0.7,1.1-1c0.5-0.2,1-0.4,1.6-0.4c0.6,0,1.1,0.1,1.6,0.4c0.5,0.2,0.8,0.6,1.1,1c0.3,0.4,0.4,0.9,0.4,1.4
				c0,0.5-0.1,1-0.4,1.4c-0.3,0.4-0.7,0.7-1.1,0.8v0.1c0.4,0.1,0.7,0.2,1,0.5s0.5,0.6,0.7,0.9s0.3,0.8,0.3,1.2c0,0.5-0.2,1-0.4,1.5
				c-0.3,0.4-0.7,0.8-1.2,1S172,144.6,171.3,144.6z M171.3,143.5c0.5,0,0.9-0.1,1.2-0.2s0.6-0.4,0.8-0.6c0.2-0.3,0.3-0.6,0.3-0.9
				c0-0.4-0.1-0.7-0.3-1c-0.2-0.3-0.5-0.5-0.8-0.7c-0.3-0.2-0.7-0.3-1.1-0.3c-0.4,0-0.8,0.1-1.2,0.3s-0.6,0.4-0.8,0.7
				s-0.3,0.6-0.3,1c0,0.4,0.1,0.7,0.3,0.9c0.2,0.3,0.4,0.5,0.8,0.6S170.8,143.5,171.3,143.5z M171.3,138.7c0.4,0,0.7-0.1,1-0.2
				s0.5-0.3,0.7-0.6s0.2-0.6,0.2-0.9c0-0.3-0.1-0.6-0.2-0.9c-0.2-0.3-0.4-0.5-0.7-0.6s-0.6-0.2-1-0.2c-0.4,0-0.7,0.1-1,0.2
				s-0.5,0.3-0.7,0.6c-0.2,0.3-0.2,0.6-0.2,0.9c0,0.3,0.1,0.7,0.2,0.9c0.2,0.3,0.4,0.5,0.7,0.6C170.6,138.6,170.9,138.7,171.3,138.7
				z"/>
			<path d="M176.4,142.4v-1l4.5-7h0.7v1.6h-0.5l-3.4,5.3v0.1h6v1.1H176.4z M181.2,144.4v-2.4v-0.5v-7.3h1.2v10.1H181.2z"/>
		</g>
		<g>
			<path d="M135,397.7v-1l4.5-7h0.7v1.6h-0.5l-3.4,5.3v0.1h6v1.1H135z M139.8,399.8v-2.4V397v-7.3h1.2v10.1H139.8z"/>
			<path d="M145.5,398.4l-0.1,0.5c-0.1,0.4-0.1,0.8-0.3,1.2c-0.1,0.4-0.2,0.8-0.4,1.2c-0.1,0.4-0.2,0.7-0.3,0.9h-0.9
				c0-0.2,0.1-0.5,0.2-0.8c0.1-0.3,0.1-0.7,0.2-1.2c0.1-0.4,0.1-0.9,0.2-1.3l0.1-0.6H145.5z"/>
			<path d="M147.4,397.7v-1l4.5-7h0.7v1.6h-0.5l-3.4,5.3v0.1h6v1.1H147.4z M152.2,399.8v-2.4V397v-7.3h1.2v10.1H152.2z"/>
			<path d="M156.9,399.8l4.5-9v-0.1h-5.2v-1.1h6.5v1.1l-4.5,9H156.9z"/>
		</g>
		<g>
			<path d="M324.3,389.7v10.1h-1.2V391H323l-2.5,1.6v-1.2l2.5-1.7H324.3z"/>
			<path d="M327,397.7v-1l4.5-7h0.7v1.6h-0.5l-3.4,5.3v0.1h6v1.1H327z M331.8,399.8v-2.4V397v-7.3h1.2v10.1H331.8z"/>
			<path d="M337.5,398.4l-0.1,0.5c-0.1,0.4-0.1,0.8-0.3,1.2c-0.1,0.4-0.2,0.8-0.4,1.2c-0.1,0.4-0.2,0.7-0.3,0.9h-0.9
				c0-0.2,0.1-0.5,0.2-0.8c0.1-0.3,0.1-0.7,0.2-1.2c0.1-0.4,0.1-0.9,0.2-1.3l0.1-0.6H337.5z"/>
			<path d="M339.6,399.8v-0.9l3.3-3.7c0.4-0.4,0.7-0.8,1-1.1c0.3-0.3,0.4-0.6,0.6-0.9c0.1-0.3,0.2-0.6,0.2-0.9
				c0-0.4-0.1-0.7-0.3-0.9s-0.4-0.5-0.7-0.6s-0.6-0.2-1-0.2c-0.4,0-0.7,0.1-1,0.2c-0.3,0.2-0.5,0.4-0.7,0.7c-0.2,0.3-0.2,0.6-0.2,1
				h-1.2c0-0.6,0.1-1.1,0.4-1.6c0.3-0.4,0.6-0.8,1.1-1c0.5-0.3,1-0.4,1.6-0.4c0.6,0,1.1,0.1,1.6,0.4c0.5,0.3,0.8,0.6,1.1,1
				c0.3,0.4,0.4,0.9,0.4,1.4c0,0.4-0.1,0.7-0.2,1.1c-0.1,0.4-0.4,0.7-0.7,1.2s-0.8,1-1.4,1.6l-2.3,2.4v0.1h4.7v1.1H339.6z"/>
			<path d="M351.2,389.5c0.4,0,0.8,0.1,1.2,0.2c0.4,0.2,0.8,0.4,1.1,0.8s0.6,0.8,0.8,1.5c0.2,0.6,0.3,1.4,0.3,2.3
				c0,0.9-0.1,1.7-0.3,2.4c-0.2,0.7-0.4,1.3-0.7,1.8c-0.3,0.5-0.7,0.8-1.2,1.1c-0.5,0.2-1,0.4-1.5,0.4c-0.6,0-1.1-0.1-1.5-0.3
				s-0.8-0.5-1.1-0.9c-0.3-0.4-0.5-0.9-0.5-1.4h1.2c0.1,0.5,0.3,0.8,0.7,1.1c0.3,0.3,0.8,0.5,1.3,0.5c0.8,0,1.4-0.3,1.9-1
				c0.5-0.7,0.7-1.6,0.7-2.9h-0.1c-0.2,0.3-0.4,0.5-0.7,0.7c-0.3,0.2-0.5,0.4-0.8,0.5c-0.3,0.1-0.6,0.2-1,0.2
				c-0.6,0-1.1-0.1-1.6-0.4c-0.5-0.3-0.9-0.7-1.2-1.2s-0.4-1.1-0.4-1.7c0-0.6,0.1-1.2,0.4-1.7c0.3-0.5,0.7-0.9,1.2-1.2
				C350,389.7,350.6,389.5,351.2,389.5z M351.2,390.6c-0.4,0-0.8,0.1-1.1,0.3c-0.3,0.2-0.6,0.5-0.8,0.8s-0.3,0.7-0.3,1.2
				c0,0.4,0.1,0.8,0.3,1.1c0.2,0.3,0.4,0.6,0.8,0.8s0.7,0.3,1.1,0.3c0.3,0,0.6-0.1,0.9-0.2c0.3-0.1,0.5-0.3,0.7-0.5s0.4-0.5,0.5-0.7
				c0.1-0.3,0.2-0.6,0.2-0.9c0-0.4-0.1-0.8-0.3-1.1c-0.2-0.3-0.5-0.6-0.8-0.8C352,390.7,351.7,390.6,351.2,390.6z"/>
		</g>
		<g>
			<path d="M485.4,134.3v10.1h-1.2v-8.8h-0.1l-2.5,1.6V136l2.5-1.7H485.4z"/>
			<path d="M491.7,144.6c-0.7,0-1.2-0.1-1.7-0.3c-0.5-0.2-0.9-0.5-1.2-0.9c-0.3-0.4-0.5-0.9-0.5-1.4h1.2c0,0.3,0.1,0.6,0.3,0.8
				c0.2,0.2,0.5,0.4,0.8,0.5c0.3,0.1,0.7,0.2,1.1,0.2c0.4,0,0.8-0.1,1.2-0.2c0.3-0.2,0.6-0.4,0.8-0.6c0.2-0.3,0.3-0.6,0.3-0.9
				c0-0.4-0.1-0.7-0.3-1c-0.2-0.3-0.5-0.5-0.8-0.7c-0.4-0.2-0.8-0.2-1.3-0.2h-0.8v-1.1h0.8c0.4,0,0.8-0.1,1.1-0.2
				c0.3-0.1,0.5-0.3,0.7-0.6c0.2-0.3,0.3-0.6,0.3-0.9c0-0.3-0.1-0.6-0.2-0.9c-0.2-0.3-0.4-0.5-0.6-0.6s-0.6-0.2-1-0.2
				c-0.3,0-0.7,0.1-1,0.2c-0.3,0.1-0.6,0.3-0.8,0.5c-0.2,0.2-0.3,0.5-0.3,0.9h-1.2c0-0.5,0.2-1,0.5-1.4c0.3-0.4,0.7-0.7,1.2-0.9
				s1-0.3,1.6-0.3c0.6,0,1.2,0.1,1.6,0.4c0.4,0.3,0.8,0.6,1,1s0.4,0.9,0.4,1.3c0,0.6-0.1,1.1-0.4,1.5c-0.3,0.4-0.7,0.7-1.2,0.8v0.1
				c0.6,0.1,1.1,0.4,1.5,0.8c0.4,0.4,0.5,1,0.5,1.6c0,0.6-0.1,1-0.4,1.5c-0.3,0.4-0.7,0.8-1.2,1C493,144.5,492.4,144.6,491.7,144.6z
				"/>
			<path d="M498.6,143.1l-0.1,0.5c-0.1,0.4-0.1,0.8-0.3,1.2c-0.1,0.4-0.2,0.8-0.4,1.2c-0.1,0.4-0.2,0.7-0.3,0.9h-0.9
				c0-0.2,0.1-0.5,0.2-0.8c0.1-0.3,0.1-0.7,0.2-1.2c0.1-0.4,0.1-0.9,0.2-1.3l0.1-0.6H498.6z"/>
			<path d="M503.7,144.6c-0.6,0-1.1-0.1-1.6-0.3c-0.5-0.2-0.8-0.5-1.1-0.9c-0.3-0.4-0.4-0.9-0.5-1.4h1.2c0,0.5,0.3,0.8,0.6,1.1
				c0.4,0.3,0.8,0.4,1.3,0.4c0.4,0,0.8-0.1,1.1-0.3s0.6-0.5,0.8-0.8c0.2-0.3,0.3-0.7,0.3-1.2c0-0.4-0.1-0.8-0.3-1.2
				c-0.2-0.3-0.5-0.6-0.8-0.8c-0.3-0.2-0.7-0.3-1.2-0.3c-0.3,0-0.6,0-1,0.1c-0.3,0.1-0.6,0.2-0.8,0.4l-1.1-0.1l0.6-5h5.3v1.1h-4.2
				l-0.4,3h0.1c0.2-0.2,0.5-0.3,0.8-0.4c0.3-0.1,0.6-0.2,1-0.2c0.6,0,1.2,0.1,1.7,0.4c0.5,0.3,0.9,0.7,1.1,1.2
				c0.3,0.5,0.4,1.1,0.4,1.8c0,0.6-0.1,1.2-0.4,1.7c-0.3,0.5-0.7,0.9-1.2,1.2C504.9,144.4,504.4,144.6,503.7,144.6z"/>
			<path d="M509.3,144.4l4.5-9v-0.1h-5.2v-1.1h6.5v1.1l-4.5,9H509.3z"/>
		</g>
	</g>
	<g id="size-2" display="inline">
		<line fill="#FFFFFF" stroke="#000000" stroke-width="0.5" stroke-miterlimit="10" x1="85.1" y1="106" x2="85.1" y2="17"/>
		<line fill="#FFFFFF" stroke="#000000" stroke-width="0.5" stroke-miterlimit="10" x1="252.5" y1="106" x2="252.5" y2="17"/>
		<line fill="#FFFFFF" stroke="#000000" stroke-width="0.5" stroke-miterlimit="10" x1="257.8" y1="106" x2="257.8" y2="17"/>
		<line fill="#FFFFFF" stroke="#000000" stroke-width="0.5" stroke-miterlimit="10" x1="412.9" y1="106" x2="412.9" y2="17"/>
		<line fill="#FFFFFF" stroke="#000000" stroke-width="0.5" stroke-miterlimit="10" x1="418.7" y1="106" x2="418.7" y2="17"/>
		<line fill="#FFFFFF" stroke="#000000" stroke-width="0.5" stroke-miterlimit="10" x1="585" y1="106" x2="585" y2="17"/>
		<line fill="#FFFFFF" stroke="#000000" stroke-width="0.5" stroke-miterlimit="10" x1="577.3" y1="98" x2="646.8" y2="98"/>
		<line fill="#FFFFFF" stroke="#000000" stroke-width="0.5" stroke-miterlimit="10" x1="577.3" y1="329.7" x2="646.8" y2="329.7"/>
		<line fill="#FFFFFF" stroke="#000000" stroke-width="0.5" stroke-miterlimit="10" x1="577.3" y1="334.5" x2="646.8" y2="334.5"/>
		<line fill="#FFFFFF" stroke="#000000" stroke-width="0.5" stroke-miterlimit="10" x1="577.3" y1="470.7" x2="646.8" y2="470.7"/>
		<line fill="#FFFFFF" stroke="#000000" stroke-width="0.5" stroke-miterlimit="10" x1="585" y1="458.8" x2="585" y2="524.6"/>
		<line fill="#FFFFFF" stroke="#000000" stroke-width="0.5" stroke-miterlimit="10" x1="186.8" y1="458.8" x2="186.8" y2="524.6"/>
		<line fill="#FFFFFF" stroke="#000000" stroke-width="0.5" stroke-miterlimit="10" x1="179.2" y1="458.8" x2="179.2" y2="524.6"/>
		<line fill="#FFFFFF" stroke="#000000" stroke-width="0.5" stroke-miterlimit="10" x1="85.1" y1="458.8" x2="85.1" y2="524.6"/>
		<line fill="#FFFFFF" stroke="#000000" stroke-width="0.5" stroke-miterlimit="10" x1="98.2" y1="470.7" x2="39.1" y2="470.7"/>
		<line fill="#FFFFFF" stroke="#000000" stroke-width="0.5" stroke-miterlimit="10" x1="98.2" y1="342.6" x2="39.1" y2="342.6"/>
		<line fill="#FFFFFF" stroke="#000000" stroke-width="0.5" stroke-miterlimit="10" x1="98.2" y1="329.7" x2="39.1" y2="329.7"/>
		<line fill="#FFFFFF" stroke="#000000" stroke-width="0.5" stroke-miterlimit="10" x1="98.2" y1="98" x2="39.1" y2="98"/>
		<line fill="#FFFFFF" stroke="#000000" stroke-width="0.5" stroke-miterlimit="10" x1="50.6" y1="98" x2="50.6" y2="470.7"/>
		<line fill="#FFFFFF" stroke="#000000" stroke-width="0.5" stroke-miterlimit="10" x1="85.1" y1="510" x2="585" y2="510"/>
		<line fill="#FFFFFF" stroke="#000000" stroke-width="0.5" stroke-miterlimit="10" x1="631.8" y1="470.7" x2="631.8" y2="98"/>
		<line fill="#FFFFFF" stroke="#000000" stroke-width="0.5" stroke-miterlimit="10" x1="585" y1="32.7" x2="85.1" y2="32.7"/>
		<line fill="#FFFFFF" stroke="#000000" stroke-width="0.5" stroke-miterlimit="10" x1="89.1" y1="28.7" x2="81.1" y2="36.7"/>
		<line fill="#FFFFFF" stroke="#000000" stroke-width="0.5" stroke-miterlimit="10" x1="255.7" y1="28.7" x2="247.7" y2="36.7"/>
		<line fill="#FFFFFF" stroke="#000000" stroke-width="0.5" stroke-miterlimit="10" x1="261.8" y1="28.7" x2="253.8" y2="36.7"/>
		<line fill="#FFFFFF" stroke="#000000" stroke-width="0.5" stroke-miterlimit="10" x1="416.9" y1="28.7" x2="408.9" y2="36.7"/>
		<line fill="#FFFFFF" stroke="#000000" stroke-width="0.5" stroke-miterlimit="10" x1="422.4" y1="28.7" x2="414.4" y2="36.7"/>
		<line fill="#FFFFFF" stroke="#000000" stroke-width="0.5" stroke-miterlimit="10" x1="589" y1="28.7" x2="581" y2="36.7"/>
		<line fill="#FFFFFF" stroke="#000000" stroke-width="0.5" stroke-miterlimit="10" x1="635.8" y1="325.7" x2="627.8" y2="333.7"/>
		<line fill="#FFFFFF" stroke="#000000" stroke-width="0.5" stroke-miterlimit="10" x1="635.8" y1="94" x2="627.8" y2="102"/>
		<line fill="#FFFFFF" stroke="#000000" stroke-width="0.5" stroke-miterlimit="10" x1="635.8" y1="330.5" x2="627.8" y2="338.5"/>
		<line fill="#FFFFFF" stroke="#000000" stroke-width="0.5" stroke-miterlimit="10" x1="635.8" y1="466.7" x2="627.8" y2="474.7"/>
		<line fill="#FFFFFF" stroke="#000000" stroke-width="0.5" stroke-miterlimit="10" x1="589" y1="506" x2="581" y2="514"/>
		<line fill="#FFFFFF" stroke="#000000" stroke-width="0.5" stroke-miterlimit="10" x1="190.8" y1="506" x2="182.8" y2="514"/>
		<line fill="#FFFFFF" stroke="#000000" stroke-width="0.5" stroke-miterlimit="10" x1="183.2" y1="506" x2="175.2" y2="514"/>
		<line fill="#FFFFFF" stroke="#000000" stroke-width="0.5" stroke-miterlimit="10" x1="89.1" y1="506" x2="81.1" y2="514"/>
		<line fill="#FFFFFF" stroke="#000000" stroke-width="0.5" stroke-miterlimit="10" x1="54.6" y1="466.7" x2="46.6" y2="474.7"/>
		<line fill="#FFFFFF" stroke="#000000" stroke-width="0.5" stroke-miterlimit="10" x1="54.6" y1="338.6" x2="46.6" y2="346.6"/>
		<line fill="#FFFFFF" stroke="#000000" stroke-width="0.5" stroke-miterlimit="10" x1="54.6" y1="325.7" x2="46.6" y2="333.7"/>
		<line fill="#FFFFFF" stroke="#000000" stroke-width="0.5" stroke-miterlimit="10" x1="54.6" y1="94" x2="46.6" y2="102"/>
		<g>
			<path d="M40.4,241.9h-1l-7-4.5v-0.7h1.6v0.5l5.3,3.4h0.1v-6h1.1V241.9z M42.5,237.1h-2.4h-0.5h-7.3V236h10.1V237.1z"/>
			<path d="M40.4,233h-1l-7-4.5v-0.7h1.6v0.5l5.3,3.4h0.1v-6h1.1V233z M42.5,228.2h-2.4h-0.5h-7.3V227h10.1V228.2z"/>
			<path d="M42.6,220.5c0,0.7-0.2,1.4-0.6,1.9c-0.4,0.5-1,0.9-1.8,1.2s-1.7,0.4-2.8,0.4c-1.1,0-2-0.1-2.8-0.4
				c-0.8-0.3-1.4-0.7-1.8-1.2c-0.4-0.5-0.6-1.2-0.6-1.9c0-0.7,0.2-1.4,0.6-1.9c0.4-0.5,1-0.9,1.8-1.2c0.8-0.3,1.7-0.4,2.8-0.4
				c1.1,0,2,0.1,2.8,0.4c0.8,0.3,1.4,0.7,1.8,1.2C42.4,219.1,42.6,219.7,42.6,220.5z M41.5,220.5c0-0.7-0.4-1.3-1.1-1.7
				s-1.7-0.6-3-0.6c-0.9,0-1.6,0.1-2.2,0.3c-0.6,0.2-1.1,0.5-1.4,0.8c-0.3,0.3-0.5,0.8-0.5,1.3c0,0.7,0.4,1.3,1.1,1.7
				c0.7,0.4,1.7,0.6,3.1,0.6c0.9,0,1.6-0.1,2.2-0.3s1.1-0.5,1.4-0.8C41.4,221.4,41.5,221,41.5,220.5z"/>
			<path d="M42.6,211.8c0,0.7-0.2,1.4-0.6,1.9c-0.4,0.5-1,0.9-1.8,1.2s-1.7,0.4-2.8,0.4c-1.1,0-2-0.1-2.8-0.4
				c-0.8-0.3-1.4-0.7-1.8-1.2c-0.4-0.5-0.6-1.2-0.6-1.9c0-0.7,0.2-1.4,0.6-1.9c0.4-0.5,1-0.9,1.8-1.2c0.8-0.3,1.7-0.4,2.8-0.4
				c1.1,0,2,0.1,2.8,0.4c0.8,0.3,1.4,0.7,1.8,1.2C42.4,210.4,42.6,211,42.6,211.8z M41.5,211.8c0-0.7-0.4-1.3-1.1-1.7
				s-1.7-0.6-3-0.6c-0.9,0-1.6,0.1-2.2,0.3c-0.6,0.2-1.1,0.5-1.4,0.8c-0.3,0.3-0.5,0.8-0.5,1.3c0,0.7,0.4,1.3,1.1,1.7
				c0.7,0.4,1.7,0.6,3.1,0.6c0.9,0,1.6-0.1,2.2-0.3s1.1-0.5,1.4-0.8C41.4,212.7,41.5,212.3,41.5,211.8z"/>
		</g>
		<g>
			<path d="M644.7,228.3h-1l-7-4.5v-0.7h1.6v0.5l5.3,3.4h0.1v-6h1.1V228.3z M646.8,223.6h-2.4H644h-7.3v-1.2h10.1V223.6z"/>
			<path d="M644.7,219.4h-1l-7-4.5v-0.7h1.6v0.5l5.3,3.4h0.1v-6h1.1V219.4z M646.8,214.6h-2.4H644h-7.3v-1.2h10.1V214.6z"/>
			<path d="M647,206.9c0,0.7-0.2,1.4-0.6,1.9c-0.4,0.5-1,0.9-1.8,1.2s-1.7,0.4-2.8,0.4c-1.1,0-2-0.1-2.8-0.4
				c-0.8-0.3-1.4-0.7-1.8-1.2c-0.4-0.5-0.6-1.2-0.6-1.9c0-0.7,0.2-1.4,0.6-1.9c0.4-0.5,1-0.9,1.8-1.2c0.8-0.3,1.7-0.4,2.8-0.4
				c1.1,0,2,0.1,2.8,0.4c0.8,0.3,1.4,0.7,1.8,1.2C646.8,205.5,647,206.2,647,206.9z M645.9,206.9c0-0.7-0.4-1.3-1.1-1.7
				s-1.7-0.6-3-0.6c-0.9,0-1.6,0.1-2.2,0.3c-0.6,0.2-1.1,0.5-1.4,0.8c-0.3,0.3-0.5,0.8-0.5,1.3c0,0.7,0.4,1.3,1.1,1.7
				c0.7,0.4,1.7,0.6,3.1,0.6c0.9,0,1.6-0.1,2.2-0.3s1.1-0.5,1.4-0.8C645.7,207.8,645.9,207.4,645.9,206.9z"/>
			<path d="M647,198.2c0,0.7-0.2,1.4-0.6,1.9c-0.4,0.5-1,0.9-1.8,1.2s-1.7,0.4-2.8,0.4c-1.1,0-2-0.1-2.8-0.4
				c-0.8-0.3-1.4-0.7-1.8-1.2c-0.4-0.5-0.6-1.2-0.6-1.9c0-0.7,0.2-1.4,0.6-1.9c0.4-0.5,1-0.9,1.8-1.2c0.8-0.3,1.7-0.4,2.8-0.4
				c1.1,0,2,0.1,2.8,0.4c0.8,0.3,1.4,0.7,1.8,1.2C646.8,196.8,647,197.5,647,198.2z M645.9,198.2c0-0.7-0.4-1.3-1.1-1.7
				s-1.7-0.6-3-0.6c-0.9,0-1.6,0.1-2.2,0.3c-0.6,0.2-1.1,0.5-1.4,0.8c-0.3,0.3-0.5,0.8-0.5,1.3c0,0.7,0.4,1.3,1.1,1.7
				c0.7,0.4,1.7,0.6,3.1,0.6c0.9,0,1.6-0.1,2.2-0.3s1.1-0.5,1.4-0.8C645.7,199.1,645.9,198.7,645.9,198.2z"/>
		</g>
		<g>
			<path d="M646.8,421.2h-0.9l-3.7-3.3c-0.4-0.4-0.8-0.7-1.1-1s-0.6-0.4-0.9-0.6c-0.3-0.1-0.6-0.2-0.9-0.2c-0.4,0-0.7,0.1-0.9,0.3
				c-0.3,0.2-0.5,0.4-0.6,0.7s-0.2,0.6-0.2,1c0,0.4,0.1,0.7,0.2,1c0.2,0.3,0.4,0.5,0.7,0.7c0.3,0.2,0.6,0.2,1,0.2v1.2
				c-0.6,0-1.1-0.1-1.6-0.4c-0.4-0.3-0.8-0.6-1-1.1c-0.3-0.5-0.4-1-0.4-1.6c0-0.6,0.1-1.1,0.4-1.6c0.3-0.5,0.6-0.8,1-1.1
				c0.4-0.3,0.9-0.4,1.4-0.4c0.4,0,0.7,0.1,1.1,0.2s0.7,0.4,1.2,0.7s1,0.8,1.6,1.4l2.4,2.3h0.1v-4.7h1.1V421.2z"/>
			<path d="M647,409.4c0,0.4-0.1,0.8-0.2,1.2c-0.2,0.4-0.4,0.8-0.8,1.1s-0.9,0.6-1.5,0.8c-0.6,0.2-1.4,0.3-2.3,0.3
				c-0.9,0-1.7-0.1-2.4-0.3c-0.7-0.2-1.3-0.4-1.8-0.7c-0.5-0.3-0.8-0.7-1.1-1.2s-0.4-1-0.4-1.5c0-0.6,0.1-1.1,0.3-1.5
				s0.5-0.8,0.9-1.1c0.4-0.3,0.9-0.5,1.4-0.5v1.2c-0.5,0.1-0.8,0.3-1.2,0.7c-0.3,0.3-0.5,0.8-0.5,1.3c0,0.8,0.3,1.4,1,1.9
				c0.7,0.5,1.6,0.7,2.9,0.7v-0.1c-0.3-0.2-0.5-0.4-0.7-0.7s-0.4-0.5-0.5-0.8c-0.1-0.3-0.2-0.6-0.2-1c0-0.6,0.1-1.1,0.4-1.6
				c0.3-0.5,0.7-0.9,1.2-1.2c0.5-0.3,1.1-0.4,1.7-0.4c0.6,0,1.2,0.1,1.7,0.4c0.5,0.3,0.9,0.7,1.2,1.2
				C646.8,408.1,647,408.7,647,409.4z M645.9,409.4c0-0.4-0.1-0.8-0.3-1.1c-0.2-0.3-0.5-0.6-0.8-0.8s-0.7-0.3-1.2-0.3
				c-0.4,0-0.8,0.1-1.1,0.3c-0.3,0.2-0.6,0.4-0.8,0.8c-0.2,0.3-0.3,0.7-0.3,1.1c0,0.3,0.1,0.6,0.2,0.9c0.1,0.3,0.3,0.5,0.5,0.7
				c0.2,0.2,0.5,0.4,0.7,0.5c0.3,0.1,0.6,0.2,0.9,0.2c0.4,0,0.8-0.1,1.1-0.3c0.3-0.2,0.6-0.5,0.8-0.8
				C645.8,410.2,645.9,409.8,645.9,409.4z"/>
			<path d="M646.8,404.1h-0.9l-3.7-3.3c-0.4-0.4-0.8-0.7-1.1-1s-0.6-0.4-0.9-0.6c-0.3-0.1-0.6-0.2-0.9-0.2c-0.4,0-0.7,0.1-0.9,0.3
				c-0.3,0.2-0.5,0.4-0.6,0.7c-0.1,0.3-0.2,0.6-0.2,1c0,0.4,0.1,0.7,0.2,1c0.2,0.3,0.4,0.5,0.7,0.7c0.3,0.2,0.6,0.2,1,0.2v1.2
				c-0.6,0-1.1-0.1-1.6-0.4c-0.4-0.3-0.8-0.6-1-1.1c-0.3-0.5-0.4-1-0.4-1.6c0-0.6,0.1-1.1,0.4-1.6c0.3-0.5,0.6-0.8,1-1.1
				c0.4-0.3,0.9-0.4,1.4-0.4c0.4,0,0.7,0.1,1.1,0.2c0.4,0.1,0.7,0.4,1.2,0.7s1,0.8,1.6,1.4l2.4,2.3h0.1v-4.7h1.1V404.1z"/>
			<path d="M647,392.3c0,0.7-0.2,1.4-0.6,1.9c-0.4,0.5-1,0.9-1.8,1.2c-0.8,0.3-1.7,0.4-2.8,0.4c-1.1,0-2-0.1-2.8-0.4
				c-0.8-0.3-1.4-0.7-1.8-1.2c-0.4-0.5-0.6-1.2-0.6-1.9s0.2-1.4,0.6-1.9c0.4-0.5,1-0.9,1.8-1.2s1.7-0.4,2.8-0.4c1.1,0,2,0.1,2.8,0.4
				s1.4,0.7,1.8,1.2C646.8,391,647,391.6,647,392.3z M645.9,392.3c0-0.7-0.4-1.3-1.1-1.7s-1.7-0.6-3-0.6c-0.9,0-1.6,0.1-2.2,0.3
				c-0.6,0.2-1.1,0.5-1.4,0.8c-0.3,0.3-0.5,0.8-0.5,1.3c0,0.7,0.4,1.3,1.1,1.7c0.7,0.4,1.7,0.6,3.1,0.6c0.9,0,1.6-0.1,2.2-0.3
				s1.1-0.5,1.4-0.8C645.7,393.3,645.9,392.8,645.9,392.3z"/>
		</g>
		<g>
			<path d="M160.5,24.2c-0.7,0-1.2-0.1-1.7-0.3c-0.5-0.2-0.9-0.5-1.2-0.9c-0.3-0.4-0.5-0.9-0.5-1.4h1.2c0,0.3,0.1,0.6,0.3,0.8
				c0.2,0.2,0.5,0.4,0.8,0.5c0.3,0.1,0.7,0.2,1.1,0.2c0.4,0,0.8-0.1,1.2-0.2c0.3-0.2,0.6-0.4,0.8-0.6c0.2-0.3,0.3-0.6,0.3-0.9
				c0-0.4-0.1-0.7-0.3-1c-0.2-0.3-0.5-0.5-0.8-0.7c-0.4-0.2-0.8-0.2-1.3-0.2h-0.8v-1.1h0.8c0.4,0,0.8-0.1,1.1-0.2
				c0.3-0.1,0.5-0.3,0.7-0.6c0.2-0.3,0.3-0.6,0.3-0.9c0-0.3-0.1-0.6-0.2-0.9c-0.2-0.3-0.4-0.5-0.6-0.6s-0.6-0.2-1-0.2
				c-0.3,0-0.7,0.1-1,0.2c-0.3,0.1-0.6,0.3-0.8,0.5c-0.2,0.2-0.3,0.5-0.3,0.9h-1.2c0-0.5,0.2-1,0.5-1.4c0.3-0.4,0.7-0.7,1.2-0.9
				s1-0.3,1.6-0.3c0.6,0,1.2,0.1,1.6,0.4c0.4,0.3,0.8,0.6,1,1s0.4,0.9,0.4,1.3c0,0.6-0.1,1.1-0.4,1.5c-0.3,0.4-0.7,0.7-1.2,0.8v0.1
				c0.6,0.1,1.1,0.4,1.5,0.8c0.4,0.4,0.5,1,0.5,1.6c0,0.6-0.1,1-0.4,1.5c-0.3,0.4-0.7,0.8-1.2,1C161.8,24.1,161.2,24.2,160.5,24.2z"
				/>
			<path d="M166,24.1v-0.9l3.3-3.7c0.4-0.4,0.7-0.8,1-1.1c0.3-0.3,0.4-0.6,0.6-0.9c0.1-0.3,0.2-0.6,0.2-0.9c0-0.4-0.1-0.7-0.3-0.9
				c-0.2-0.3-0.4-0.5-0.7-0.6s-0.6-0.2-1-0.2c-0.4,0-0.7,0.1-1,0.2c-0.3,0.2-0.5,0.4-0.7,0.7c-0.2,0.3-0.2,0.6-0.2,1H166
				c0-0.6,0.1-1.1,0.4-1.6c0.3-0.4,0.6-0.8,1.1-1c0.5-0.3,1-0.4,1.6-0.4c0.6,0,1.1,0.1,1.6,0.4c0.5,0.3,0.8,0.6,1.1,1
				c0.3,0.4,0.4,0.9,0.4,1.4c0,0.4-0.1,0.7-0.2,1.1c-0.1,0.4-0.4,0.7-0.7,1.2s-0.8,1-1.4,1.6l-2.3,2.4V23h4.7v1.1H166z"/>
			<path d="M177.7,24.2c-0.4,0-0.8-0.1-1.2-0.2c-0.4-0.2-0.8-0.4-1.1-0.8c-0.3-0.4-0.6-0.9-0.8-1.5s-0.3-1.4-0.3-2.3
				c0-0.9,0.1-1.7,0.3-2.4c0.2-0.7,0.4-1.3,0.7-1.8s0.7-0.8,1.2-1.1c0.5-0.2,1-0.4,1.5-0.4c0.6,0,1.1,0.1,1.5,0.3s0.8,0.5,1.1,0.9
				s0.5,0.9,0.5,1.4h-1.2c-0.1-0.5-0.3-0.8-0.7-1.1s-0.8-0.5-1.3-0.5c-0.8,0-1.4,0.3-1.9,1c-0.4,0.7-0.7,1.6-0.7,2.9h0.1
				c0.2-0.3,0.4-0.5,0.7-0.7c0.3-0.2,0.5-0.4,0.8-0.5c0.3-0.1,0.6-0.2,1-0.2c0.6,0,1.1,0.1,1.6,0.4s0.9,0.7,1.2,1.2
				c0.3,0.5,0.4,1.1,0.4,1.7c0,0.6-0.1,1.2-0.4,1.7c-0.3,0.5-0.7,0.9-1.2,1.2C179,24.1,178.4,24.2,177.7,24.2z M177.7,23.1
				c0.4,0,0.8-0.1,1.1-0.3c0.3-0.2,0.6-0.5,0.8-0.8s0.3-0.7,0.3-1.2c0-0.4-0.1-0.8-0.3-1.1c-0.2-0.3-0.4-0.6-0.8-0.8
				c-0.3-0.2-0.7-0.3-1.1-0.3c-0.3,0-0.6,0.1-0.9,0.2c-0.3,0.1-0.5,0.3-0.7,0.5s-0.4,0.5-0.5,0.7c-0.1,0.3-0.2,0.6-0.2,0.9
				c0,0.4,0.1,0.8,0.3,1.1c0.2,0.3,0.4,0.6,0.8,0.8C176.9,23,177.3,23.1,177.7,23.1z"/>
			<path d="M186.4,24.2c-0.7,0-1.4-0.2-1.9-0.6c-0.5-0.4-0.9-1-1.2-1.8s-0.4-1.7-0.4-2.8c0-1.1,0.1-2,0.4-2.8
				c0.3-0.8,0.7-1.4,1.2-1.8c0.5-0.4,1.2-0.6,1.9-0.6c0.7,0,1.4,0.2,1.9,0.6c0.5,0.4,0.9,1,1.2,1.8c0.3,0.8,0.4,1.7,0.4,2.8
				c0,1.1-0.1,2-0.4,2.8c-0.3,0.8-0.7,1.4-1.2,1.8C187.7,24,187.1,24.2,186.4,24.2z M186.4,23.1c0.7,0,1.3-0.4,1.7-1.1
				s0.6-1.7,0.6-3c0-0.9-0.1-1.6-0.3-2.2c-0.2-0.6-0.5-1.1-0.8-1.4c-0.3-0.3-0.8-0.5-1.3-0.5c-0.7,0-1.3,0.4-1.7,1.1
				c-0.4,0.7-0.6,1.7-0.6,3.1c0,0.9,0.1,1.6,0.3,2.2s0.5,1.1,0.8,1.4C185.5,23,185.9,23.1,186.4,23.1z"/>
		</g>
		<g>
			<path d="M326.6,24.2c-0.7,0-1.2-0.1-1.7-0.3c-0.5-0.2-0.9-0.5-1.2-0.9c-0.3-0.4-0.5-0.9-0.5-1.4h1.2c0,0.3,0.1,0.6,0.3,0.8
				c0.2,0.2,0.5,0.4,0.8,0.5c0.3,0.1,0.7,0.2,1.1,0.2c0.4,0,0.8-0.1,1.2-0.2c0.3-0.2,0.6-0.4,0.8-0.6c0.2-0.3,0.3-0.6,0.3-0.9
				c0-0.4-0.1-0.7-0.3-1c-0.2-0.3-0.5-0.5-0.8-0.7c-0.4-0.2-0.8-0.2-1.3-0.2h-0.8v-1.1h0.8c0.4,0,0.8-0.1,1.1-0.2
				c0.3-0.1,0.5-0.3,0.7-0.6c0.2-0.3,0.3-0.6,0.3-0.9c0-0.3-0.1-0.6-0.2-0.9c-0.2-0.3-0.4-0.5-0.6-0.6s-0.6-0.2-1-0.2
				c-0.3,0-0.7,0.1-1,0.2c-0.3,0.1-0.6,0.3-0.8,0.5c-0.2,0.2-0.3,0.5-0.3,0.9h-1.2c0-0.5,0.2-1,0.5-1.4c0.3-0.4,0.7-0.7,1.2-0.9
				s1-0.3,1.6-0.3c0.6,0,1.2,0.1,1.6,0.4c0.4,0.3,0.8,0.6,1,1s0.4,0.9,0.4,1.3c0,0.6-0.1,1.1-0.4,1.5c-0.3,0.4-0.7,0.7-1.2,0.8v0.1
				c0.6,0.1,1.1,0.4,1.5,0.8c0.4,0.4,0.5,1,0.5,1.6c0,0.6-0.1,1-0.4,1.5c-0.3,0.4-0.7,0.8-1.2,1C327.8,24.1,327.2,24.2,326.6,24.2z"
				/>
			<path d="M335.6,13.9v10.1h-1.2v-8.8h-0.1l-2.5,1.6v-1.2l2.5-1.7H335.6z"/>
			<path d="M341.8,24.2c-0.7,0-1.4-0.2-1.9-0.6c-0.5-0.4-0.9-1-1.2-1.8s-0.4-1.7-0.4-2.8c0-1.1,0.1-2,0.4-2.8
				c0.3-0.8,0.7-1.4,1.2-1.8c0.5-0.4,1.2-0.6,1.9-0.6c0.7,0,1.4,0.2,1.9,0.6c0.5,0.4,0.9,1,1.2,1.8c0.3,0.8,0.4,1.7,0.4,2.8
				c0,1.1-0.1,2-0.4,2.8c-0.3,0.8-0.7,1.4-1.2,1.8C343.2,24,342.5,24.2,341.8,24.2z M341.8,23.1c0.7,0,1.3-0.4,1.7-1.1
				s0.6-1.7,0.6-3c0-0.9-0.1-1.6-0.3-2.2c-0.2-0.6-0.5-1.1-0.8-1.4c-0.3-0.3-0.8-0.5-1.3-0.5c-0.7,0-1.3,0.4-1.7,1.1
				c-0.4,0.7-0.6,1.7-0.6,3.1c0,0.9,0.1,1.6,0.3,2.2s0.5,1.1,0.8,1.4C340.9,23,341.3,23.1,341.8,23.1z"/>
			<path d="M350.5,24.2c-0.7,0-1.4-0.2-1.9-0.6c-0.5-0.4-0.9-1-1.2-1.8S347,20.1,347,19c0-1.1,0.1-2,0.4-2.8
				c0.3-0.8,0.7-1.4,1.2-1.8c0.5-0.4,1.2-0.6,1.9-0.6c0.7,0,1.4,0.2,1.9,0.6c0.5,0.4,0.9,1,1.2,1.8c0.3,0.8,0.4,1.7,0.4,2.8
				c0,1.1-0.1,2-0.4,2.8c-0.3,0.8-0.7,1.4-1.2,1.8C351.9,24,351.2,24.2,350.5,24.2z M350.5,23.1c0.7,0,1.3-0.4,1.7-1.1
				s0.6-1.7,0.6-3c0-0.9-0.1-1.6-0.3-2.2c-0.2-0.6-0.5-1.1-0.8-1.4c-0.3-0.3-0.8-0.5-1.3-0.5c-0.7,0-1.3,0.4-1.7,1.1
				c-0.4,0.7-0.6,1.7-0.6,3.1c0,0.9,0.1,1.6,0.3,2.2s0.5,1.1,0.8,1.4C349.6,23,350,23.1,350.5,23.1z"/>
		</g>
		<g>
			<path d="M495.1,24.2c-0.7,0-1.2-0.1-1.7-0.3c-0.5-0.2-0.9-0.5-1.2-0.9c-0.3-0.4-0.5-0.9-0.5-1.4h1.2c0,0.3,0.1,0.6,0.3,0.8
				c0.2,0.2,0.5,0.4,0.8,0.5c0.3,0.1,0.7,0.2,1.1,0.2c0.4,0,0.8-0.1,1.2-0.2c0.3-0.2,0.6-0.4,0.8-0.6c0.2-0.3,0.3-0.6,0.3-0.9
				c0-0.4-0.1-0.7-0.3-1c-0.2-0.3-0.5-0.5-0.8-0.7c-0.4-0.2-0.8-0.2-1.3-0.2h-0.8v-1.1h0.8c0.4,0,0.8-0.1,1.1-0.2
				c0.3-0.1,0.5-0.3,0.7-0.6c0.2-0.3,0.3-0.6,0.3-0.9c0-0.3-0.1-0.6-0.2-0.9c-0.2-0.3-0.4-0.5-0.6-0.6s-0.6-0.2-1-0.2
				c-0.3,0-0.7,0.1-1,0.2c-0.3,0.1-0.6,0.3-0.8,0.5c-0.2,0.2-0.3,0.5-0.3,0.9h-1.2c0-0.5,0.2-1,0.5-1.4c0.3-0.4,0.7-0.7,1.2-0.9
				s1-0.3,1.6-0.3c0.6,0,1.2,0.1,1.6,0.4c0.4,0.3,0.8,0.6,1,1s0.4,0.9,0.4,1.3c0,0.6-0.1,1.1-0.4,1.5c-0.3,0.4-0.7,0.7-1.2,0.8v0.1
				c0.6,0.1,1.1,0.4,1.5,0.8c0.4,0.4,0.5,1,0.5,1.6c0,0.6-0.1,1-0.4,1.5c-0.3,0.4-0.7,0.8-1.2,1C496.3,24.1,495.7,24.2,495.1,24.2z"
				/>
			<path d="M504.1,13.9v10.1h-1.2v-8.8h-0.1l-2.5,1.6v-1.2l2.5-1.7H504.1z"/>
			<path d="M507.3,24.1l4.5-9V15h-5.2v-1.1h6.5v1.1l-4.5,9H507.3z"/>
			<path d="M518,24.2c-0.7,0-1.4-0.2-1.9-0.6c-0.5-0.4-0.9-1-1.2-1.8s-0.4-1.7-0.4-2.8c0-1.1,0.1-2,0.4-2.8c0.3-0.8,0.7-1.4,1.2-1.8
				c0.5-0.4,1.2-0.6,1.9-0.6c0.7,0,1.4,0.2,1.9,0.6c0.5,0.4,0.9,1,1.2,1.8c0.3,0.8,0.4,1.7,0.4,2.8c0,1.1-0.1,2-0.4,2.8
				c-0.3,0.8-0.7,1.4-1.2,1.8C519.4,24,518.8,24.2,518,24.2z M518,23.1c0.7,0,1.3-0.4,1.7-1.1s0.6-1.7,0.6-3c0-0.9-0.1-1.6-0.3-2.2
				c-0.2-0.6-0.5-1.1-0.8-1.4c-0.3-0.3-0.8-0.5-1.3-0.5c-0.7,0-1.3,0.4-1.7,1.1c-0.4,0.7-0.6,1.7-0.6,3.1c0,0.9,0.1,1.6,0.3,2.2
				s0.5,1.1,0.8,1.4C517.1,23,517.5,23.1,518,23.1z"/>
		</g>
		<g>
			<path d="M351.1,526.1v-0.9l3.3-3.7c0.4-0.4,0.7-0.8,1-1.1s0.4-0.6,0.6-0.9c0.1-0.3,0.2-0.6,0.2-0.9c0-0.4-0.1-0.7-0.3-0.9
				c-0.2-0.3-0.4-0.5-0.7-0.6s-0.6-0.2-1-0.2c-0.4,0-0.7,0.1-1,0.2c-0.3,0.2-0.5,0.4-0.7,0.7c-0.2,0.3-0.2,0.6-0.2,1h-1.2
				c0-0.6,0.1-1.1,0.4-1.6c0.3-0.4,0.6-0.8,1.1-1c0.5-0.3,1-0.4,1.6-0.4c0.6,0,1.1,0.1,1.6,0.4c0.5,0.3,0.8,0.6,1.1,1
				c0.3,0.4,0.4,0.9,0.4,1.4c0,0.4-0.1,0.7-0.2,1.1c-0.1,0.4-0.4,0.7-0.7,1.2s-0.8,1-1.4,1.6l-2.3,2.4v0.1h4.7v1.1H351.1z"/>
			<path d="M362.9,526.2c-0.7,0-1.2-0.1-1.7-0.3c-0.5-0.2-0.9-0.5-1.2-0.9c-0.3-0.4-0.5-0.9-0.5-1.4h1.2c0,0.3,0.1,0.6,0.3,0.8
				c0.2,0.2,0.5,0.4,0.8,0.5s0.7,0.2,1.1,0.2c0.4,0,0.8-0.1,1.2-0.2c0.3-0.2,0.6-0.4,0.8-0.6c0.2-0.3,0.3-0.6,0.3-0.9
				c0-0.4-0.1-0.7-0.3-1c-0.2-0.3-0.5-0.5-0.8-0.7c-0.4-0.2-0.8-0.2-1.3-0.2h-0.8v-1.1h0.8c0.4,0,0.8-0.1,1.1-0.2
				c0.3-0.1,0.5-0.3,0.7-0.6c0.2-0.3,0.3-0.6,0.3-0.9c0-0.3-0.1-0.6-0.2-0.9c-0.2-0.3-0.4-0.5-0.6-0.6s-0.6-0.2-1-0.2
				c-0.3,0-0.7,0.1-1,0.2c-0.3,0.1-0.6,0.3-0.8,0.5s-0.3,0.5-0.3,0.9h-1.2c0-0.5,0.2-1,0.5-1.4c0.3-0.4,0.7-0.7,1.2-0.9
				c0.5-0.2,1-0.3,1.6-0.3c0.6,0,1.2,0.1,1.6,0.4c0.4,0.3,0.8,0.6,1,1s0.4,0.9,0.4,1.3c0,0.6-0.1,1.1-0.4,1.5
				c-0.3,0.4-0.7,0.7-1.2,0.8v0.1c0.6,0.1,1.1,0.4,1.5,0.8s0.5,1,0.5,1.6c0,0.6-0.1,1-0.4,1.5s-0.7,0.8-1.2,1
				C364.1,526.1,363.6,526.2,362.9,526.2z"/>
			<path d="M371.6,526.2c-0.7,0-1.3-0.1-1.8-0.4c-0.5-0.2-0.9-0.6-1.2-1c-0.3-0.4-0.4-0.9-0.4-1.5c0-0.4,0.1-0.8,0.3-1.2
				s0.4-0.7,0.7-0.9c0.3-0.2,0.6-0.4,1-0.5v-0.1c-0.5-0.1-0.9-0.4-1.2-0.8c-0.3-0.4-0.4-0.9-0.4-1.4c0-0.5,0.1-1,0.4-1.4
				s0.6-0.7,1.1-1c0.5-0.2,1-0.4,1.6-0.4c0.6,0,1.1,0.1,1.6,0.4c0.5,0.2,0.8,0.6,1.1,1c0.3,0.4,0.4,0.9,0.4,1.4c0,0.5-0.1,1-0.4,1.4
				c-0.3,0.4-0.7,0.7-1.1,0.8v0.1c0.4,0.1,0.7,0.2,1,0.5c0.3,0.2,0.5,0.6,0.7,0.9s0.3,0.8,0.3,1.2c0,0.5-0.2,1-0.4,1.5
				c-0.3,0.4-0.7,0.8-1.2,1S372.3,526.2,371.6,526.2z M371.6,525.2c0.5,0,0.9-0.1,1.2-0.2s0.6-0.4,0.8-0.6c0.2-0.3,0.3-0.6,0.3-1
				c0-0.4-0.1-0.7-0.3-1c-0.2-0.3-0.5-0.5-0.8-0.7c-0.3-0.2-0.7-0.3-1.1-0.3c-0.4,0-0.8,0.1-1.2,0.3s-0.6,0.4-0.8,0.7
				c-0.2,0.3-0.3,0.6-0.3,1c0,0.4,0.1,0.7,0.3,1c0.2,0.3,0.4,0.5,0.8,0.6S371.1,525.2,371.6,525.2z M371.6,520.4
				c0.4,0,0.7-0.1,1-0.2c0.3-0.1,0.5-0.3,0.7-0.6c0.2-0.3,0.2-0.6,0.2-0.9c0-0.3-0.1-0.6-0.2-0.9s-0.4-0.5-0.7-0.6
				c-0.3-0.1-0.6-0.2-1-0.2c-0.4,0-0.7,0.1-1,0.2c-0.3,0.1-0.5,0.3-0.7,0.6s-0.2,0.6-0.2,0.9c0,0.3,0.1,0.7,0.2,0.9
				c0.2,0.3,0.4,0.5,0.7,0.6C370.9,520.3,371.2,520.4,371.6,520.4z"/>
			<path d="M380.1,526.2c-0.6,0-1.1-0.1-1.6-0.3s-0.8-0.5-1.1-0.9c-0.3-0.4-0.4-0.9-0.5-1.4h1.2c0,0.5,0.3,0.8,0.6,1.1
				c0.4,0.3,0.8,0.4,1.3,0.4c0.4,0,0.8-0.1,1.1-0.3s0.6-0.5,0.8-0.8c0.2-0.3,0.3-0.7,0.3-1.2c0-0.4-0.1-0.8-0.3-1.2
				c-0.2-0.3-0.5-0.6-0.8-0.8c-0.3-0.2-0.7-0.3-1.2-0.3c-0.3,0-0.6,0-1,0.1c-0.3,0.1-0.6,0.2-0.8,0.4l-1.1-0.1l0.6-5h5.3v1.1h-4.2
				l-0.4,3h0.1c0.2-0.2,0.5-0.3,0.8-0.4c0.3-0.1,0.6-0.2,1-0.2c0.6,0,1.2,0.1,1.7,0.4c0.5,0.3,0.9,0.7,1.1,1.2
				c0.3,0.5,0.4,1.1,0.4,1.8c0,0.6-0.1,1.2-0.4,1.7s-0.7,0.9-1.2,1.2C381.3,526.1,380.7,526.2,380.1,526.2z"/>
		</g>
		<g>
			<path d="M123.9,516v10.1h-1.2v-8.8h-0.1l-2.5,1.6v-1.2l2.5-1.7H123.9z"/>
			<path d="M130,526.2c-0.7,0-1.3-0.1-1.8-0.4c-0.5-0.2-0.9-0.6-1.2-1c-0.3-0.4-0.4-0.9-0.4-1.5c0-0.4,0.1-0.8,0.3-1.2
				s0.4-0.7,0.7-0.9c0.3-0.2,0.6-0.4,1-0.5v-0.1c-0.5-0.1-0.9-0.4-1.2-0.8c-0.3-0.4-0.4-0.9-0.4-1.4c0-0.5,0.1-1,0.4-1.4
				s0.6-0.7,1.1-1c0.5-0.2,1-0.4,1.6-0.4c0.6,0,1.1,0.1,1.6,0.4c0.5,0.2,0.8,0.6,1.1,1c0.3,0.4,0.4,0.9,0.4,1.4c0,0.5-0.1,1-0.4,1.4
				c-0.3,0.4-0.7,0.7-1.1,0.8v0.1c0.4,0.1,0.7,0.2,1,0.5c0.3,0.2,0.5,0.6,0.7,0.9s0.3,0.8,0.3,1.2c0,0.5-0.2,1-0.4,1.5
				c-0.3,0.4-0.7,0.8-1.2,1S130.7,526.2,130,526.2z M130,525.2c0.5,0,0.9-0.1,1.2-0.2s0.6-0.4,0.8-0.6c0.2-0.3,0.3-0.6,0.3-1
				c0-0.4-0.1-0.7-0.3-1c-0.2-0.3-0.5-0.5-0.8-0.7c-0.3-0.2-0.7-0.3-1.1-0.3c-0.4,0-0.8,0.1-1.2,0.3s-0.6,0.4-0.8,0.7
				c-0.2,0.3-0.3,0.6-0.3,1c0,0.4,0.1,0.7,0.3,1c0.2,0.3,0.4,0.5,0.8,0.6S129.5,525.2,130,525.2z M130,520.4c0.4,0,0.7-0.1,1-0.2
				c0.3-0.1,0.5-0.3,0.7-0.6c0.2-0.3,0.2-0.6,0.2-0.9c0-0.3-0.1-0.6-0.2-0.9s-0.4-0.5-0.7-0.6c-0.3-0.1-0.6-0.2-1-0.2
				c-0.4,0-0.7,0.1-1,0.2c-0.3,0.1-0.5,0.3-0.7,0.6s-0.2,0.6-0.2,0.9c0,0.3,0.1,0.7,0.2,0.9c0.2,0.3,0.4,0.5,0.7,0.6
				C129.3,520.3,129.6,520.4,130,520.4z"/>
			<path d="M138.8,526.2c-0.7,0-1.2-0.1-1.7-0.3c-0.5-0.2-0.9-0.5-1.2-0.9c-0.3-0.4-0.5-0.9-0.5-1.4h1.2c0,0.3,0.1,0.6,0.3,0.8
				c0.2,0.2,0.5,0.4,0.8,0.5s0.7,0.2,1.1,0.2c0.4,0,0.8-0.1,1.2-0.2c0.3-0.2,0.6-0.4,0.8-0.6c0.2-0.3,0.3-0.6,0.3-0.9
				c0-0.4-0.1-0.7-0.3-1c-0.2-0.3-0.5-0.5-0.8-0.7c-0.4-0.2-0.8-0.2-1.3-0.2h-0.8v-1.1h0.8c0.4,0,0.8-0.1,1.1-0.2
				c0.3-0.1,0.5-0.3,0.7-0.6c0.2-0.3,0.3-0.6,0.3-0.9c0-0.3-0.1-0.6-0.2-0.9c-0.2-0.3-0.4-0.5-0.6-0.6s-0.6-0.2-1-0.2
				c-0.3,0-0.7,0.1-1,0.2c-0.3,0.1-0.6,0.3-0.8,0.5s-0.3,0.5-0.3,0.9h-1.2c0-0.5,0.2-1,0.5-1.4c0.3-0.4,0.7-0.7,1.2-0.9
				c0.5-0.2,1-0.3,1.6-0.3c0.6,0,1.2,0.1,1.6,0.4c0.4,0.3,0.8,0.6,1,1s0.4,0.9,0.4,1.3c0,0.6-0.1,1.1-0.4,1.5
				c-0.3,0.4-0.7,0.7-1.2,0.8v0.1c0.6,0.1,1.1,0.4,1.5,0.8s0.5,1,0.5,1.6c0,0.6-0.1,1-0.4,1.5s-0.7,0.8-1.2,1
				C140,526.1,139.4,526.2,138.8,526.2z"/>
			<path d="M147.4,526.2c-0.6,0-1.1-0.1-1.6-0.3s-0.8-0.5-1.1-0.9c-0.3-0.4-0.4-0.9-0.5-1.4h1.2c0,0.5,0.3,0.8,0.6,1.1
				c0.4,0.3,0.8,0.4,1.3,0.4c0.4,0,0.8-0.1,1.1-0.3s0.6-0.5,0.8-0.8c0.2-0.3,0.3-0.7,0.3-1.2c0-0.4-0.1-0.8-0.3-1.2
				c-0.2-0.3-0.5-0.6-0.8-0.8c-0.3-0.2-0.7-0.3-1.2-0.3c-0.3,0-0.6,0-1,0.1c-0.3,0.1-0.6,0.2-0.8,0.4l-1.1-0.1l0.6-5h5.3v1.1H146
				l-0.4,3h0.1c0.2-0.2,0.5-0.3,0.8-0.4c0.3-0.1,0.6-0.2,1-0.2c0.6,0,1.2,0.1,1.7,0.4c0.5,0.3,0.9,0.7,1.1,1.2
				c0.3,0.5,0.4,1.1,0.4,1.8c0,0.6-0.1,1.2-0.4,1.7s-0.7,0.9-1.2,1.2C148.6,526.1,148,526.2,147.4,526.2z"/>
		</g>
		<g>
			<path d="M42.5,422.9h-0.9l-3.7-3.3c-0.4-0.4-0.8-0.7-1.1-1c-0.3-0.3-0.6-0.4-0.9-0.6c-0.3-0.1-0.6-0.2-0.9-0.2
				c-0.4,0-0.7,0.1-0.9,0.3c-0.3,0.2-0.5,0.4-0.6,0.7c-0.1,0.3-0.2,0.6-0.2,1c0,0.4,0.1,0.7,0.2,1c0.2,0.3,0.4,0.5,0.7,0.7
				s0.6,0.2,1,0.2v1.2c-0.6,0-1.1-0.1-1.6-0.4s-0.8-0.6-1-1.1c-0.3-0.5-0.4-1-0.4-1.6c0-0.6,0.1-1.1,0.4-1.6c0.3-0.5,0.6-0.8,1-1.1
				c0.4-0.3,0.9-0.4,1.4-0.4c0.4,0,0.7,0.1,1.1,0.2c0.4,0.1,0.7,0.4,1.2,0.7s1,0.8,1.6,1.4l2.4,2.3h0.1v-4.7h1.1V422.9z"/>
			<path d="M40.4,414.9h-1l-7-4.5v-0.7h1.6v0.5l5.3,3.4h0.1v-6h1.1V414.9z M42.5,410.2h-2.4h-0.5h-7.3V409h10.1V410.2z"/>
			<path d="M42.5,405.7h-0.9l-3.7-3.3c-0.4-0.4-0.8-0.7-1.1-1c-0.3-0.3-0.6-0.4-0.9-0.6c-0.3-0.1-0.6-0.2-0.9-0.2
				c-0.4,0-0.7,0.1-0.9,0.3c-0.3,0.2-0.5,0.4-0.6,0.7c-0.1,0.3-0.2,0.6-0.2,1c0,0.4,0.1,0.7,0.2,1c0.2,0.3,0.4,0.5,0.7,0.7
				c0.3,0.2,0.6,0.2,1,0.2v1.2c-0.6,0-1.1-0.1-1.6-0.4c-0.4-0.3-0.8-0.6-1-1.1s-0.4-1-0.4-1.6c0-0.6,0.1-1.1,0.4-1.6s0.6-0.8,1-1.1
				c0.4-0.3,0.9-0.4,1.4-0.4c0.4,0,0.7,0.1,1.1,0.2c0.4,0.1,0.7,0.4,1.2,0.7s1,0.8,1.6,1.4l2.4,2.3h0.1v-4.7h1.1V405.7z"/>
			<path d="M42.6,394.2c0,0.6-0.1,1.1-0.3,1.6c-0.2,0.5-0.5,0.8-0.9,1.1c-0.4,0.3-0.9,0.4-1.4,0.5v-1.2c0.5,0,0.8-0.3,1.1-0.6
				c0.3-0.4,0.4-0.8,0.4-1.3c0-0.4-0.1-0.8-0.3-1.1c-0.2-0.3-0.5-0.6-0.8-0.8c-0.3-0.2-0.7-0.3-1.2-0.3c-0.4,0-0.8,0.1-1.2,0.3
				c-0.3,0.2-0.6,0.5-0.8,0.8c-0.2,0.3-0.3,0.7-0.3,1.2c0,0.3,0,0.6,0.1,1s0.2,0.6,0.4,0.8l-0.1,1.1l-5-0.6v-5.3h1.1v4.2l3,0.4v-0.1
				c-0.2-0.2-0.3-0.5-0.4-0.8s-0.2-0.6-0.2-1c0-0.6,0.1-1.2,0.4-1.7c0.3-0.5,0.7-0.9,1.2-1.1c0.5-0.3,1.1-0.4,1.8-0.4
				c0.6,0,1.2,0.1,1.7,0.4c0.5,0.3,0.9,0.7,1.2,1.2C42.5,392.9,42.6,393.5,42.6,394.2z"/>
		</g>
		<g>
			
				<rect x="61" y="408.3" transform="matrix(3.009459e-03 -1 1 3.009459e-03 -323.6904 529.9691)" fill="#FFFFFF" stroke="#5E6367" stroke-width="0.5" stroke-miterlimit="10" width="85.8" height="38"/>
			
				<rect x="61" y="408.3" transform="matrix(3.009459e-03 -1 1 3.009459e-03 -323.6904 529.9691)" fill="#FFFFFF" stroke="#5E6367" stroke-width="0.5" stroke-miterlimit="10" width="85.8" height="38"/>
			<path fill="#FFFFFF" stroke="#5E6367" stroke-width="0.5" stroke-miterlimit="10" d="M87.5,465.8l32.7,0.1l0.2-65.2
				c0-7.3-5.9-13.3-13.3-13.3l-6.1,0c-7.3,0-13.3,5.9-13.3,13.3L87.5,465.8z"/>
			<path fill="#FFFFFF" stroke="#5E6367" stroke-width="0.5" stroke-miterlimit="10" d="M87.5,465.8l32.7,0.1l0.2-65.2
				c0-7.3-5.9-13.3-13.3-13.3l-6.1,0c-7.3,0-13.3,5.9-13.3,13.3L87.5,465.8z"/>
			<path fill="#FFFFFF" stroke="#5E6367" stroke-width="0.5" stroke-miterlimit="10" d="M89.7,463.4l28.2,0.1l0.2-62.3
				c0-6.3-5.1-11.5-11.5-11.5l-5.3,0c-6.3,0-11.5,5.1-11.5,11.5L89.7,463.4z"/>
			<path fill="#FFFFFF" stroke="#5E6367" stroke-width="0.5" stroke-miterlimit="10" d="M89.7,463.4l28.2,0.1l0.2-62.3
				c0-6.3-5.1-11.5-11.5-11.5l-5.3,0c-6.3,0-11.5,5.1-11.5,11.5L89.7,463.4z"/>
			<path fill="#FFFFFF" stroke="#5E6367" stroke-width="0.5" stroke-miterlimit="10" d="M101.8,459.5c0,1.1,0.9,2,2,2
				c1.1,0,2-0.9,2-2c0-1.1-0.9-2-2-2C102.7,457.5,101.8,458.4,101.8,459.5"/>
			<path fill="#FFFFFF" stroke="#5E6367" stroke-width="0.5" stroke-miterlimit="10" d="M101.8,459.5c0,1.1,0.9,2,2,2
				c1.1,0,2-0.9,2-2c0-1.1-0.9-2-2-2C102.7,457.5,101.8,458.4,101.8,459.5z"/>
			<polygon fill="#FFFFFF" stroke="#5E6367" stroke-width="0.5" stroke-miterlimit="10" points="99.8,464.9 103.8,468.8 
				107.9,464.9 103.8,461 			"/>
			<polygon fill="#FFFFFF" stroke="#5E6367" stroke-width="0.5" stroke-miterlimit="10" points="99.8,464.9 103.8,468.8 
				107.9,464.9 103.8,461 			"/>
			
				<rect x="98.4" y="459.4" transform="matrix(3.383024e-03 -1 1 3.383024e-03 -356.8768 562.5613)" fill="#FFFFFF" stroke="#5E6367" stroke-width="0.5" stroke-miterlimit="10" width="10.7" height="1.8"/>
			
				<rect x="98.4" y="459.4" transform="matrix(3.383024e-03 -1 1 3.383024e-03 -356.8768 562.5613)" fill="#FFFFFF" stroke="#5E6367" stroke-width="0.5" stroke-miterlimit="10" width="10.7" height="1.8"/>
		</g>
		<g>
			<path fill="#FFFFFF" stroke="#5E6367" stroke-width="0.5" stroke-miterlimit="10" d="M84.8,348.2l0,24.2l11.2,0
				c6.3,0,11.5-5.1,11.5-11.5v-1.2c0-6.3-5.1-11.5-11.5-11.5L84.8,348.2z"/>
			<path fill="#FFFFFF" stroke="#5E6367" stroke-width="0.5" stroke-miterlimit="10" d="M84.8,348.2l0,24.2l11.2,0
				c6.3,0,11.5-5.1,11.5-11.5v-1.2c0-6.3-5.1-11.5-11.5-11.5L84.8,348.2z"/>
			<path fill="#FFFFFF" stroke="#5E6367" stroke-width="0.5" stroke-miterlimit="10" d="M88.7,350.1l0,20.3l7.3,0
				c5.3,0,9.6-4.3,9.7-9.6v-1c0-5.3-4.3-9.7-9.6-9.7L88.7,350.1z"/>
			<path fill="#FFFFFF" stroke="#5E6367" stroke-width="0.5" stroke-miterlimit="10" d="M88.7,350.1l0,20.3l7.3,0
				c5.3,0,9.6-4.3,9.7-9.6v-1c0-5.3-4.3-9.7-9.6-9.7L88.7,350.1z"/>
			<path fill="#FFFFFF" stroke="#5E6367" stroke-width="0.5" stroke-miterlimit="10" d="M90.5,351.9l0,16.6l5.4,0
				c4.4,0,7.9-3.5,7.9-7.9v-0.8c0-4.4-3.5-7.9-7.9-7.9L90.5,351.9z"/>
			<path fill="#FFFFFF" stroke="#5E6367" stroke-width="0.5" stroke-miterlimit="10" d="M90.5,351.9l0,16.6l5.4,0
				c4.4,0,7.9-3.5,7.9-7.9v-0.8c0-4.4-3.5-7.9-7.9-7.9L90.5,351.9z"/>
			<path fill="#FFFFFF" stroke="#5E6367" stroke-width="0.5" stroke-miterlimit="10" d="M94.7,358.6c-0.9,0-1.6,0.7-1.6,1.6
				c0,0.9,0.7,1.6,1.6,1.6s1.6-0.7,1.6-1.6C96.4,359.3,95.6,358.6,94.7,358.6"/>
			<path fill="#FFFFFF" stroke="#5E6367" stroke-width="0.5" stroke-miterlimit="10" d="M94.7,358.6c-0.9,0-1.6,0.7-1.6,1.6
				c0,0.9,0.7,1.6,1.6,1.6s1.6-0.7,1.6-1.6C96.4,359.3,95.6,358.6,94.7,358.6z"/>
			
				<rect x="87.9" y="357.9" transform="matrix(0.7075 -0.7067 0.7067 0.7075 -228.2079 169.1035)" fill="#FFFFFF" stroke="#5E6367" stroke-width="0.5" stroke-miterlimit="10" width="4.6" height="4.6"/>
			
				<rect x="87.9" y="357.9" transform="matrix(0.7075 -0.7067 0.7067 0.7075 -228.2079 169.1035)" fill="#FFFFFF" stroke="#5E6367" stroke-width="0.5" stroke-miterlimit="10" width="4.6" height="4.6"/>
			<rect x="89.6" y="359.5" fill="#FFFFFF" stroke="#5E6367" stroke-width="0.5" stroke-miterlimit="10" width="8.9" height="1.5"/>
			<rect x="89.6" y="359.5" fill="#FFFFFF" stroke="#5E6367" stroke-width="0.5" stroke-miterlimit="10" width="8.9" height="1.5"/>
		</g>
		<g>
			<path fill="#FFFFFF" stroke="#5E6367" stroke-width="0.5" stroke-miterlimit="10" d="M146.3,432.9l4.7,0c4.8,0,8.7,3.9,8.7,8.8
				l-0.1,28.6l-22.1-0.1l0.1-28.6C137.5,436.8,141.4,432.9,146.3,432.9"/>
			<path fill="#FFFFFF" stroke="#5E6367" stroke-width="0.5" stroke-miterlimit="10" d="M146.3,432.9l4.7,0c4.8,0,8.7,3.9,8.7,8.8
				l-0.1,28.6l-22.1-0.1l0.1-28.6C137.5,436.8,141.4,432.9,146.3,432.9z"/>
			<path fill="#FFFFFF" stroke="#5E6367" stroke-width="0.5" stroke-miterlimit="10" d="M146.7,435.1l3.8,0c3.9,0,7.1,3.2,7.1,7.1
				l-0.1,17.8l-18-0.1l0.1-17.8C139.6,438.2,142.7,435,146.7,435.1"/>
			<path fill="#FFFFFF" stroke="#5E6367" stroke-width="0.5" stroke-miterlimit="10" d="M146.7,435.1l3.8,0c3.9,0,7.1,3.2,7.1,7.1
				l-0.1,17.8l-18-0.1l0.1-17.8C139.6,438.2,142.7,435,146.7,435.1z"/>
			<path fill="#FFFFFF" stroke="#5E6367" stroke-width="0.5" stroke-miterlimit="10" d="M147.1,437.6l2.9,0c3,0,5.5,2.5,5.5,5.5
				l-0.1,14.4l-13.9,0l0.1-14.4C141.6,440,144.1,437.6,147.1,437.6"/>
			<path fill="#FFFFFF" stroke="#5E6367" stroke-width="0.5" stroke-miterlimit="10" d="M147.1,437.6l2.9,0c3,0,5.5,2.5,5.5,5.5
				l-0.1,14.4l-13.9,0l0.1-14.4C141.6,440,144.1,437.6,147.1,437.6z"/>
			<path fill="#FFFFFF" stroke="#5E6367" stroke-width="0.5" stroke-miterlimit="10" d="M146.4,449.9c0,1.2,0.9,2.1,2.1,2.1
				c1.2,0,2.1-0.9,2.1-2.1c0-1.2-0.9-2.1-2.1-2.1C147.4,447.8,146.4,448.7,146.4,449.9"/>
			<path fill="#FFFFFF" stroke="#5E6367" stroke-width="0.5" stroke-miterlimit="10" d="M146.4,449.9c0,1.2,0.9,2.1,2.1,2.1
				c1.2,0,2.1-0.9,2.1-2.1c0-1.2-0.9-2.1-2.1-2.1C147.4,447.8,146.4,448.7,146.4,449.9z"/>
			
				<rect x="144.1" y="454.8" transform="matrix(3.572799e-03 -1 1 3.572799e-03 -317.9021 612.6417)" fill="#FFFFFF" stroke="#5E6367" stroke-width="0.5" stroke-miterlimit="10" width="8.8" height="22.1"/>
			
				<rect x="144.1" y="454.8" transform="matrix(3.572799e-03 -1 1 3.572799e-03 -317.9021 612.6417)" fill="#FFFFFF" stroke="#5E6367" stroke-width="0.5" stroke-miterlimit="10" width="8.8" height="22.1"/>
		</g>
	</g>
</g>
<g id="Furniture">
	<g>
		<g>
			
				<rect x="525.1" y="269.7" transform="matrix(-6.130048e-11 1 -1 -6.130048e-11 854.8333 -227.0126)" fill="#FFFFFF" stroke="#5E6367" stroke-width="0.5" stroke-miterlimit="10" width="31.7" height="88.4"/>
		</g>
		<line fill="#FFFFFF" stroke="#5E6367" stroke-width="0.5" stroke-miterlimit="10" x1="585.1" y1="313.4" x2="496.7" y2="313.4"/>
		
			<rect x="578.3" y="299.8" transform="matrix(-1 -3.877444e-11 3.877444e-11 -1 1159.5067 627.5814)" fill="#FFFFFF" stroke="#5E6367" stroke-width="0.5" stroke-miterlimit="10" width="2.9" height="28"/>
		
			<rect x="570" y="299.8" transform="matrix(-1 -3.691326e-11 3.691326e-11 -1 1142.8844 627.5814)" fill="#FFFFFF" stroke="#5E6367" stroke-width="0.5" stroke-miterlimit="10" width="2.9" height="28"/>
		
			<rect x="561.7" y="299.8" transform="matrix(-1 -3.815405e-11 3.815405e-11 -1 1126.262 627.5814)" fill="#FFFFFF" stroke="#5E6367" stroke-width="0.5" stroke-miterlimit="10" width="2.9" height="28"/>
		
			<rect x="553.4" y="299.8" transform="matrix(-1 -3.164015e-11 3.164015e-11 -1 1109.6396 627.5814)" fill="#FFFFFF" stroke="#5E6367" stroke-width="0.5" stroke-miterlimit="10" width="2.9" height="28"/>
		
			<rect x="536.7" y="299.8" transform="matrix(-1 -3.877444e-11 3.877444e-11 -1 1076.3949 627.5814)" fill="#FFFFFF" stroke="#5E6367" stroke-width="0.5" stroke-miterlimit="10" width="2.9" height="28"/>
		<polygon fill="#FFFFFF" stroke="#5E6367" stroke-width="0.5" stroke-miterlimit="10" points="515.4,327.7 518.3,327.2 
			511.1,299.9 508.3,300.4 		"/>
		<g>
			
				<rect x="516" y="275.9" transform="matrix(-9.131025e-11 1 -1 -9.131025e-11 814.1225 -220.7923)" fill="#FFFFFF" stroke="#5E6367" stroke-width="0.5" stroke-miterlimit="10" width="2.8" height="41.5"/>
			
				<rect x="510.6" y="292.1" transform="matrix(-5.524488e-11 1 -1 -5.524488e-11 807.5715 -218.1692)" fill="#FFFFFF" stroke="#5E6367" stroke-width="0.5" stroke-miterlimit="10" width="4.4" height="5.3"/>
		</g>
		<g>
			
				<rect x="560.2" y="273.2" transform="matrix(-4.501218e-11 1 -1 -4.501218e-11 858.3281 -264.9979)" fill="#FFFFFF" stroke="#5E6367" stroke-width="0.5" stroke-miterlimit="10" width="2.8" height="46.9"/>
			
				<rect x="559.8" y="292.3" transform="matrix(-4.910668e-11 1 -1 -4.910668e-11 856.9808 -267.0306)" fill="#FFFFFF" stroke="#5E6367" stroke-width="0.5" stroke-miterlimit="10" width="4.4" height="5.3"/>
		</g>
	</g>
	<g>
		<g>
			
				<rect x="258" y="367.2" transform="matrix(-5.095942e-11 1 -1 -5.095942e-11 728.2994 180.5762)" fill="#FFFFFF" stroke="#5E6367" stroke-width="0.5" stroke-miterlimit="10" width="31.7" height="174.5"/>
		</g>
		<line fill="#FFFFFF" stroke="#5E6367" stroke-width="0.5" stroke-miterlimit="10" x1="361.1" y1="453.9" x2="186.6" y2="453.9"/>
		
			<rect x="254.3" y="440.3" transform="matrix(-1 -4.710466e-11 4.710466e-11 -1 511.0587 908.6364)" fill="#FFFFFF" stroke="#5E6367" stroke-width="0.5" stroke-miterlimit="10" width="2.4" height="28"/>
		
			<rect x="247.4" y="440.3" transform="matrix(-1 -4.486157e-11 4.486157e-11 -1 497.2664 908.6364)" fill="#FFFFFF" stroke="#5E6367" stroke-width="0.5" stroke-miterlimit="10" width="2.4" height="28"/>
		
			<rect x="240.5" y="440.3" transform="matrix(-1 -4.560942e-11 4.560942e-11 -1 483.4741 908.6364)" fill="#FFFFFF" stroke="#5E6367" stroke-width="0.5" stroke-miterlimit="10" width="2.4" height="28"/>
		
			<rect x="233.6" y="440.3" transform="matrix(-1 -3.738488e-11 3.738488e-11 -1 469.6819 908.6364)" fill="#FFFFFF" stroke="#5E6367" stroke-width="0.5" stroke-miterlimit="10" width="2.4" height="28"/>
		
			<rect x="281.3" y="440.3" transform="matrix(-1 -4.710466e-11 4.710466e-11 -1 565.0587 908.6364)" fill="#FFFFFF" stroke="#5E6367" stroke-width="0.5" stroke-miterlimit="10" width="2.4" height="28"/>
		
			<rect x="274.4" y="440.3" transform="matrix(-1 -4.486157e-11 4.486157e-11 -1 551.2664 908.6364)" fill="#FFFFFF" stroke="#5E6367" stroke-width="0.5" stroke-miterlimit="10" width="2.4" height="28"/>
		
			<rect x="267.5" y="440.3" transform="matrix(-1 -4.560942e-11 4.560942e-11 -1 537.4741 908.6364)" fill="#FFFFFF" stroke="#5E6367" stroke-width="0.5" stroke-miterlimit="10" width="2.4" height="28"/>
		
			<rect x="260.6" y="440.3" transform="matrix(-1 -3.738488e-11 3.738488e-11 -1 523.6818 908.6364)" fill="#FFFFFF" stroke="#5E6367" stroke-width="0.5" stroke-miterlimit="10" width="2.4" height="28"/>
		
			<rect x="308.3" y="440.3" transform="matrix(-1 -4.710466e-11 4.710466e-11 -1 619.0587 908.6364)" fill="#FFFFFF" stroke="#5E6367" stroke-width="0.5" stroke-miterlimit="10" width="2.4" height="28"/>
		
			<rect x="301.4" y="440.3" transform="matrix(-1 -4.486157e-11 4.486157e-11 -1 605.2664 908.6364)" fill="#FFFFFF" stroke="#5E6367" stroke-width="0.5" stroke-miterlimit="10" width="2.4" height="28"/>
		
			<rect x="294.5" y="440.3" transform="matrix(-1 -4.560942e-11 4.560942e-11 -1 591.4741 908.6364)" fill="#FFFFFF" stroke="#5E6367" stroke-width="0.5" stroke-miterlimit="10" width="2.4" height="28"/>
		
			<rect x="287.6" y="440.3" transform="matrix(-1 -3.738488e-11 3.738488e-11 -1 577.6818 908.6364)" fill="#FFFFFF" stroke="#5E6367" stroke-width="0.5" stroke-miterlimit="10" width="2.4" height="28"/>
		
			<rect x="219.8" y="440.3" transform="matrix(-1 -4.635682e-11 4.635682e-11 -1 442.0973 908.6364)" fill="#FFFFFF" stroke="#5E6367" stroke-width="0.5" stroke-miterlimit="10" width="2.4" height="28"/>
		<polygon fill="#FFFFFF" stroke="#5E6367" stroke-width="0.5" stroke-miterlimit="10" points="202.1,468.2 204.5,467.7 
			198.6,440.4 196.2,440.9 		"/>
		<polygon fill="#FFFFFF" stroke="#5E6367" stroke-width="0.5" stroke-miterlimit="10" points="333.1,468.2 335.5,467.7 
			329.6,440.4 327.2,440.9 		"/>
		<polygon fill="#FFFFFF" stroke="#5E6367" stroke-width="0.5" stroke-miterlimit="10" points="343.1,468.2 345.5,467.7 
			339.6,440.4 337.2,440.9 		"/>
		<g>
			
				<rect x="230.6" y="391.8" transform="matrix(-1.996618e-10 1 -1 -1.996618e-10 669.1766 205.2087)" fill="#FFFFFF" stroke="#5E6367" stroke-width="0.5" stroke-miterlimit="10" width="2.8" height="90.7"/>
			
				<rect x="230.8" y="433" transform="matrix(-4.583285e-11 1 -1 -4.583285e-11 668.2624 202.195)" fill="#FFFFFF" stroke="#5E6367" stroke-width="0.5" stroke-miterlimit="10" width="4.4" height="4.4"/>
		</g>
		<g>
			
				<rect x="317.8" y="395.3" transform="matrix(-1.993446e-11 1 -1 -1.993446e-11 756.4073 117.978)" fill="#FFFFFF" stroke="#5E6367" stroke-width="0.5" stroke-miterlimit="10" width="2.8" height="83.8"/>
			
				<rect x="311.6" y="433.3" transform="matrix(-4.092212e-11 1 -1 -4.092212e-11 749.306 121.6992)" fill="#FFFFFF" stroke="#5E6367" stroke-width="0.5" stroke-miterlimit="10" width="4.4" height="4.4"/>
		</g>
	</g>
	<g>
		
			<rect x="61" y="408.3" transform="matrix(3.009459e-03 -1 1 3.009459e-03 -323.6904 529.9691)" fill="#FFFFFF" stroke="#5E6367" stroke-width="0.5" stroke-miterlimit="10" width="85.8" height="38"/>
		
			<rect x="61" y="408.3" transform="matrix(3.009459e-03 -1 1 3.009459e-03 -323.6904 529.9691)" fill="#FFFFFF" stroke="#5E6367" stroke-width="0.5" stroke-miterlimit="10" width="85.8" height="38"/>
		<path fill="#FFFFFF" stroke="#5E6367" stroke-width="0.5" stroke-miterlimit="10" d="M87.5,465.8l32.7,0.1l0.2-65.2
			c0-7.3-5.9-13.3-13.3-13.3l-6.1,0c-7.3,0-13.3,5.9-13.3,13.3L87.5,465.8z"/>
		<path fill="#FFFFFF" stroke="#5E6367" stroke-width="0.5" stroke-miterlimit="10" d="M87.5,465.8l32.7,0.1l0.2-65.2
			c0-7.3-5.9-13.3-13.3-13.3l-6.1,0c-7.3,0-13.3,5.9-13.3,13.3L87.5,465.8z"/>
		<path fill="#FFFFFF" stroke="#5E6367" stroke-width="0.5" stroke-miterlimit="10" d="M89.7,463.4l28.2,0.1l0.2-62.3
			c0-6.3-5.1-11.5-11.5-11.5l-5.3,0c-6.3,0-11.5,5.1-11.5,11.5L89.7,463.4z"/>
		<path fill="#FFFFFF" stroke="#5E6367" stroke-width="0.5" stroke-miterlimit="10" d="M89.7,463.4l28.2,0.1l0.2-62.3
			c0-6.3-5.1-11.5-11.5-11.5l-5.3,0c-6.3,0-11.5,5.1-11.5,11.5L89.7,463.4z"/>
		<path fill="#FFFFFF" stroke="#5E6367" stroke-width="0.5" stroke-miterlimit="10" d="M101.8,459.5c0,1.1,0.9,2,2,2
			c1.1,0,2-0.9,2-2c0-1.1-0.9-2-2-2C102.7,457.5,101.8,458.4,101.8,459.5"/>
		<path fill="#FFFFFF" stroke="#5E6367" stroke-width="0.5" stroke-miterlimit="10" d="M101.8,459.5c0,1.1,0.9,2,2,2
			c1.1,0,2-0.9,2-2c0-1.1-0.9-2-2-2C102.7,457.5,101.8,458.4,101.8,459.5z"/>
		<polygon fill="#FFFFFF" stroke="#5E6367" stroke-width="0.5" stroke-miterlimit="10" points="99.8,464.9 103.8,468.8 107.9,464.9 
			103.8,461 		"/>
		<polygon fill="#FFFFFF" stroke="#5E6367" stroke-width="0.5" stroke-miterlimit="10" points="99.8,464.9 103.8,468.8 107.9,464.9 
			103.8,461 		"/>
		
			<rect x="98.4" y="459.4" transform="matrix(3.383024e-03 -1 1 3.383024e-03 -356.8768 562.5613)" fill="#FFFFFF" stroke="#5E6367" stroke-width="0.5" stroke-miterlimit="10" width="10.7" height="1.8"/>
		
			<rect x="98.4" y="459.4" transform="matrix(3.383024e-03 -1 1 3.383024e-03 -356.8768 562.5613)" fill="#FFFFFF" stroke="#5E6367" stroke-width="0.5" stroke-miterlimit="10" width="10.7" height="1.8"/>
	</g>
	<g>
		<path fill="#FFFFFF" stroke="#5E6367" stroke-width="0.5" stroke-miterlimit="10" d="M84.8,348.2l0,24.2l11.2,0
			c6.3,0,11.5-5.1,11.5-11.5v-1.2c0-6.3-5.1-11.5-11.5-11.5L84.8,348.2z"/>
		<path fill="#FFFFFF" stroke="#5E6367" stroke-width="0.5" stroke-miterlimit="10" d="M84.8,348.2l0,24.2l11.2,0
			c6.3,0,11.5-5.1,11.5-11.5v-1.2c0-6.3-5.1-11.5-11.5-11.5L84.8,348.2z"/>
		<path fill="#FFFFFF" stroke="#5E6367" stroke-width="0.5" stroke-miterlimit="10" d="M88.7,350.1l0,20.3l7.3,0
			c5.3,0,9.6-4.3,9.7-9.6v-1c0-5.3-4.3-9.7-9.6-9.7L88.7,350.1z"/>
		<path fill="#FFFFFF" stroke="#5E6367" stroke-width="0.5" stroke-miterlimit="10" d="M88.7,350.1l0,20.3l7.3,0
			c5.3,0,9.6-4.3,9.7-9.6v-1c0-5.3-4.3-9.7-9.6-9.7L88.7,350.1z"/>
		<path fill="#FFFFFF" stroke="#5E6367" stroke-width="0.5" stroke-miterlimit="10" d="M90.5,351.9l0,16.6l5.4,0
			c4.4,0,7.9-3.5,7.9-7.9v-0.8c0-4.4-3.5-7.9-7.9-7.9L90.5,351.9z"/>
		<path fill="#FFFFFF" stroke="#5E6367" stroke-width="0.5" stroke-miterlimit="10" d="M90.5,351.9l0,16.6l5.4,0
			c4.4,0,7.9-3.5,7.9-7.9v-0.8c0-4.4-3.5-7.9-7.9-7.9L90.5,351.9z"/>
		<path fill="#FFFFFF" stroke="#5E6367" stroke-width="0.5" stroke-miterlimit="10" d="M94.7,358.6c-0.9,0-1.6,0.7-1.6,1.6
			c0,0.9,0.7,1.6,1.6,1.6s1.6-0.7,1.6-1.6C96.4,359.3,95.6,358.6,94.7,358.6"/>
		<path fill="#FFFFFF" stroke="#5E6367" stroke-width="0.5" stroke-miterlimit="10" d="M94.7,358.6c-0.9,0-1.6,0.7-1.6,1.6
			c0,0.9,0.7,1.6,1.6,1.6s1.6-0.7,1.6-1.6C96.4,359.3,95.6,358.6,94.7,358.6z"/>
		
			<rect x="87.9" y="357.9" transform="matrix(0.7075 -0.7067 0.7067 0.7075 -228.2079 169.1035)" fill="#FFFFFF" stroke="#5E6367" stroke-width="0.5" stroke-miterlimit="10" width="4.6" height="4.6"/>
		
			<rect x="87.9" y="357.9" transform="matrix(0.7075 -0.7067 0.7067 0.7075 -228.2079 169.1035)" fill="#FFFFFF" stroke="#5E6367" stroke-width="0.5" stroke-miterlimit="10" width="4.6" height="4.6"/>
		<rect x="89.6" y="359.5" fill="#FFFFFF" stroke="#5E6367" stroke-width="0.5" stroke-miterlimit="10" width="8.9" height="1.5"/>
		<rect x="89.6" y="359.5" fill="#FFFFFF" stroke="#5E6367" stroke-width="0.5" stroke-miterlimit="10" width="8.9" height="1.5"/>
	</g>
	<g>
		<path fill="#FFFFFF" stroke="#5E6367" stroke-width="0.5" stroke-miterlimit="10" d="M146.3,432.9l4.7,0c4.8,0,8.7,3.9,8.7,8.8
			l-0.1,28.6l-22.1-0.1l0.1-28.6C137.5,436.8,141.4,432.9,146.3,432.9"/>
		<path fill="#FFFFFF" stroke="#5E6367" stroke-width="0.5" stroke-miterlimit="10" d="M146.3,432.9l4.7,0c4.8,0,8.7,3.9,8.7,8.8
			l-0.1,28.6l-22.1-0.1l0.1-28.6C137.5,436.8,141.4,432.9,146.3,432.9z"/>
		<path fill="#FFFFFF" stroke="#5E6367" stroke-width="0.5" stroke-miterlimit="10" d="M146.7,435.1l3.8,0c3.9,0,7.1,3.2,7.1,7.1
			l-0.1,17.8l-18-0.1l0.1-17.8C139.6,438.2,142.7,435,146.7,435.1"/>
		<path fill="#FFFFFF" stroke="#5E6367" stroke-width="0.5" stroke-miterlimit="10" d="M146.7,435.1l3.8,0c3.9,0,7.1,3.2,7.1,7.1
			l-0.1,17.8l-18-0.1l0.1-17.8C139.6,438.2,142.7,435,146.7,435.1z"/>
		<path fill="#FFFFFF" stroke="#5E6367" stroke-width="0.5" stroke-miterlimit="10" d="M147.1,437.6l2.9,0c3,0,5.5,2.5,5.5,5.5
			l-0.1,14.4l-13.9,0l0.1-14.4C141.6,440,144.1,437.6,147.1,437.6"/>
		<path fill="#FFFFFF" stroke="#5E6367" stroke-width="0.5" stroke-miterlimit="10" d="M147.1,437.6l2.9,0c3,0,5.5,2.5,5.5,5.5
			l-0.1,14.4l-13.9,0l0.1-14.4C141.6,440,144.1,437.6,147.1,437.6z"/>
		<path fill="#FFFFFF" stroke="#5E6367" stroke-width="0.5" stroke-miterlimit="10" d="M146.4,449.9c0,1.2,0.9,2.1,2.1,2.1
			c1.2,0,2.1-0.9,2.1-2.1c0-1.2-0.9-2.1-2.1-2.1C147.4,447.8,146.4,448.7,146.4,449.9"/>
		<path fill="#FFFFFF" stroke="#5E6367" stroke-width="0.5" stroke-miterlimit="10" d="M146.4,449.9c0,1.2,0.9,2.1,2.1,2.1
			c1.2,0,2.1-0.9,2.1-2.1c0-1.2-0.9-2.1-2.1-2.1C147.4,447.8,146.4,448.7,146.4,449.9z"/>
		
			<rect x="144.1" y="454.8" transform="matrix(3.572799e-03 -1 1 3.572799e-03 -317.9021 612.6417)" fill="#FFFFFF" stroke="#5E6367" stroke-width="0.5" stroke-miterlimit="10" width="8.8" height="22.1"/>
		
			<rect x="144.1" y="454.8" transform="matrix(3.572799e-03 -1 1 3.572799e-03 -317.9021 612.6417)" fill="#FFFFFF" stroke="#5E6367" stroke-width="0.5" stroke-miterlimit="10" width="8.8" height="22.1"/>
	</g>
	<g>
		<g>
			
				<rect x="119.1" y="263.8" transform="matrix(6.003902e-12 1 -1 6.003902e-12 448.8639 178.9567)" fill="#FFFFFF" stroke="#5E6367" stroke-width="0.5" stroke-miterlimit="10" width="31.7" height="100.3"/>
		</g>
		<line fill="#FFFFFF" stroke="#5E6367" stroke-width="0.5" stroke-miterlimit="10" x1="84.8" y1="313.4" x2="185.1" y2="313.4"/>
		<rect x="88.1" y="299.8" fill="#FFFFFF" stroke="#5E6367" stroke-width="0.5" stroke-miterlimit="10" width="2.4" height="28"/>
		<rect x="95" y="299.8" fill="#FFFFFF" stroke="#5E6367" stroke-width="0.5" stroke-miterlimit="10" width="2.4" height="28"/>
		<rect x="101.9" y="299.8" fill="#FFFFFF" stroke="#5E6367" stroke-width="0.5" stroke-miterlimit="10" width="2.4" height="28"/>
		<rect x="108.8" y="299.8" fill="#FFFFFF" stroke="#5E6367" stroke-width="0.5" stroke-miterlimit="10" width="2.4" height="28"/>
		<rect x="122.5" y="299.8" fill="#FFFFFF" stroke="#5E6367" stroke-width="0.5" stroke-miterlimit="10" width="2.4" height="28"/>
		<polygon fill="#FFFFFF" stroke="#5E6367" stroke-width="0.5" stroke-miterlimit="10" points="142.7,327.7 140.3,327.2 
			146.2,299.9 148.6,300.4 		"/>
		<g>
			
				<rect x="158.8" y="271.8" transform="matrix(2.507842e-11 1 -1 2.507842e-11 456.9042 136.426)" fill="#FFFFFF" stroke="#5E6367" stroke-width="0.5" stroke-miterlimit="10" width="2.8" height="49.7"/>
			
				<rect x="156.6" y="292.5" transform="matrix(1.022998e-12 1 -1 1.022998e-12 453.477 135.9254)" fill="#FFFFFF" stroke="#5E6367" stroke-width="0.5" stroke-miterlimit="10" width="4.4" height="4.4"/>
		</g>
		<g>
			
				<rect x="108.7" y="271.4" transform="matrix(-9.645802e-12 1 -1 -9.645802e-12 406.7709 186.5594)" fill="#FFFFFF" stroke="#5E6367" stroke-width="0.5" stroke-miterlimit="10" width="2.8" height="50.6"/>
			
				<rect x="106.8" y="292.8" transform="matrix(-4.092022e-12 1 -1 -4.092022e-12 403.9812 185.9689)" fill="#FFFFFF" stroke="#5E6367" stroke-width="0.5" stroke-miterlimit="10" width="4.4" height="4.4"/>
		</g>
	</g>
	<g>
		<g>
			
				<rect x="84.8" y="146.2" transform="matrix(-1 1.033503e-13 -1.033503e-13 -1 292.5885 392.6059)" fill="#FFFFFF" stroke="#5E6367" stroke-width="0.5" stroke-miterlimit="10" width="122.9" height="100.2"/>
			
				<rect x="84.8" y="146.7" transform="matrix(-1 -6.851221e-14 6.851221e-14 -1 289.0827 392.6059)" fill="#FFFFFF" stroke="#5E6367" stroke-width="0.5" stroke-miterlimit="10" width="119.4" height="99.2"/>
			<path fill="#FFFFFF" stroke="#5E6367" stroke-width="0.5" stroke-miterlimit="10" d="M95.4,200.8h16.4c2.4,0,4.3,1.9,4.3,4.3V235
				c0,2.4-1.9,4.3-4.3,4.3H95.4c-2.4,0-4.3-1.9-4.3-4.3v-29.8C91.1,202.8,93,200.8,95.4,200.8z"/>
			<polygon fill="#FFFFFF" stroke="#5E6367" stroke-width="0.5" stroke-miterlimit="10" points="126.2,146.7 204.3,146.7 
				204.3,245.9 140.3,245.9 126.2,220.8 			"/>
			<polyline fill="#FFFFFF" stroke="#5E6367" stroke-width="0.5" stroke-miterlimit="10" points="126.1,220.7 147.2,225 
				140.2,246.1 			"/>
			<path fill="#FFFFFF" stroke="#5E6367" stroke-width="0.5" stroke-miterlimit="10" d="M95.4,153.7h16.4c2.4,0,4.3,1.9,4.3,4.3
				v29.8c0,2.4-1.9,4.3-4.3,4.3H95.4c-2.4,0-4.3-1.9-4.3-4.3V158C91.1,155.6,93,153.7,95.4,153.7z"/>
		</g>
		<g>
			
				<rect x="84.8" y="250.8" transform="matrix(-1 7.093181e-14 -7.093181e-14 -1 195.265 527.2038)" fill="#FFFFFF" stroke="#5E6367" stroke-width="0.5" stroke-miterlimit="10" width="25.6" height="25.6"/>
			
				<rect x="108.3" y="261.3" transform="matrix(-1 -3.966941e-13 3.966941e-13 -1 221.1029 527.2038)" fill="#FFFFFF" stroke="#5E6367" stroke-width="0.5" stroke-miterlimit="10" width="4.6" height="4.6"/>
			
				<rect x="84.8" y="250.8" transform="matrix(-1 6.406983e-13 -6.406983e-13 -1 192.3474 527.2038)" fill="#FFFFFF" stroke="#5E6367" stroke-width="0.5" stroke-miterlimit="10" width="22.7" height="25.6"/>
		</g>
		<g>
			
				<rect x="84.8" y="115.1" transform="matrix(-1 1.775132e-13 -1.775132e-13 -1 195.265 255.7454)" fill="#FFFFFF" stroke="#5E6367" stroke-width="0.5" stroke-miterlimit="10" width="25.6" height="25.6"/>
			
				<rect x="108.3" y="125.6" transform="matrix(-1 2.380196e-12 -2.380196e-12 -1 221.1029 255.7454)" fill="#FFFFFF" stroke="#5E6367" stroke-width="0.5" stroke-miterlimit="10" width="4.6" height="4.6"/>
			
				<rect x="84.8" y="115.1" transform="matrix(-1 6.007302e-13 -6.007302e-13 -1 192.3474 255.7454)" fill="#FFFFFF" stroke="#5E6367" stroke-width="0.5" stroke-miterlimit="10" width="22.7" height="25.6"/>
		</g>
	</g>
	<g>
		<g>
			<ellipse fill="#FFFFFF" stroke="#5E6367" stroke-width="0.5" stroke-miterlimit="10" cx="462.4" cy="171.7" rx="13.1" ry="13"/>
			
				<rect x="464.1" y="170.1" transform="matrix(-4.531416e-11 1 -1 -4.531416e-11 648.7513 -305.3673)" fill="#FFFFFF" stroke="#5E6367" stroke-width="0.5" stroke-miterlimit="10" width="26" height="3.1"/>
			<rect x="459.6" y="184.7" fill="#FFFFFF" stroke="#5E6367" stroke-width="0.5" stroke-miterlimit="10" width="19" height="3.1"/>
			<rect x="459.6" y="155.6" fill="#FFFFFF" stroke="#5E6367" stroke-width="0.5" stroke-miterlimit="10" width="19" height="3.1"/>
			<ellipse fill="#FFFFFF" stroke="#5E6367" stroke-width="0.5" stroke-miterlimit="10" cx="462.4" cy="171.7" rx="9.5" ry="9.4"/>
		</g>
		
			<rect x="397.5" y="150.1" transform="matrix(-4.070362e-11 1 -1 -4.070362e-11 603.7707 -268.5551)" fill="#FFFFFF" stroke="#5E6367" stroke-width="0.5" stroke-miterlimit="10" width="77.4" height="35"/>
	</g>
	<g>
		
			<rect x="499.3" y="133" transform="matrix(4.501117e-11 -1 1 4.501117e-11 401.3195 718.1112)" fill="#FFFFFF" stroke="#5E6367" stroke-width="0.5" stroke-miterlimit="10" width="120.9" height="50.8"/>
		
			<rect x="501" y="131.5" transform="matrix(4.479978e-11 -1 1 4.479978e-11 403.0433 716.3873)" fill="#FFFFFF" stroke="#5E6367" stroke-width="0.5" stroke-miterlimit="10" width="117.5" height="50.3"/>
		<path fill="#FFFFFF" stroke="#5E6367" stroke-width="0.5" stroke-miterlimit="10" d="M540.3,108.5v15.8c0,2.4,2,4.4,4.4,4.4h29
			c2.4,0,4.4-2,4.4-4.4v-15.8c0-2.4-2-4.4-4.4-4.4h-29C542.3,104.1,540.3,106.1,540.3,108.5z"/>
		<polygon fill="#FFFFFF" stroke="#5E6367" stroke-width="0.5" stroke-miterlimit="10" points="534.6,138.6 534.6,215.4 
			584.9,215.4 584.9,152.5 572.1,138.6 		"/>
		<polyline fill="#FFFFFF" stroke="#5E6367" stroke-width="0.5" stroke-miterlimit="10" points="572.1,138.6 572.3,153.6 585,152.4 
					"/>
	</g>
	<g>
		
			<rect x="504" y="97.9" transform="matrix(-1.775745e-13 -1 1 -1.775745e-13 406.0603 627.5651)" fill="#FFFFFF" stroke="#5E6367" stroke-width="0.5" stroke-miterlimit="10" width="25.6" height="25.6"/>
		
			<rect x="514.5" y="121.4" transform="matrix(-1.984129e-12 -1 1 -1.984129e-12 393.1414 640.484)" fill="#FFFFFF" stroke="#5E6367" stroke-width="0.5" stroke-miterlimit="10" width="4.6" height="4.6"/>
		
			<rect x="505.5" y="96.5" transform="matrix(-6.003474e-13 -1 1 -6.003474e-13 407.5191 626.1063)" fill="#FFFFFF" stroke="#5E6367" stroke-width="0.5" stroke-miterlimit="10" width="22.7" height="25.6"/>
	</g>
	<g>
	</g>
	<g>
	</g>
	<g>
	</g>
	<g>
	</g>
	<g>
	</g>
	<g>
	</g>
	<g>
	</g>
</g>
</svg>
