<?xml version="1.0" encoding="utf-8"?>
<!-- Generator: Adobe Illustrator 23.0.2, SVG Export Plug-In . SVG Version: 6.00 Build 0)  -->
<svg version="1.1" xmlns="http://www.w3.org/2000/svg" xmlns:xlink="http://www.w3.org/1999/xlink" x="0px" y="0px"
	 viewBox="0 0 677.7 799" enable-background="new 0 0 677.7 799" xml:space="preserve">
<g id="walls">
	
		<rect x="117.7" y="106.5" fill="#FFFFFF" stroke="#5E6367" stroke-width="0.5" stroke-miterlimit="10" width="215.3" height="23.1"/>
	
		<rect x="117.7" y="129.6" fill="#FFFFFF" stroke="#5E6367" stroke-width="0.5" stroke-miterlimit="10" width="215.3" height="8.9"/>
	
		<rect x="117.7" y="138.6" fill="#FFFFFF" stroke="#5E6367" stroke-width="0.5" stroke-miterlimit="10" width="215.3" height="8.9"/>
	
		<rect x="363.5" y="106.5" fill="#FFFFFF" stroke="#5E6367" stroke-width="0.5" stroke-miterlimit="10" width="219.3" height="23.1"/>
	
		<rect x="363.5" y="121.6" fill="#FFFFFF" stroke="#5E6367" stroke-width="0.5" stroke-miterlimit="10" width="219.3" height="8.9"/>
	<rect x="363.5" y="130.5" fill="#FFFFFF" stroke="#5E6367" stroke-width="0.5" stroke-miterlimit="10" width="219.3" height="17"/>
	<line fill="none" stroke="#5E6367" stroke-width="0.5" stroke-miterlimit="10" x1="473.5" y1="686.7" x2="473.5" y2="635.5"/>
	<line fill="none" stroke="#5E6367" stroke-width="0.5" stroke-miterlimit="10" x1="448" y1="686.7" x2="468.8" y2="635.5"/>
	<line fill="none" stroke="#5E6367" stroke-width="0.5" stroke-miterlimit="10" x1="407.4" y1="594.4" x2="467.7" y2="594.4"/>
	<polyline fill="none" stroke="#5E6367" stroke-width="0.5" stroke-miterlimit="10" points="452.5,571.6 407.4,571.6 407.4,684 
		473.5,618.1 407.4,616.8 	"/>
	<polygon fill="#FFFFFF" stroke="#5E6367" stroke-width="0.5" stroke-miterlimit="10" points="451.4,566.1 522.1,566.1 522.1,618.1 
		473.5,618.1 473.5,575 479.8,575 479.8,611.5 516.3,611.5 516.3,571.6 451.4,571.6 	"/>
	<g>
		<g>
			<polyline fill="none" stroke="#5E6367" stroke-width="0.5" stroke-miterlimit="10" points="433.8,579.2 433.8,665.6 468.8,665.6 
				549.9,665.6 549.9,527.8 468.2,527.8 			"/>
			<g>
				<polygon fill="#5E6367" points="469.9,525.8 470.2,526.2 468.4,527.8 470.2,529.5 469.9,529.9 467.7,527.8 				"/>
			</g>
		</g>
	</g>
	<polygon fill="#FFFFFF" stroke="#5E6367" stroke-width="0.5" stroke-miterlimit="10" points="194.7,106.5 194.7,65.5 125.3,65.5 
		125.3,106.5 121,106.5 121,60.4 199.3,60.4 199.3,106.9 	"/>
	<line fill="#FFFFFF" stroke="#5E6367" stroke-miterlimit="10" x1="273.4" y1="559.8" x2="251" y2="621.2"/>
	<line fill="none" stroke="#5E6367" stroke-width="0.5" stroke-miterlimit="10" x1="451.4" y1="566.1" x2="451.4" y2="489.6"/>
	<line fill="none" stroke="#5E6367" stroke-width="0.5" stroke-miterlimit="10" x1="473.5" y1="489.6" x2="473.5" y2="566.1"/>
	<line fill="none" stroke="#5E6367" stroke-width="0.5" stroke-miterlimit="10" x1="498.9" y1="489.6" x2="498.9" y2="566.1"/>
	<line fill="none" stroke="#5E6367" stroke-width="0.5" stroke-miterlimit="10" x1="519.9" y1="489.6" x2="519.9" y2="566.1"/>
	<line fill="none" stroke="#5E6367" stroke-width="0.5" stroke-miterlimit="10" x1="590.8" y1="498" x2="522.1" y2="566.1"/>
	<line fill="none" stroke="#5E6367" stroke-width="0.5" stroke-miterlimit="10" x1="590.8" y1="571.6" x2="522.1" y2="571.6"/>
	<line fill="none" stroke="#5E6367" stroke-width="0.5" stroke-miterlimit="10" x1="590.8" y1="596.8" x2="522.1" y2="596.8"/>
	<polyline fill="none" stroke="#5E6367" stroke-width="0.5" stroke-miterlimit="10" points="590.8,686.7 522.1,618.1 590.8,618.1 	
		"/>
	<line fill="none" stroke="#5E6367" stroke-width="0.5" stroke-miterlimit="10" x1="519.9" y1="684" x2="519.9" y2="618.1"/>
	<line fill="none" stroke="#5E6367" stroke-width="0.5" stroke-miterlimit="10" x1="498.9" y1="684" x2="498.9" y2="618.1"/>
	<line fill="#FFFFFF" stroke="#5E6367" stroke-miterlimit="10" x1="333.3" y1="737.1" x2="273.4" y2="698.8"/>
	<line fill="#FFFFFF" stroke="#5E6367" stroke-miterlimit="10" x1="273.4" y1="461.2" x2="329.1" y2="482.8"/>
	<line fill="#FFFFFF" stroke="#5E6367" stroke-miterlimit="10" x1="433.8" y1="461.2" x2="370.7" y2="482.8"/>
	<rect x="63.3" y="106.5" fill="#5E6367" stroke="#5E6367" stroke-width="0.5" stroke-miterlimit="10" width="62" height="23.1"/>
	<rect x="63.3" y="129.6" fill="#5E6367" stroke="#5E6367" stroke-width="0.5" stroke-miterlimit="10" width="54.4" height="17.9"/>
	
		<rect x="63.3" y="147.5" fill="#5E6367" stroke="#5E6367" stroke-width="0.5" stroke-miterlimit="10" width="47.8" height="539.2"/>
	
		<rect x="328.3" y="106.5" fill="#5E6367" stroke="#5E6367" stroke-width="0.5" stroke-miterlimit="10" width="45.7" height="23.1"/>
	<rect x="333" y="129.6" fill="#5E6367" stroke="#5E6367" stroke-width="0.5" stroke-miterlimit="10" width="36.3" height="17.9"/>
	
		<rect x="338.8" y="147.5" fill="#5E6367" stroke="#5E6367" stroke-width="0.5" stroke-miterlimit="10" width="24.7" height="45.2"/>
	
		<rect x="578.1" y="106.5" fill="#5E6367" stroke="#5E6367" stroke-width="0.5" stroke-miterlimit="10" width="35.2" height="23.1"/>
	
		<rect x="582.8" y="129.6" fill="#5E6367" stroke="#5E6367" stroke-width="0.5" stroke-miterlimit="10" width="30.5" height="17.9"/>
	
		<rect x="588.6" y="147.5" fill="#5E6367" stroke="#5E6367" stroke-width="0.5" stroke-miterlimit="10" width="24.7" height="45.2"/>
	
		<rect x="111.1" y="482.8" fill="#5E6367" stroke="#5E6367" stroke-width="0.5" stroke-miterlimit="10" width="152.4" height="6.8"/>
	<rect x="329.1" y="482.8" fill="#5E6367" stroke="#5E6367" stroke-width="0.5" stroke-miterlimit="10" width="41.5" height="6.8"/>
	
		<rect x="437.4" y="482.8" fill="#5E6367" stroke="#5E6367" stroke-width="0.5" stroke-miterlimit="10" width="153.4" height="6.8"/>
	
		<rect x="338.8" y="389.2" fill="#5E6367" stroke="#5E6367" stroke-width="0.5" stroke-miterlimit="10" width="24.7" height="93.5"/>
	<rect x="590.8" y="192.7" fill="#5E6367" stroke="#5E6367" stroke-width="0.5" stroke-miterlimit="10" width="20" height="494"/>
	
		<rect x="63.3" y="686.7" fill="#5E6367" stroke="#5E6367" stroke-width="0.5" stroke-miterlimit="10" width="210.2" height="20.5"/>
	
		<rect x="349.9" y="686.7" fill="#5E6367" stroke="#5E6367" stroke-width="0.5" stroke-miterlimit="10" width="260.9" height="20.5"/>
	<rect x="241.9" y="621.2" fill="#5E6367" stroke="#5E6367" stroke-width="0.5" stroke-miterlimit="10" width="9.1" height="65.4"/>
	<rect x="241.9" y="489.6" fill="#5E6367" stroke="#5E6367" stroke-width="0.5" stroke-miterlimit="10" width="9.1" height="70.2"/>
	<rect x="111.1" y="489.6" fill="#5E6367" stroke="#5E6367" stroke-width="0.5" stroke-miterlimit="10" width="130.8" height="11"/>
	
		<rect x="338.8" y="189.9" fill="#5E6367" stroke="#5E6367" stroke-width="0.5" stroke-miterlimit="10" width="6.8" height="217.8"/>
</g>
<g id="SIZE" display="none">
	<g id="size-1" display="inline">
		<rect x="438.9" y="267.3" fill="#FFFFFF" stroke="#000000" stroke-miterlimit="10" width="100.1" height="39.6"/>
		<rect x="438.9" y="306.8" fill="#FFFFFF" stroke="#000000" stroke-miterlimit="10" width="100.1" height="39.5"/>
		<rect x="377.8" y="267.3" fill="#FFFFFF" stroke="#000000" stroke-miterlimit="10" width="61.1" height="78.9"/>
		<g>
			<path d="M395.4,327.6V324l13.6-14.9c1.6-1.7,2.9-3.3,4-4.6s1.8-2.5,2.3-3.7c0.5-1.2,0.8-2.4,0.8-3.6c0-1.5-0.3-2.7-1-3.8
				c-0.7-1.1-1.6-1.9-2.8-2.5c-1.2-0.6-2.5-0.9-4-0.9c-1.6,0-3,0.3-4.1,1c-1.2,0.7-2.1,1.6-2.7,2.7c-0.6,1.2-1,2.5-1,4.1h-4.8
				c0-2.4,0.6-4.5,1.7-6.4s2.6-3.3,4.6-4.3c1.9-1,4.1-1.5,6.5-1.5c2.4,0,4.6,0.5,6.4,1.5c1.9,1,3.3,2.4,4.4,4.1
				c1.1,1.7,1.6,3.7,1.6,5.8c0,1.5-0.3,3-0.8,4.4c-0.5,1.4-1.5,3.1-2.8,4.8c-1.3,1.8-3.2,3.9-5.6,6.5l-9.3,9.9v0.3h19.2v4.4H395.4z"
				/>
		</g>
		<g>
			<path d="M464.9,295.1c-1.2,0-2.2-0.2-3.1-0.6c-0.9-0.4-1.6-1-2.1-1.7s-0.7-1.6-0.7-2.5c0-0.7,0.1-1.4,0.4-2
				c0.3-0.6,0.7-1.1,1.2-1.6c0.5-0.4,1.1-0.7,1.7-0.8v-0.1c-0.8-0.2-1.5-0.7-2-1.4c-0.5-0.7-0.7-1.5-0.7-2.4c0-0.9,0.2-1.7,0.7-2.3
				c0.4-0.7,1.1-1.2,1.9-1.6s1.7-0.6,2.7-0.6c1,0,1.9,0.2,2.7,0.6c0.8,0.4,1.4,0.9,1.9,1.6s0.7,1.5,0.7,2.3c0,0.9-0.3,1.7-0.7,2.4
				c-0.5,0.7-1.1,1.2-1.9,1.4v0.1c0.6,0.1,1.2,0.4,1.7,0.8c0.5,0.4,0.9,0.9,1.2,1.6c0.3,0.6,0.4,1.3,0.5,2c0,0.9-0.3,1.8-0.8,2.5
				s-1.2,1.3-2.1,1.7C467.1,294.9,466.1,295.1,464.9,295.1z M464.9,293.3c0.8,0,1.5-0.1,2-0.4c0.6-0.3,1-0.6,1.3-1.1s0.5-1,0.5-1.6
				c0-0.7-0.2-1.2-0.5-1.7s-0.8-0.9-1.3-1.2c-0.6-0.3-1.2-0.4-1.9-0.4c-0.7,0-1.4,0.1-2,0.4c-0.6,0.3-1,0.7-1.4,1.2
				c-0.3,0.5-0.5,1.1-0.5,1.7c0,0.6,0.1,1.2,0.5,1.6c0.3,0.5,0.7,0.8,1.3,1.1C463.4,293.1,464.1,293.3,464.9,293.3z M464.9,285.1
				c0.6,0,1.2-0.1,1.6-0.4c0.5-0.2,0.9-0.6,1.1-1c0.3-0.4,0.4-1,0.4-1.6c0-0.6-0.1-1.1-0.4-1.5c-0.3-0.4-0.6-0.8-1.1-1
				c-0.5-0.2-1-0.4-1.7-0.4c-0.6,0-1.2,0.1-1.7,0.4c-0.5,0.2-0.9,0.6-1.1,1c-0.3,0.4-0.4,0.9-0.4,1.5c0,0.6,0.1,1.1,0.4,1.6
				c0.3,0.4,0.6,0.8,1.1,1C463.7,285,464.3,285.1,464.9,285.1z"/>
			<path d="M479.6,295.1c-1.3,0-2.3-0.3-3.2-1c-0.9-0.7-1.6-1.7-2-3c-0.5-1.3-0.7-2.9-0.7-4.8c0-1.9,0.2-3.5,0.7-4.8
				c0.5-1.3,1.2-2.3,2.1-3c0.9-0.7,2-1,3.2-1c1.3,0,2.3,0.3,3.2,1c0.9,0.7,1.6,1.7,2.1,3c0.5,1.3,0.7,2.9,0.7,4.8
				c0,1.9-0.2,3.5-0.7,4.8c-0.5,1.3-1.2,2.3-2,3C481.9,294.8,480.9,295.1,479.6,295.1z M479.6,293.3c1.3,0,2.2-0.6,2.9-1.8
				c0.7-1.2,1-2.9,1-5.2c0-1.5-0.2-2.8-0.5-3.8c-0.3-1-0.8-1.8-1.4-2.4c-0.6-0.5-1.3-0.8-2.1-0.8c-1.2,0-2.2,0.6-2.9,1.8
				c-0.7,1.2-1.1,3-1.1,5.2c0,1.5,0.2,2.8,0.5,3.8s0.8,1.8,1.4,2.4C478.1,293,478.8,293.3,479.6,293.3z"/>
			<path d="M491.2,292.5l-0.1,0.9c-0.1,0.6-0.2,1.3-0.4,2.1s-0.4,1.4-0.6,2.1c-0.2,0.6-0.4,1.2-0.5,1.5H488c0.1-0.4,0.2-0.8,0.3-1.4
				c0.1-0.6,0.2-1.2,0.4-2c0.1-0.7,0.2-1.5,0.3-2.2l0.1-0.9H491.2z"/>
			<path d="M494.8,294.9v-1.5l5.7-6.2c0.7-0.7,1.2-1.4,1.6-1.9c0.4-0.5,0.8-1.1,1-1.5c0.2-0.5,0.3-1,0.3-1.5c0-0.6-0.1-1.1-0.4-1.6
				s-0.7-0.8-1.2-1c-0.5-0.2-1.1-0.4-1.7-0.4c-0.7,0-1.2,0.1-1.7,0.4c-0.5,0.3-0.9,0.7-1.1,1.1c-0.3,0.5-0.4,1.1-0.4,1.7h-2
				c0-1,0.2-1.9,0.7-2.7c0.5-0.8,1.1-1.4,1.9-1.8c0.8-0.4,1.7-0.6,2.7-0.6c1,0,1.9,0.2,2.7,0.6c0.8,0.4,1.4,1,1.8,1.7
				s0.7,1.5,0.7,2.4c0,0.6-0.1,1.3-0.3,1.9c-0.2,0.6-0.6,1.3-1.2,2c-0.6,0.7-1.3,1.6-2.3,2.7l-3.9,4.1v0.1h8v1.8H494.8z"/>
			<path d="M514.8,295.1c-0.7,0-1.4-0.1-2.1-0.4c-0.7-0.3-1.4-0.7-1.9-1.3s-1.1-1.4-1.4-2.5c-0.4-1.1-0.5-2.4-0.5-4
				c0-1.5,0.1-2.9,0.4-4.1c0.3-1.2,0.7-2.2,1.2-3c0.5-0.8,1.2-1.4,2-1.8c0.8-0.4,1.6-0.6,2.6-0.6c1,0,1.8,0.2,2.6,0.6
				s1.4,0.9,1.8,1.6c0.5,0.7,0.8,1.5,0.9,2.4h-2.1c-0.2-0.8-0.6-1.4-1.1-2c-0.5-0.5-1.3-0.8-2.2-0.8c-1.3,0-2.4,0.6-3.1,1.7
				s-1.2,2.8-1.2,4.9h0.1c0.3-0.5,0.7-0.9,1.1-1.2c0.4-0.3,0.9-0.6,1.4-0.8c0.5-0.2,1.1-0.3,1.7-0.3c1,0,1.9,0.2,2.7,0.7
				c0.8,0.5,1.5,1.2,2,2s0.7,1.8,0.7,3c0,1.1-0.2,2-0.7,2.9s-1.1,1.6-2,2.1S516,295.1,514.8,295.1z M514.8,293.3
				c0.7,0,1.3-0.2,1.9-0.5c0.6-0.4,1-0.8,1.3-1.4c0.3-0.6,0.5-1.3,0.5-2c0-0.7-0.2-1.4-0.5-1.9c-0.3-0.6-0.8-1.1-1.3-1.4
				c-0.6-0.3-1.2-0.5-1.9-0.5c-0.5,0-1,0.1-1.5,0.3c-0.5,0.2-0.9,0.5-1.2,0.9c-0.3,0.4-0.6,0.8-0.8,1.2c-0.2,0.5-0.3,1-0.3,1.5
				c0,0.7,0.2,1.3,0.5,1.9c0.3,0.6,0.8,1.1,1.3,1.4C513.5,293.1,514.1,293.3,514.8,293.3z"/>
		</g>
		<g>
			<path d="M464.9,334.5c-1.2,0-2.2-0.2-3.1-0.6c-0.9-0.4-1.6-1-2.1-1.7s-0.7-1.6-0.7-2.5c0-0.7,0.1-1.4,0.4-2
				c0.3-0.6,0.7-1.1,1.2-1.6c0.5-0.4,1.1-0.7,1.7-0.8v-0.1c-0.8-0.2-1.5-0.7-2-1.4c-0.5-0.7-0.7-1.5-0.7-2.4c0-0.9,0.2-1.7,0.7-2.3
				c0.4-0.7,1.1-1.2,1.9-1.6s1.7-0.6,2.7-0.6c1,0,1.9,0.2,2.7,0.6c0.8,0.4,1.4,0.9,1.9,1.6s0.7,1.5,0.7,2.3c0,0.9-0.3,1.7-0.7,2.4
				c-0.5,0.7-1.1,1.2-1.9,1.4v0.1c0.6,0.1,1.2,0.4,1.7,0.8c0.5,0.4,0.9,0.9,1.2,1.6c0.3,0.6,0.4,1.3,0.5,2c0,0.9-0.3,1.8-0.8,2.5
				s-1.2,1.3-2.1,1.7C467.1,334.3,466.1,334.5,464.9,334.5z M464.9,332.6c0.8,0,1.5-0.1,2-0.4c0.6-0.3,1-0.6,1.3-1.1s0.5-1,0.5-1.6
				c0-0.7-0.2-1.2-0.5-1.7s-0.8-0.9-1.3-1.2c-0.6-0.3-1.2-0.4-1.9-0.4c-0.7,0-1.4,0.1-2,0.4c-0.6,0.3-1,0.7-1.4,1.2
				c-0.3,0.5-0.5,1.1-0.5,1.7c0,0.6,0.1,1.2,0.5,1.6c0.3,0.5,0.7,0.8,1.3,1.1C463.4,332.5,464.1,332.6,464.9,332.6z M464.9,324.5
				c0.6,0,1.2-0.1,1.6-0.4c0.5-0.2,0.9-0.6,1.1-1c0.3-0.4,0.4-1,0.4-1.6c0-0.6-0.1-1.1-0.4-1.5c-0.3-0.4-0.6-0.8-1.1-1
				c-0.5-0.2-1-0.4-1.7-0.4c-0.6,0-1.2,0.1-1.7,0.4c-0.5,0.2-0.9,0.6-1.1,1c-0.3,0.4-0.4,0.9-0.4,1.5c0,0.6,0.1,1.1,0.4,1.6
				c0.3,0.4,0.6,0.8,1.1,1C463.7,324.3,464.3,324.5,464.9,324.5z"/>
			<path d="M479.6,334.5c-1.3,0-2.3-0.3-3.2-1c-0.9-0.7-1.6-1.7-2-3c-0.5-1.3-0.7-2.9-0.7-4.8c0-1.9,0.2-3.5,0.7-4.8
				c0.5-1.3,1.2-2.3,2.1-3c0.9-0.7,2-1,3.2-1c1.3,0,2.3,0.3,3.2,1c0.9,0.7,1.6,1.7,2.1,3c0.5,1.3,0.7,2.9,0.7,4.8
				c0,1.9-0.2,3.5-0.7,4.8c-0.5,1.3-1.2,2.3-2,3C481.9,334.1,480.9,334.5,479.6,334.5z M479.6,332.6c1.3,0,2.2-0.6,2.9-1.8
				c0.7-1.2,1-2.9,1-5.2c0-1.5-0.2-2.8-0.5-3.8c-0.3-1-0.8-1.8-1.4-2.4c-0.6-0.5-1.3-0.8-2.1-0.8c-1.2,0-2.2,0.6-2.9,1.8
				c-0.7,1.2-1.1,3-1.1,5.2c0,1.5,0.2,2.8,0.5,3.8s0.8,1.8,1.4,2.4C478.1,332.4,478.8,332.6,479.6,332.6z"/>
			<path d="M491.2,331.9l-0.1,0.9c-0.1,0.6-0.2,1.3-0.4,2.1s-0.4,1.4-0.6,2.1c-0.2,0.6-0.4,1.2-0.5,1.5H488c0.1-0.4,0.2-0.8,0.3-1.4
				c0.1-0.6,0.2-1.2,0.4-2c0.1-0.7,0.2-1.5,0.3-2.2l0.1-0.9H491.2z"/>
			<path d="M494.8,334.3v-1.5l5.7-6.2c0.7-0.7,1.2-1.4,1.6-1.9c0.4-0.5,0.8-1.1,1-1.5c0.2-0.5,0.3-1,0.3-1.5c0-0.6-0.1-1.1-0.4-1.6
				s-0.7-0.8-1.2-1c-0.5-0.2-1.1-0.4-1.7-0.4c-0.7,0-1.2,0.1-1.7,0.4c-0.5,0.3-0.9,0.7-1.1,1.1c-0.3,0.5-0.4,1.1-0.4,1.7h-2
				c0-1,0.2-1.9,0.7-2.7c0.5-0.8,1.1-1.4,1.9-1.8c0.8-0.4,1.7-0.6,2.7-0.6c1,0,1.9,0.2,2.7,0.6c0.8,0.4,1.4,1,1.8,1.7
				s0.7,1.5,0.7,2.4c0,0.6-0.1,1.3-0.3,1.9c-0.2,0.6-0.6,1.3-1.2,2c-0.6,0.7-1.3,1.6-2.3,2.7l-3.9,4.1v0.1h8v1.8H494.8z"/>
			<path d="M514.8,334.5c-0.7,0-1.4-0.1-2.1-0.4c-0.7-0.3-1.4-0.7-1.9-1.3s-1.1-1.4-1.4-2.5c-0.4-1.1-0.5-2.4-0.5-4
				c0-1.5,0.1-2.9,0.4-4.1c0.3-1.2,0.7-2.2,1.2-3c0.5-0.8,1.2-1.4,2-1.8c0.8-0.4,1.6-0.6,2.6-0.6c1,0,1.8,0.2,2.6,0.6
				s1.4,0.9,1.8,1.6c0.5,0.7,0.8,1.5,0.9,2.4h-2.1c-0.2-0.8-0.6-1.4-1.1-2c-0.5-0.5-1.3-0.8-2.2-0.8c-1.3,0-2.4,0.6-3.1,1.7
				s-1.2,2.8-1.2,4.9h0.1c0.3-0.5,0.7-0.9,1.1-1.2c0.4-0.3,0.9-0.6,1.4-0.8c0.5-0.2,1.1-0.3,1.7-0.3c1,0,1.9,0.2,2.7,0.7
				c0.8,0.5,1.5,1.2,2,2s0.7,1.8,0.7,3c0,1.1-0.2,2-0.7,2.9s-1.1,1.6-2,2.1S516,334.5,514.8,334.5z M514.8,332.6
				c0.7,0,1.3-0.2,1.9-0.5c0.6-0.4,1-0.8,1.3-1.4c0.3-0.6,0.5-1.3,0.5-2c0-0.7-0.2-1.4-0.5-1.9c-0.3-0.6-0.8-1.1-1.3-1.4
				c-0.6-0.3-1.2-0.5-1.9-0.5c-0.5,0-1,0.1-1.5,0.3c-0.5,0.2-0.9,0.5-1.2,0.9c-0.3,0.4-0.6,0.8-0.8,1.2c-0.2,0.5-0.3,1-0.3,1.5
				c0,0.7,0.2,1.3,0.5,1.9c0.3,0.6,0.8,1.1,1.3,1.4C513.5,332.5,514.1,332.6,514.8,332.6z"/>
		</g>
		<g>
			<path d="M197.9,171.1v14.7h-1.8V173H196l-3.6,2.4v-1.8l3.7-2.4H197.9z"/>
			<path d="M207,186c-0.9,0-1.8-0.2-2.5-0.5s-1.3-0.8-1.8-1.4c-0.4-0.6-0.7-1.3-0.7-2h1.8c0,0.5,0.2,0.9,0.5,1.2s0.7,0.6,1.1,0.8
				c0.5,0.2,1,0.3,1.5,0.3c0.6,0,1.2-0.1,1.7-0.3c0.5-0.2,0.9-0.5,1.1-0.9c0.3-0.4,0.4-0.8,0.4-1.4c0-0.5-0.1-1-0.4-1.4
				s-0.7-0.7-1.2-1c-0.5-0.2-1.1-0.4-1.9-0.4h-1.2v-1.6h1.2c0.6,0,1.1-0.1,1.5-0.3c0.4-0.2,0.8-0.5,1-0.9c0.3-0.4,0.4-0.8,0.4-1.3
				c0-0.5-0.1-0.9-0.3-1.3c-0.2-0.4-0.5-0.7-0.9-0.9c-0.4-0.2-0.9-0.3-1.4-0.3c-0.5,0-1,0.1-1.4,0.3c-0.4,0.2-0.8,0.4-1.1,0.8
				c-0.3,0.3-0.4,0.8-0.5,1.2h-1.7c0-0.8,0.3-1.4,0.7-2c0.4-0.6,1-1,1.7-1.4s1.5-0.5,2.3-0.5c0.9,0,1.7,0.2,2.3,0.5s1.1,0.8,1.5,1.4
				s0.5,1.2,0.5,1.9c0,0.8-0.2,1.5-0.6,2.1c-0.4,0.6-1,1-1.8,1.2v0.1c0.9,0.2,1.6,0.5,2.2,1.2c0.5,0.6,0.8,1.4,0.8,2.3
				c0,0.8-0.2,1.5-0.6,2.1s-1,1.1-1.8,1.5C208.8,185.8,208,186,207,186z"/>
			<path d="M217,183.8l-0.1,0.8c-0.1,0.5-0.2,1.1-0.4,1.7c-0.2,0.6-0.3,1.2-0.5,1.8s-0.3,1-0.4,1.3h-1.3c0.1-0.3,0.1-0.7,0.2-1.2
				c0.1-0.5,0.2-1.1,0.3-1.7c0.1-0.6,0.2-1.2,0.3-1.9l0.1-0.8H217z"/>
			<path d="M224.5,186c-0.9,0-1.8-0.2-2.5-0.5s-1.3-0.8-1.8-1.4c-0.4-0.6-0.7-1.3-0.7-2h1.8c0,0.5,0.2,0.9,0.5,1.2s0.7,0.6,1.1,0.8
				c0.5,0.2,1,0.3,1.5,0.3c0.6,0,1.2-0.1,1.7-0.3c0.5-0.2,0.9-0.5,1.1-0.9c0.3-0.4,0.4-0.8,0.4-1.4c0-0.5-0.1-1-0.4-1.4
				s-0.7-0.7-1.2-1c-0.5-0.2-1.1-0.4-1.9-0.4h-1.2v-1.6h1.2c0.6,0,1.1-0.1,1.5-0.3c0.4-0.2,0.8-0.5,1-0.9c0.3-0.4,0.4-0.8,0.4-1.3
				c0-0.5-0.1-0.9-0.3-1.3c-0.2-0.4-0.5-0.7-0.9-0.9c-0.4-0.2-0.9-0.3-1.4-0.3c-0.5,0-1,0.1-1.4,0.3c-0.4,0.2-0.8,0.4-1.1,0.8
				c-0.3,0.3-0.4,0.8-0.5,1.2h-1.7c0-0.8,0.3-1.4,0.7-2c0.4-0.6,1-1,1.7-1.4s1.5-0.5,2.3-0.5c0.9,0,1.7,0.2,2.3,0.5s1.1,0.8,1.5,1.4
				s0.5,1.2,0.5,1.9c0,0.8-0.2,1.5-0.6,2.1c-0.4,0.6-1,1-1.8,1.2v0.1c0.9,0.2,1.6,0.5,2.2,1.2c0.5,0.6,0.8,1.4,0.8,2.3
				c0,0.8-0.2,1.5-0.6,2.1s-1,1.1-1.8,1.5C226.3,185.8,225.4,186,224.5,186z"/>
			<path d="M236.9,186c-0.8,0-1.6-0.2-2.3-0.5c-0.7-0.3-1.2-0.8-1.6-1.4s-0.6-1.2-0.7-2h1.7c0.1,0.7,0.4,1.2,0.9,1.6
				s1.2,0.6,1.9,0.6c0.6,0,1.1-0.1,1.6-0.4s0.8-0.7,1.1-1.2s0.4-1.1,0.4-1.7c0-0.6-0.1-1.2-0.4-1.7c-0.3-0.5-0.7-0.9-1.1-1.2
				c-0.5-0.3-1-0.4-1.7-0.4c-0.4,0-0.9,0.1-1.4,0.2s-0.9,0.3-1.2,0.5l-1.7-0.2l0.9-7.2h7.6v1.6H235l-0.5,4.3h0.1
				c0.3-0.2,0.7-0.4,1.1-0.6s0.9-0.2,1.4-0.2c0.9,0,1.7,0.2,2.4,0.6c0.7,0.4,1.3,1,1.7,1.7c0.4,0.7,0.6,1.6,0.6,2.5
				c0,0.9-0.2,1.8-0.6,2.5c-0.4,0.7-1,1.3-1.7,1.7C238.7,185.8,237.9,186,236.9,186z"/>
		</g>
		<g>
			<path d="M459.2,171.1v14.7h-1.8V173h-0.1l-3.6,2.4v-1.8l3.7-2.4H459.2z"/>
			<path d="M468.4,186c-0.9,0-1.8-0.2-2.5-0.5s-1.3-0.8-1.8-1.4c-0.4-0.6-0.7-1.3-0.7-2h1.8c0,0.5,0.2,0.9,0.5,1.2s0.7,0.6,1.1,0.8
				c0.5,0.2,1,0.3,1.5,0.3c0.6,0,1.2-0.1,1.7-0.3c0.5-0.2,0.9-0.5,1.1-0.9c0.3-0.4,0.4-0.8,0.4-1.4c0-0.5-0.1-1-0.4-1.4
				s-0.7-0.7-1.2-1c-0.5-0.2-1.1-0.4-1.9-0.4H467v-1.6h1.2c0.6,0,1.1-0.1,1.5-0.3c0.4-0.2,0.8-0.5,1-0.9c0.3-0.4,0.4-0.8,0.4-1.3
				c0-0.5-0.1-0.9-0.3-1.3c-0.2-0.4-0.5-0.7-0.9-0.9c-0.4-0.2-0.9-0.3-1.4-0.3c-0.5,0-1,0.1-1.4,0.3c-0.4,0.2-0.8,0.4-1.1,0.8
				c-0.3,0.3-0.4,0.8-0.5,1.2h-1.7c0-0.8,0.3-1.4,0.7-2c0.4-0.6,1-1,1.7-1.4s1.5-0.5,2.3-0.5c0.9,0,1.7,0.2,2.3,0.5s1.1,0.8,1.5,1.4
				s0.5,1.2,0.5,1.9c0,0.8-0.2,1.5-0.6,2.1c-0.4,0.6-1,1-1.8,1.2v0.1c0.9,0.2,1.6,0.5,2.2,1.2c0.5,0.6,0.8,1.4,0.8,2.3
				c0,0.8-0.2,1.5-0.6,2.1s-1,1.1-1.8,1.5C470.2,185.8,469.4,186,468.4,186z"/>
			<path d="M478.4,183.8l-0.1,0.8c-0.1,0.5-0.2,1.1-0.4,1.7c-0.2,0.6-0.3,1.2-0.5,1.8s-0.3,1-0.4,1.3h-1.3c0.1-0.3,0.1-0.7,0.2-1.2
				c0.1-0.5,0.2-1.1,0.3-1.7c0.1-0.6,0.2-1.2,0.3-1.9l0.1-0.8H478.4z"/>
			<path d="M485.7,186c-1,0-1.8-0.2-2.6-0.5c-0.8-0.4-1.3-0.8-1.8-1.5c-0.4-0.6-0.6-1.3-0.6-2.1c0-0.6,0.1-1.2,0.4-1.7s0.6-1,1-1.3
				c0.4-0.4,0.9-0.6,1.4-0.7v-0.1c-0.7-0.2-1.3-0.6-1.7-1.2c-0.4-0.6-0.6-1.3-0.6-2.1c0-0.7,0.2-1.4,0.6-2c0.4-0.6,0.9-1,1.6-1.4
				c0.7-0.3,1.4-0.5,2.3-0.5c0.8,0,1.6,0.2,2.3,0.5c0.7,0.3,1.2,0.8,1.6,1.4c0.4,0.6,0.6,1.3,0.6,2c0,0.8-0.2,1.5-0.6,2.1
				c-0.4,0.6-1,1-1.7,1.2v0.1c0.5,0.1,1,0.3,1.4,0.7c0.4,0.4,0.8,0.8,1,1.3s0.4,1.1,0.4,1.7c0,0.8-0.2,1.5-0.6,2.1
				c-0.4,0.6-1,1.1-1.8,1.5C487.5,185.8,486.7,186,485.7,186z M485.7,184.4c0.7,0,1.2-0.1,1.7-0.3c0.5-0.2,0.9-0.5,1.1-0.9
				c0.3-0.4,0.4-0.8,0.4-1.4c0-0.6-0.1-1-0.4-1.5c-0.3-0.4-0.7-0.8-1.1-1s-1-0.4-1.7-0.4c-0.6,0-1.2,0.1-1.7,0.4
				c-0.5,0.2-0.9,0.6-1.2,1c-0.3,0.4-0.4,0.9-0.4,1.5c0,0.5,0.1,1,0.4,1.4c0.3,0.4,0.6,0.7,1.1,0.9
				C484.4,184.3,485,184.4,485.7,184.4z M485.7,177.4c0.5,0,1-0.1,1.4-0.3c0.4-0.2,0.7-0.5,1-0.9c0.2-0.4,0.4-0.8,0.4-1.3
				c0-0.5-0.1-0.9-0.4-1.3s-0.5-0.7-1-0.9s-0.9-0.3-1.4-0.3c-0.5,0-1,0.1-1.4,0.3s-0.7,0.5-1,0.9s-0.3,0.8-0.3,1.3
				c0,0.5,0.1,0.9,0.3,1.3c0.2,0.4,0.6,0.7,1,0.9C484.7,177.3,485.2,177.4,485.7,177.4z"/>
			<path d="M493.1,182.8v-1.5l6.4-10.2h1.1v2.3h-0.7l-4.9,7.7v0.1h8.7v1.6H493.1z M500,185.8v-3.4v-0.7v-10.5h1.7v14.7H500z"/>
		</g>
		<g>
			<path d="M313.9,596.9c-0.8,0-1.6-0.2-2.3-0.5c-0.7-0.3-1.2-0.8-1.6-1.4s-0.6-1.2-0.7-2h1.7c0.1,0.7,0.4,1.2,0.9,1.6
				s1.2,0.6,1.9,0.6c0.6,0,1.1-0.1,1.6-0.4c0.5-0.3,0.8-0.7,1.1-1.2s0.4-1.1,0.4-1.7c0-0.6-0.1-1.2-0.4-1.7
				c-0.3-0.5-0.7-0.9-1.1-1.2s-1-0.4-1.7-0.4c-0.4,0-0.9,0.1-1.4,0.2s-0.9,0.3-1.2,0.5l-1.7-0.2l0.9-7.2h7.6v1.6H312l-0.5,4.3h0.1
				c0.3-0.2,0.7-0.4,1.1-0.6s0.9-0.2,1.4-0.2c0.9,0,1.7,0.2,2.4,0.6c0.7,0.4,1.3,1,1.7,1.7c0.4,0.7,0.6,1.6,0.6,2.5
				c0,0.9-0.2,1.8-0.6,2.5c-0.4,0.7-1,1.3-1.7,1.7C315.7,596.7,314.9,596.9,313.9,596.9z"/>
			<path d="M323.6,594.7l-0.1,0.8c-0.1,0.5-0.2,1.1-0.4,1.7c-0.2,0.6-0.3,1.2-0.5,1.8s-0.3,1-0.4,1.3h-1.3c0.1-0.3,0.1-0.7,0.2-1.2
				c0.1-0.5,0.2-1.1,0.3-1.7c0.1-0.6,0.2-1.2,0.3-1.9l0.1-0.8H323.6z"/>
			<path d="M331.2,581.9c0.6,0,1.2,0.1,1.8,0.3c0.6,0.2,1.1,0.6,1.6,1.1s0.9,1.2,1.2,2.1s0.5,2,0.5,3.4c0,1.3-0.1,2.5-0.4,3.5
				s-0.6,1.9-1.1,2.5c-0.5,0.7-1,1.2-1.7,1.6c-0.7,0.4-1.4,0.5-2.2,0.5c-0.8,0-1.6-0.2-2.2-0.5c-0.6-0.3-1.2-0.8-1.6-1.4
				s-0.7-1.3-0.8-2h1.7c0.2,0.7,0.5,1.2,0.9,1.7s1.1,0.7,1.9,0.7c1.1,0,2-0.5,2.7-1.5c0.7-1,1-2.4,1-4.2h-0.1c-0.3,0.4-0.6,0.7-1,1
				s-0.8,0.5-1.2,0.7s-0.9,0.2-1.4,0.2c-0.8,0-1.6-0.2-2.3-0.6c-0.7-0.4-1.3-1-1.7-1.7c-0.4-0.7-0.6-1.6-0.6-2.5
				c0-0.9,0.2-1.7,0.6-2.5c0.4-0.7,1-1.3,1.7-1.8C329.4,582.1,330.2,581.8,331.2,581.9z M331.2,583.4c-0.6,0-1.1,0.2-1.6,0.5
				c-0.5,0.3-0.9,0.7-1.1,1.2c-0.3,0.5-0.4,1.1-0.4,1.7c0,0.6,0.1,1.2,0.4,1.7c0.3,0.5,0.6,0.9,1.1,1.2c0.5,0.3,1,0.4,1.6,0.4
				c0.5,0,0.9-0.1,1.3-0.3s0.7-0.4,1-0.7s0.5-0.7,0.7-1.1c0.2-0.4,0.3-0.8,0.3-1.2c0-0.6-0.1-1.1-0.4-1.6s-0.7-0.9-1.1-1.2
				C332.4,583.6,331.8,583.4,331.2,583.4z"/>
			<path d="M344.3,582.1v14.7h-1.8v-12.8h-0.1l-3.6,2.4v-1.8l3.7-2.4H344.3z"/>
		</g>
		<g>
			<path d="M171.4,593.1v-1.5l6.4-10.2h1.1v2.3h-0.7l-4.9,7.7v0.1h8.7v1.6H171.4z M178.2,596.1v-3.4V592v-10.5h1.7v14.7H178.2z"/>
			<path d="M186.5,594.1l-0.1,0.8c-0.1,0.5-0.2,1.1-0.4,1.7c-0.2,0.6-0.3,1.2-0.5,1.8s-0.3,1-0.4,1.3h-1.3c0.1-0.3,0.1-0.7,0.2-1.2
				c0.1-0.5,0.2-1.1,0.3-1.7c0.1-0.6,0.2-1.2,0.3-1.9l0.1-0.8H186.5z"/>
			<path d="M189.6,596.1v-1.3l4.8-5.3c0.6-0.6,1-1.2,1.4-1.6c0.4-0.5,0.6-0.9,0.8-1.3c0.2-0.4,0.3-0.8,0.3-1.3c0-0.5-0.1-1-0.4-1.3
				s-0.6-0.7-1-0.9s-0.9-0.3-1.4-0.3c-0.6,0-1.1,0.1-1.5,0.3c-0.4,0.2-0.7,0.6-1,1s-0.3,0.9-0.3,1.5h-1.7c0-0.9,0.2-1.6,0.6-2.3
				s0.9-1.2,1.6-1.5c0.7-0.4,1.5-0.5,2.3-0.5c0.9,0,1.6,0.2,2.3,0.5c0.7,0.4,1.2,0.9,1.6,1.5c0.4,0.6,0.6,1.3,0.6,2.1
				c0,0.5-0.1,1.1-0.3,1.6c-0.2,0.5-0.5,1.1-1,1.7c-0.5,0.6-1.1,1.4-2,2.3l-3.3,3.5v0.1h6.8v1.6H189.6z"/>
			<path d="M206.6,596.3c-0.6,0-1.2-0.1-1.8-0.3c-0.6-0.2-1.1-0.6-1.6-1.1c-0.5-0.5-0.9-1.2-1.2-2.1s-0.5-2-0.5-3.4
				c0-1.3,0.1-2.5,0.4-3.5s0.6-1.9,1.1-2.5c0.5-0.7,1-1.2,1.7-1.6s1.4-0.5,2.2-0.5c0.8,0,1.6,0.2,2.2,0.5c0.6,0.3,1.2,0.8,1.6,1.4
				s0.7,1.3,0.8,2h-1.7c-0.2-0.7-0.5-1.2-0.9-1.7c-0.5-0.4-1.1-0.7-1.9-0.7c-1.1,0-2,0.5-2.7,1.5c-0.7,1-1,2.4-1,4.2h0.1
				c0.3-0.4,0.6-0.8,1-1s0.8-0.5,1.2-0.7s0.9-0.2,1.4-0.2c0.8,0,1.6,0.2,2.3,0.6c0.7,0.4,1.3,1,1.7,1.7c0.4,0.7,0.6,1.6,0.6,2.5
				c0,0.9-0.2,1.7-0.6,2.5c-0.4,0.8-1,1.3-1.7,1.8C208.5,596.1,207.6,596.3,206.6,596.3z M206.6,594.8c0.6,0,1.1-0.2,1.6-0.5
				c0.5-0.3,0.9-0.7,1.1-1.2c0.3-0.5,0.4-1.1,0.4-1.7c0-0.6-0.1-1.2-0.4-1.7c-0.3-0.5-0.6-0.9-1.1-1.2s-1-0.4-1.6-0.4
				c-0.5,0-0.9,0.1-1.3,0.3c-0.4,0.2-0.7,0.4-1,0.7c-0.3,0.3-0.5,0.7-0.7,1.1s-0.3,0.8-0.3,1.3c0,0.6,0.1,1.1,0.4,1.6
				c0.3,0.5,0.7,0.9,1.1,1.2C205.5,594.6,206,594.8,206.6,594.8z"/>
		</g>
	</g>
	<g id="size-2" display="inline">
		<line fill="#FFFFFF" stroke="#000000" stroke-width="0.5" stroke-miterlimit="10" x1="577.9" y1="686.9" x2="657.4" y2="686.9"/>
		<line fill="#FFFFFF" stroke="#000000" stroke-width="0.5" stroke-miterlimit="10" x1="577.9" y1="489.8" x2="657.4" y2="489.8"/>
		<line fill="#FFFFFF" stroke="#000000" stroke-width="0.5" stroke-miterlimit="10" x1="577.9" y1="483" x2="657.4" y2="483"/>
		<line fill="#FFFFFF" stroke="#000000" stroke-width="0.5" stroke-miterlimit="10" x1="577.9" y1="147.7" x2="657.4" y2="147.7"/>
		<line fill="#FFFFFF" stroke="#000000" stroke-width="0.5" stroke-miterlimit="10" x1="590.7" y1="666" x2="590.7" y2="771.7"/>
		<line fill="#FFFFFF" stroke="#000000" stroke-width="0.5" stroke-miterlimit="10" x1="250.8" y1="666" x2="250.8" y2="771.7"/>
		<line fill="#FFFFFF" stroke="#000000" stroke-width="0.5" stroke-miterlimit="10" x1="241.8" y1="666" x2="241.8" y2="771.7"/>
		<line fill="#FFFFFF" stroke="#000000" stroke-width="0.5" stroke-miterlimit="10" x1="110.9" y1="666" x2="110.9" y2="771.7"/>
		<line fill="#FFFFFF" stroke="#000000" stroke-width="0.5" stroke-miterlimit="10" x1="120.8" y1="686.9" x2="24.3" y2="686.9"/>
		<line fill="#FFFFFF" stroke="#000000" stroke-width="0.5" stroke-miterlimit="10" x1="120.8" y1="500.8" x2="24.3" y2="500.8"/>
		<line fill="#FFFFFF" stroke="#000000" stroke-width="0.5" stroke-miterlimit="10" x1="120.8" y1="483" x2="24.3" y2="483"/>
		<line fill="#FFFFFF" stroke="#000000" stroke-width="0.5" stroke-miterlimit="10" x1="120.8" y1="147.7" x2="24.3" y2="147.7"/>
		<line fill="#FFFFFF" stroke="#000000" stroke-width="0.5" stroke-miterlimit="10" x1="110.9" y1="166.7" x2="110.9" y2="16.4"/>
		<line fill="#FFFFFF" stroke="#000000" stroke-width="0.5" stroke-miterlimit="10" x1="338.6" y1="166.7" x2="338.6" y2="16.4"/>
		<line fill="#FFFFFF" stroke="#000000" stroke-width="0.5" stroke-miterlimit="10" x1="348.9" y1="166.7" x2="348.9" y2="16.4"/>
		<line fill="#FFFFFF" stroke="#000000" stroke-width="0.5" stroke-miterlimit="10" x1="588.4" y1="166.7" x2="588.4" y2="16.4"/>
		<line fill="#FFFFFF" stroke="#000000" stroke-width="0.5" stroke-miterlimit="10" x1="110.9" y1="43.7" x2="588.4" y2="43.7"/>
		<line fill="#FFFFFF" stroke="#000000" stroke-width="0.5" stroke-miterlimit="10" x1="636.3" y1="147.7" x2="636.3" y2="686.9"/>
		<line fill="#FFFFFF" stroke="#000000" stroke-width="0.5" stroke-miterlimit="10" x1="590.7" y1="749.7" x2="110.9" y2="749.7"/>
		<line fill="#FFFFFF" stroke="#000000" stroke-width="0.5" stroke-miterlimit="10" x1="41.5" y1="686.9" x2="41.5" y2="147.7"/>
		<g>
			<path d="M29,346.5h-1.5l-10.2-6.4V339h2.3v0.7l7.7,4.9h0.1v-8.7H29V346.5z M32,339.6h-3.4h-0.7H17.3v-1.7H32V339.6z"/>
			<path d="M29,333.6h-1.5l-10.2-6.4v-1.1h2.3v0.7l7.7,4.9h0.1V323H29V333.6z M32,326.7h-3.4h-0.7H17.3V325H32V326.7z"/>
			<path d="M32.2,315.5c0,1.1-0.3,2-0.9,2.8s-1.4,1.3-2.6,1.7c-1.1,0.4-2.5,0.6-4.1,0.6c-1.6,0-2.9-0.2-4.1-0.6s-2-1-2.6-1.7
				s-0.9-1.7-0.9-2.7s0.3-2,0.9-2.7c0.6-0.8,1.5-1.3,2.6-1.7c1.1-0.4,2.5-0.6,4.1-0.6c1.6,0,3,0.2,4.1,0.6c1.1,0.4,2,1,2.6,1.7
				S32.2,314.4,32.2,315.5z M30.6,315.5c0-1.1-0.5-1.9-1.5-2.5c-1-0.6-2.5-0.9-4.4-0.9c-1.3,0-2.3,0.1-3.2,0.4
				c-0.9,0.3-1.6,0.7-2,1.2s-0.7,1.1-0.7,1.8c0,1.1,0.5,1.9,1.6,2.5c1,0.6,2.5,0.9,4.4,0.9c1.3,0,2.3-0.1,3.2-0.4s1.6-0.7,2-1.2
				C30.4,316.8,30.6,316.2,30.6,315.5z"/>
			<path d="M32.2,302.9c0,1.1-0.3,2-0.9,2.8s-1.4,1.3-2.6,1.7c-1.1,0.4-2.5,0.6-4.1,0.6c-1.6,0-2.9-0.2-4.1-0.6s-2-1-2.6-1.7
				s-0.9-1.7-0.9-2.7s0.3-2,0.9-2.7c0.6-0.8,1.5-1.3,2.6-1.7c1.1-0.4,2.5-0.6,4.1-0.6c1.6,0,3,0.2,4.1,0.6c1.1,0.4,2,1,2.6,1.7
				S32.2,301.8,32.2,302.9z M30.6,302.9c0-1.1-0.5-1.9-1.5-2.5c-1-0.6-2.5-0.9-4.4-0.9c-1.3,0-2.3,0.1-3.2,0.4
				c-0.9,0.3-1.6,0.7-2,1.2s-0.7,1.1-0.7,1.8c0,1.1,0.5,1.9,1.6,2.5c1,0.6,2.5,0.9,4.4,0.9c1.3,0,2.3-0.1,3.2-0.4s1.6-0.7,2-1.2
				C30.4,304.2,30.6,303.6,30.6,302.9z"/>
		</g>
		<g>
			<path d="M32,622.7h-1.3l-5.3-4.8c-0.6-0.6-1.2-1-1.6-1.4c-0.5-0.4-0.9-0.6-1.3-0.8c-0.4-0.2-0.8-0.3-1.3-0.3
				c-0.5,0-1,0.1-1.3,0.4c-0.4,0.2-0.7,0.6-0.9,1c-0.2,0.4-0.3,0.9-0.3,1.4c0,0.6,0.1,1.1,0.3,1.5s0.6,0.7,1,1s0.9,0.3,1.5,0.3v1.7
				c-0.9,0-1.6-0.2-2.3-0.6c-0.6-0.4-1.2-0.9-1.5-1.6c-0.4-0.7-0.5-1.5-0.5-2.3c0-0.9,0.2-1.6,0.5-2.3c0.4-0.7,0.9-1.2,1.5-1.6
				s1.3-0.6,2.1-0.6c0.5,0,1.1,0.1,1.6,0.3s1.1,0.5,1.7,1c0.6,0.5,1.4,1.1,2.3,2l3.5,3.3h0.1v-6.8H32V622.7z"/>
			<path d="M29,611.2h-1.5l-10.2-6.4v-1.1h2.3v0.7l7.7,4.9h0.1v-8.7H29V611.2z M32,604.3h-3.4h-0.7H17.3v-1.7H32V604.3z"/>
			<path d="M29,598.3h-1.5l-10.2-6.4v-1.1h2.3v0.7l7.7,4.9h0.1v-8.7H29V598.3z M32,591.4h-3.4h-0.7H17.3v-1.7H32V591.4z"/>
			<path d="M32.2,580.2c0,1.1-0.3,2-0.9,2.8c-0.6,0.8-1.4,1.3-2.6,1.7c-1.1,0.4-2.5,0.6-4.1,0.6c-1.6,0-2.9-0.2-4.1-0.6
				s-2-1-2.6-1.7c-0.6-0.8-0.9-1.7-0.9-2.7s0.3-2,0.9-2.7c0.6-0.8,1.5-1.3,2.6-1.7s2.5-0.6,4.1-0.6c1.6,0,3,0.2,4.1,0.6
				c1.1,0.4,2,1,2.6,1.7S32.2,579.1,32.2,580.2z M30.6,580.2c0-1.1-0.5-1.9-1.5-2.5c-1-0.6-2.5-0.9-4.4-0.9c-1.3,0-2.3,0.1-3.2,0.4
				c-0.9,0.3-1.6,0.7-2,1.2c-0.5,0.5-0.7,1.1-0.7,1.8c0,1.1,0.5,1.9,1.6,2.5c1,0.6,2.5,0.9,4.4,0.9c1.3,0,2.3-0.1,3.2-0.4
				c0.9-0.3,1.6-0.7,2-1.2C30.4,581.5,30.6,580.9,30.6,580.2z"/>
		</g>
		<g>
			<path d="M214.5,34.9c-0.9,0-1.8-0.2-2.5-0.5s-1.3-0.8-1.8-1.4c-0.4-0.6-0.7-1.3-0.7-2h1.8c0,0.5,0.2,0.9,0.5,1.2
				c0.3,0.3,0.7,0.6,1.1,0.8c0.5,0.2,1,0.3,1.5,0.3c0.6,0,1.2-0.1,1.7-0.3c0.5-0.2,0.9-0.5,1.1-0.9c0.3-0.4,0.4-0.8,0.4-1.4
				c0-0.5-0.1-1-0.4-1.4c-0.3-0.4-0.7-0.7-1.2-1S215,28,214.3,28h-1.2v-1.6h1.2c0.6,0,1.1-0.1,1.5-0.3c0.4-0.2,0.8-0.5,1-0.9
				c0.3-0.4,0.4-0.8,0.4-1.3c0-0.5-0.1-0.9-0.3-1.3c-0.2-0.4-0.5-0.7-0.9-0.9c-0.4-0.2-0.9-0.3-1.4-0.3c-0.5,0-1,0.1-1.4,0.3
				c-0.4,0.2-0.8,0.4-1.1,0.8c-0.3,0.3-0.4,0.8-0.5,1.2h-1.7c0-0.8,0.3-1.4,0.7-2s1-1,1.7-1.4s1.5-0.5,2.3-0.5
				c0.9,0,1.7,0.2,2.3,0.5c0.6,0.4,1.1,0.8,1.5,1.4c0.3,0.6,0.5,1.2,0.5,1.9c0,0.8-0.2,1.5-0.6,2.1c-0.4,0.6-1,1-1.8,1.2v0.1
				c0.9,0.2,1.6,0.5,2.2,1.2c0.5,0.6,0.8,1.4,0.8,2.3c0,0.8-0.2,1.5-0.6,2.1s-1,1.1-1.8,1.5C216.3,34.7,215.5,34.9,214.5,34.9z"/>
			<path d="M227.2,34.9c-1.1,0-2-0.3-2.8-0.9s-1.3-1.4-1.7-2.6c-0.4-1.1-0.6-2.5-0.6-4.1c0-1.6,0.2-2.9,0.6-4.1s1-2,1.7-2.6
				s1.7-0.9,2.7-0.9s2,0.3,2.7,0.9c0.8,0.6,1.3,1.5,1.7,2.6c0.4,1.1,0.6,2.5,0.6,4.1c0,1.6-0.2,3-0.6,4.1c-0.4,1.1-1,2-1.7,2.6
				S228.3,34.9,227.2,34.9z M227.2,33.4c1.1,0,1.9-0.5,2.5-1.5c0.6-1,0.9-2.5,0.9-4.4c0-1.3-0.1-2.3-0.4-3.2c-0.3-0.9-0.7-1.6-1.2-2
				c-0.5-0.5-1.1-0.7-1.8-0.7c-1.1,0-1.9,0.5-2.5,1.6c-0.6,1-0.9,2.5-0.9,4.4c0,1.3,0.1,2.3,0.4,3.2c0.3,0.9,0.7,1.6,1.2,2
				C225.9,33.1,226.5,33.4,227.2,33.4z"/>
			<path d="M235,34.7v-1.3l4.8-5.3c0.6-0.6,1-1.2,1.4-1.6c0.4-0.5,0.6-0.9,0.8-1.3c0.2-0.4,0.3-0.8,0.3-1.3c0-0.5-0.1-1-0.4-1.3
				c-0.2-0.4-0.6-0.7-1-0.9s-0.9-0.3-1.4-0.3c-0.6,0-1.1,0.1-1.5,0.3s-0.7,0.6-1,1s-0.3,0.9-0.3,1.5H235c0-0.9,0.2-1.6,0.6-2.3
				c0.4-0.6,0.9-1.2,1.6-1.5c0.7-0.4,1.5-0.5,2.3-0.5c0.9,0,1.6,0.2,2.3,0.5c0.7,0.4,1.2,0.9,1.6,1.5c0.4,0.6,0.6,1.3,0.6,2.1
				c0,0.5-0.1,1.1-0.3,1.6c-0.2,0.5-0.5,1.1-1,1.7c-0.5,0.6-1.1,1.4-2,2.3l-3.3,3.5v0.1h6.8v1.6H235z"/>
			<path d="M252,34.9c-1.1,0-2-0.3-2.8-0.9s-1.3-1.4-1.7-2.6c-0.4-1.1-0.6-2.5-0.6-4.1c0-1.6,0.2-2.9,0.6-4.1s1-2,1.7-2.6
				s1.7-0.9,2.7-0.9s2,0.3,2.7,0.9c0.8,0.6,1.3,1.5,1.7,2.6c0.4,1.1,0.6,2.5,0.6,4.1c0,1.6-0.2,3-0.6,4.1c-0.4,1.1-1,2-1.7,2.6
				S253,34.9,252,34.9z M252,33.4c1.1,0,1.9-0.5,2.5-1.5c0.6-1,0.9-2.5,0.9-4.4c0-1.3-0.1-2.3-0.4-3.2c-0.3-0.9-0.7-1.6-1.2-2
				c-0.5-0.5-1.1-0.7-1.8-0.7c-1.1,0-1.9,0.5-2.5,1.6c-0.6,1-0.9,2.5-0.9,4.4c0,1.3,0.1,2.3,0.4,3.2c0.3,0.9,0.7,1.6,1.2,2
				C250.6,33.1,251.2,33.4,252,33.4z"/>
		</g>
		<g>
			<path d="M459.4,34.9c-0.9,0-1.8-0.2-2.5-0.5s-1.3-0.8-1.8-1.4c-0.4-0.6-0.7-1.3-0.7-2h1.8c0,0.5,0.2,0.9,0.5,1.2
				c0.3,0.3,0.7,0.6,1.1,0.8c0.5,0.2,1,0.3,1.5,0.3c0.6,0,1.2-0.1,1.7-0.3c0.5-0.2,0.9-0.5,1.1-0.9c0.3-0.4,0.4-0.8,0.4-1.4
				c0-0.5-0.1-1-0.4-1.4s-0.7-0.7-1.2-1c-0.5-0.2-1.1-0.4-1.9-0.4H458v-1.6h1.2c0.6,0,1.1-0.1,1.5-0.3c0.4-0.2,0.8-0.5,1-0.9
				c0.3-0.4,0.4-0.8,0.4-1.3c0-0.5-0.1-0.9-0.3-1.3c-0.2-0.4-0.5-0.7-0.9-0.9c-0.4-0.2-0.9-0.3-1.4-0.3c-0.5,0-1,0.1-1.4,0.3
				c-0.4,0.2-0.8,0.4-1.1,0.8c-0.3,0.3-0.4,0.8-0.5,1.2h-1.7c0-0.8,0.3-1.4,0.7-2c0.4-0.6,1-1,1.7-1.4s1.5-0.5,2.3-0.5
				c0.9,0,1.7,0.2,2.3,0.5s1.1,0.8,1.5,1.4s0.5,1.2,0.5,1.9c0,0.8-0.2,1.5-0.6,2.1c-0.4,0.6-1,1-1.8,1.2v0.1
				c0.9,0.2,1.6,0.5,2.2,1.2c0.5,0.6,0.8,1.4,0.8,2.3c0,0.8-0.2,1.5-0.6,2.1s-1,1.1-1.8,1.5C461.2,34.7,460.4,34.9,459.4,34.9z"/>
			<path d="M467.3,34.7v-1.3l4.8-5.3c0.6-0.6,1-1.2,1.4-1.6c0.4-0.5,0.6-0.9,0.8-1.3c0.2-0.4,0.3-0.8,0.3-1.3c0-0.5-0.1-1-0.4-1.3
				c-0.2-0.4-0.6-0.7-1-0.9c-0.4-0.2-0.9-0.3-1.4-0.3c-0.6,0-1.1,0.1-1.5,0.3s-0.7,0.6-1,1s-0.3,0.9-0.3,1.5h-1.7
				c0-0.9,0.2-1.6,0.6-2.3c0.4-0.6,0.9-1.2,1.6-1.5c0.7-0.4,1.5-0.5,2.3-0.5c0.9,0,1.6,0.2,2.3,0.5c0.7,0.4,1.2,0.9,1.6,1.5
				c0.4,0.6,0.6,1.3,0.6,2.1c0,0.5-0.1,1.1-0.3,1.6c-0.2,0.5-0.5,1.1-1,1.7c-0.5,0.6-1.1,1.4-2,2.3l-3.3,3.5v0.1h6.8v1.6H467.3z"/>
			<path d="M484.3,34.9c-1.1,0-2-0.3-2.8-0.9s-1.3-1.4-1.7-2.6c-0.4-1.1-0.6-2.5-0.6-4.1c0-1.6,0.2-2.9,0.6-4.1s1-2,1.7-2.6
				s1.7-0.9,2.7-0.9s2,0.3,2.7,0.9c0.8,0.6,1.3,1.5,1.7,2.6c0.4,1.1,0.6,2.5,0.6,4.1c0,1.6-0.2,3-0.6,4.1c-0.4,1.1-1,2-1.7,2.6
				S485.4,34.9,484.3,34.9z M484.3,33.4c1.1,0,1.9-0.5,2.5-1.5c0.6-1,0.9-2.5,0.9-4.4c0-1.3-0.1-2.3-0.4-3.2c-0.3-0.9-0.7-1.6-1.2-2
				s-1.1-0.7-1.8-0.7c-1.1,0-1.9,0.5-2.5,1.6c-0.6,1-0.9,2.5-0.9,4.4c0,1.3,0.1,2.3,0.4,3.2s0.7,1.6,1.2,2
				C483,33.1,483.6,33.4,484.3,33.4z"/>
			<path d="M496.9,34.9c-1.1,0-2-0.3-2.8-0.9s-1.3-1.4-1.7-2.6c-0.4-1.1-0.6-2.5-0.6-4.1c0-1.6,0.2-2.9,0.6-4.1s1-2,1.7-2.6
				s1.7-0.9,2.7-0.9s2,0.3,2.7,0.9c0.8,0.6,1.3,1.5,1.7,2.6c0.4,1.1,0.6,2.5,0.6,4.1c0,1.6-0.2,3-0.6,4.1c-0.4,1.1-1,2-1.7,2.6
				S498,34.9,496.9,34.9z M496.9,33.4c1.1,0,1.9-0.5,2.5-1.5c0.6-1,0.9-2.5,0.9-4.4c0-1.3-0.1-2.3-0.4-3.2c-0.3-0.9-0.7-1.6-1.2-2
				s-1.1-0.7-1.8-0.7c-1.1,0-1.9,0.5-2.5,1.6c-0.6,1-0.9,2.5-0.9,4.4c0,1.3,0.1,2.3,0.4,3.2s0.7,1.6,1.2,2
				C495.6,33.1,496.2,33.4,496.9,33.4z"/>
		</g>
		<g>
			<path d="M382.2,768.6v-1.5l6.4-10.2h1.1v2.3H389l-4.9,7.7v0.1h8.7v1.6H382.2z M389.1,771.7v-3.4v-0.7V757h1.7v14.7H389.1z"/>
			<path d="M395.2,768.6v-1.5l6.4-10.2h1.1v2.3H402l-4.9,7.7v0.1h8.7v1.6H395.2z M402.1,771.7v-3.4v-0.7V757h1.7v14.7H402.1z"/>
			<path d="M408.5,771.7v-1.3l4.8-5.3c0.6-0.6,1-1.2,1.4-1.6c0.4-0.5,0.6-0.9,0.8-1.3c0.2-0.4,0.3-0.8,0.3-1.3c0-0.5-0.1-1-0.4-1.3
				c-0.2-0.4-0.6-0.7-1-0.9s-0.9-0.3-1.4-0.3c-0.6,0-1.1,0.1-1.5,0.3s-0.7,0.6-1,1s-0.3,0.9-0.3,1.5h-1.7c0-0.9,0.2-1.6,0.6-2.3
				c0.4-0.6,0.9-1.2,1.6-1.5c0.7-0.4,1.5-0.5,2.3-0.5c0.9,0,1.6,0.2,2.3,0.5c0.7,0.4,1.2,0.9,1.6,1.5c0.4,0.6,0.6,1.3,0.6,2.1
				c0,0.5-0.1,1.1-0.3,1.6c-0.2,0.5-0.5,1.1-1,1.7c-0.5,0.6-1.1,1.4-2,2.3l-3.3,3.5v0.1h6.8v1.6H408.5z"/>
			<path d="M425.4,771.9c-1.1,0-2-0.3-2.8-0.9s-1.3-1.4-1.7-2.6c-0.4-1.1-0.6-2.5-0.6-4.1c0-1.6,0.2-2.9,0.6-4.1s1-2,1.7-2.6
				s1.7-0.9,2.7-0.9s2,0.3,2.7,0.9c0.8,0.6,1.3,1.5,1.7,2.6c0.4,1.1,0.6,2.5,0.6,4.1c0,1.6-0.2,3-0.6,4.1c-0.4,1.1-1,2-1.7,2.6
				S426.5,771.9,425.4,771.9z M425.4,770.3c1.1,0,1.9-0.5,2.5-1.5c0.6-1,0.9-2.5,0.9-4.4c0-1.3-0.1-2.3-0.4-3.2
				c-0.3-0.9-0.7-1.6-1.2-2c-0.5-0.5-1.1-0.7-1.8-0.7c-1.1,0-1.9,0.5-2.5,1.6c-0.6,1-0.9,2.5-0.9,4.4c0,1.3,0.1,2.3,0.4,3.2
				c0.3,0.9,0.7,1.6,1.2,2C424.1,770,424.7,770.3,425.4,770.3z"/>
		</g>
		<g>
			<path d="M161.1,757v14.7h-1.8v-12.8h-0.1l-3.6,2.4v-1.8l3.7-2.4H161.1z"/>
			<path d="M165.7,771.7l6.6-13v-0.1h-7.6V757h9.4v1.7l-6.5,13H165.7z"/>
			<path d="M176.8,771.7v-1.3l4.8-5.3c0.6-0.6,1-1.2,1.4-1.6c0.4-0.5,0.6-0.9,0.8-1.3c0.2-0.4,0.3-0.8,0.3-1.3c0-0.5-0.1-1-0.4-1.3
				s-0.6-0.7-1-0.9c-0.4-0.2-0.9-0.3-1.4-0.3c-0.6,0-1.1,0.1-1.5,0.3s-0.7,0.6-1,1c-0.2,0.4-0.3,0.9-0.3,1.5h-1.7
				c0-0.9,0.2-1.6,0.6-2.3c0.4-0.6,0.9-1.2,1.6-1.5c0.7-0.4,1.5-0.5,2.3-0.5c0.9,0,1.6,0.2,2.3,0.5c0.7,0.4,1.2,0.9,1.6,1.5
				c0.4,0.6,0.6,1.3,0.6,2.1c0,0.5-0.1,1.1-0.3,1.6c-0.2,0.5-0.5,1.1-1,1.7s-1.1,1.4-2,2.3l-3.3,3.5v0.1h6.8v1.6H176.8z"/>
			<path d="M193.7,771.9c-1.1,0-2-0.3-2.8-0.9s-1.3-1.4-1.7-2.6c-0.4-1.1-0.6-2.5-0.6-4.1c0-1.6,0.2-2.9,0.6-4.1s1-2,1.7-2.6
				s1.7-0.9,2.7-0.9s2,0.3,2.7,0.9c0.8,0.6,1.3,1.5,1.7,2.6c0.4,1.1,0.6,2.5,0.6,4.1c0,1.6-0.2,3-0.6,4.1c-0.4,1.1-1,2-1.7,2.6
				S194.8,771.9,193.7,771.9z M193.7,770.3c1.1,0,1.9-0.5,2.5-1.5c0.6-1,0.9-2.5,0.9-4.4c0-1.3-0.1-2.3-0.4-3.2
				c-0.3-0.9-0.7-1.6-1.2-2c-0.5-0.5-1.1-0.7-1.8-0.7c-1.1,0-1.9,0.5-2.5,1.6c-0.6,1-0.9,2.5-0.9,4.4c0,1.3,0.1,2.3,0.4,3.2
				c0.3,0.9,0.7,1.6,1.2,2C192.4,770,193,770.3,193.7,770.3z"/>
		</g>
		<g>
			<path d="M657.4,608.9h-1.3l-5.3-4.8c-0.6-0.6-1.2-1-1.6-1.4c-0.5-0.4-0.9-0.6-1.3-0.8c-0.4-0.2-0.8-0.3-1.3-0.3
				c-0.5,0-1,0.1-1.3,0.4c-0.4,0.2-0.7,0.6-0.9,1c-0.2,0.4-0.3,0.9-0.3,1.4c0,0.6,0.1,1.1,0.3,1.5s0.6,0.7,1,1s0.9,0.3,1.5,0.3v1.7
				c-0.9,0-1.6-0.2-2.3-0.6c-0.6-0.4-1.2-0.9-1.5-1.6c-0.4-0.7-0.5-1.5-0.5-2.3c0-0.9,0.2-1.6,0.5-2.3c0.4-0.7,0.9-1.2,1.5-1.6
				c0.6-0.4,1.3-0.6,2.1-0.6c0.5,0,1.1,0.1,1.6,0.3c0.5,0.2,1.1,0.5,1.7,1c0.6,0.5,1.4,1.1,2.3,2l3.5,3.3h0.1v-6.8h1.6V608.9z"/>
			<path d="M657.6,591.9c0,0.6-0.1,1.2-0.3,1.8c-0.2,0.6-0.6,1.1-1.1,1.6c-0.5,0.5-1.2,0.9-2.1,1.2c-0.9,0.3-2,0.5-3.4,0.5
				c-1.3,0-2.5-0.1-3.5-0.4s-1.9-0.6-2.6-1.1s-1.2-1-1.6-1.7s-0.5-1.4-0.5-2.2c0-0.8,0.2-1.6,0.5-2.2c0.3-0.6,0.8-1.2,1.4-1.6
				c0.6-0.4,1.3-0.7,2-0.8v1.7c-0.7,0.2-1.2,0.5-1.7,0.9s-0.7,1.1-0.7,1.9c0,1.1,0.5,2,1.5,2.7s2.4,1,4.2,1v-0.1
				c-0.4-0.3-0.8-0.6-1-1c-0.3-0.4-0.5-0.8-0.7-1.2c-0.2-0.4-0.2-0.9-0.2-1.4c0-0.8,0.2-1.6,0.6-2.3c0.4-0.7,1-1.3,1.7-1.7
				c0.7-0.4,1.6-0.6,2.5-0.6c0.9,0,1.7,0.2,2.5,0.6c0.8,0.4,1.3,1,1.8,1.7C657.4,590,657.6,590.9,657.6,591.9z M656,591.9
				c0-0.6-0.2-1.1-0.5-1.6c-0.3-0.5-0.7-0.9-1.2-1.1s-1.1-0.4-1.7-0.4c-0.6,0-1.2,0.1-1.7,0.4c-0.5,0.3-0.9,0.6-1.2,1.1
				s-0.4,1-0.4,1.6c0,0.5,0.1,0.9,0.3,1.3s0.4,0.7,0.7,1c0.3,0.3,0.7,0.5,1.1,0.7s0.8,0.3,1.3,0.3c0.6,0,1.1-0.1,1.6-0.4
				c0.5-0.3,0.9-0.7,1.2-1.1C655.9,593,656,592.5,656,591.9z"/>
			<path d="M642.7,579h14.7v1.8h-12.8v0.1l2.4,3.6h-1.8l-2.4-3.7V579z"/>
			<path d="M657.6,570c0,1.1-0.3,2-0.9,2.8c-0.6,0.8-1.4,1.3-2.6,1.7c-1.1,0.4-2.5,0.6-4.1,0.6c-1.6,0-2.9-0.2-4.1-0.6s-2-1-2.6-1.7
				c-0.6-0.8-0.9-1.7-0.9-2.7s0.3-2,0.9-2.7s1.5-1.3,2.6-1.7c1.1-0.4,2.5-0.6,4.1-0.6c1.6,0,3,0.2,4.1,0.6c1.1,0.4,2,1,2.6,1.7
				S657.6,569,657.6,570z M656,570c0-1.1-0.5-1.9-1.5-2.5c-1-0.6-2.5-0.9-4.4-0.9c-1.3,0-2.3,0.1-3.2,0.4c-0.9,0.3-1.6,0.7-2,1.2
				c-0.5,0.5-0.7,1.1-0.7,1.8c0,1.1,0.5,1.9,1.6,2.5c1,0.6,2.5,0.9,4.4,0.9c1.3,0,2.3-0.1,3.2-0.4c0.9-0.3,1.6-0.7,2-1.2
				C655.8,571.3,656,570.7,656,570z"/>
		</g>
		<g>
			<path d="M654.4,346.5h-1.5l-10.2-6.4V339h2.3v0.7l7.7,4.9h0.1v-8.7h1.6V346.5z M657.4,339.6h-3.4h-0.7h-10.5v-1.7h14.7V339.6z"/>
			<path d="M654.4,333.6h-1.5l-10.2-6.4v-1.1h2.3v0.7l7.7,4.9h0.1V323h1.6V333.6z M657.4,326.7h-3.4h-0.7h-10.5V325h14.7V326.7z"/>
			<path d="M657.6,315.5c0,1.1-0.3,2-0.9,2.8s-1.4,1.3-2.6,1.7c-1.1,0.4-2.5,0.6-4.1,0.6c-1.6,0-2.9-0.2-4.1-0.6s-2-1-2.6-1.7
				s-0.9-1.7-0.9-2.7s0.3-2,0.9-2.7c0.6-0.8,1.5-1.3,2.6-1.7c1.1-0.4,2.5-0.6,4.1-0.6c1.6,0,3,0.2,4.1,0.6c1.1,0.4,2,1,2.6,1.7
				S657.6,314.4,657.6,315.5z M656,315.5c0-1.1-0.5-1.9-1.5-2.5c-1-0.6-2.5-0.9-4.4-0.9c-1.3,0-2.3,0.1-3.2,0.4
				c-0.9,0.3-1.6,0.7-2,1.2c-0.5,0.5-0.7,1.1-0.7,1.8c0,1.1,0.5,1.9,1.6,2.5c1,0.6,2.5,0.9,4.4,0.9c1.3,0,2.3-0.1,3.2-0.4
				c0.9-0.3,1.6-0.7,2-1.2C655.8,316.8,656,316.2,656,315.5z"/>
			<path d="M657.6,302.9c0,1.1-0.3,2-0.9,2.8s-1.4,1.3-2.6,1.7c-1.1,0.4-2.5,0.6-4.1,0.6c-1.6,0-2.9-0.2-4.1-0.6s-2-1-2.6-1.7
				s-0.9-1.7-0.9-2.7s0.3-2,0.9-2.7c0.6-0.8,1.5-1.3,2.6-1.7c1.1-0.4,2.5-0.6,4.1-0.6c1.6,0,3,0.2,4.1,0.6c1.1,0.4,2,1,2.6,1.7
				S657.6,301.8,657.6,302.9z M656,302.9c0-1.1-0.5-1.9-1.5-2.5c-1-0.6-2.5-0.9-4.4-0.9c-1.3,0-2.3,0.1-3.2,0.4
				c-0.9,0.3-1.6,0.7-2,1.2c-0.5,0.5-0.7,1.1-0.7,1.8c0,1.1,0.5,1.9,1.6,2.5c1,0.6,2.5,0.9,4.4,0.9c1.3,0,2.3-0.1,3.2-0.4
				c0.9-0.3,1.6-0.7,2-1.2C655.8,304.2,656,303.6,656,302.9z"/>
		</g>
		<line fill="#FFFFFF" stroke="#000000" stroke-width="0.5" stroke-miterlimit="10" x1="632.7" y1="690.5" x2="640.7" y2="682.5"/>
		<line fill="#FFFFFF" stroke="#000000" stroke-width="0.5" stroke-miterlimit="10" x1="632.3" y1="494.4" x2="640.3" y2="486.4"/>
		<line fill="#FFFFFF" stroke="#000000" stroke-width="0.5" stroke-miterlimit="10" x1="632.3" y1="487" x2="640.3" y2="479"/>
		<line fill="#FFFFFF" stroke="#000000" stroke-width="0.5" stroke-miterlimit="10" x1="632.3" y1="151.7" x2="640.3" y2="143.7"/>
		<line fill="#FFFFFF" stroke="#000000" stroke-width="0.5" stroke-miterlimit="10" x1="584.4" y1="47.7" x2="592.4" y2="39.7"/>
		<line fill="#FFFFFF" stroke="#000000" stroke-width="0.5" stroke-miterlimit="10" x1="345.3" y1="47.7" x2="353.3" y2="39.7"/>
		<line fill="#FFFFFF" stroke="#000000" stroke-width="0.5" stroke-miterlimit="10" x1="334.6" y1="47.7" x2="342.6" y2="39.7"/>
		<line fill="#FFFFFF" stroke="#000000" stroke-width="0.5" stroke-miterlimit="10" x1="106.9" y1="47.7" x2="114.9" y2="39.7"/>
		<line fill="#FFFFFF" stroke="#000000" stroke-width="0.5" stroke-miterlimit="10" x1="37.5" y1="151.7" x2="45.5" y2="143.7"/>
		<line fill="#FFFFFF" stroke="#000000" stroke-width="0.5" stroke-miterlimit="10" x1="37.5" y1="487" x2="45.5" y2="479"/>
		<line fill="#FFFFFF" stroke="#000000" stroke-width="0.5" stroke-miterlimit="10" x1="37.5" y1="504.8" x2="45.5" y2="496.8"/>
		<line fill="#FFFFFF" stroke="#000000" stroke-width="0.5" stroke-miterlimit="10" x1="37.5" y1="690.9" x2="45.5" y2="682.9"/>
		<line fill="#FFFFFF" stroke="#000000" stroke-width="0.5" stroke-miterlimit="10" x1="106.9" y1="753.7" x2="114.9" y2="745.7"/>
		<line fill="#FFFFFF" stroke="#000000" stroke-width="0.5" stroke-miterlimit="10" x1="237.8" y1="753.7" x2="245.8" y2="745.7"/>
		<line fill="#FFFFFF" stroke="#000000" stroke-width="0.5" stroke-miterlimit="10" x1="246.8" y1="753.7" x2="254.8" y2="745.7"/>
		<line fill="#FFFFFF" stroke="#000000" stroke-width="0.5" stroke-miterlimit="10" x1="586.7" y1="753.7" x2="594.7" y2="745.7"/>
		<g>
			
				<rect x="145.6" y="466.2" transform="matrix(3.009459e-03 -1 1 3.009459e-03 -355.7157 699.8045)" fill="#FFFFFF" stroke="#5E6367" stroke-width="0.5" stroke-miterlimit="10" width="54.9" height="124.1"/>
			
				<rect x="145.6" y="466.2" transform="matrix(3.009459e-03 -1 1 3.009459e-03 -355.7157 699.8045)" fill="#FFFFFF" stroke="#5E6367" stroke-width="0.5" stroke-miterlimit="10" width="54.9" height="124.1"/>
			<path fill="#FFFFFF" stroke="#5E6367" stroke-width="0.5" stroke-miterlimit="10" d="M117.4,504.5l-0.1,47.3l94.3,0.3
				c10.6,0,19.3-8.5,19.3-19.2l0-8.8c0-10.6-8.6-19.3-19.2-19.3L117.4,504.5z"/>
			<path fill="#FFFFFF" stroke="#5E6367" stroke-width="0.5" stroke-miterlimit="10" d="M117.4,504.5l-0.1,47.3l94.3,0.3
				c10.6,0,19.3-8.5,19.3-19.2l0-8.8c0-10.6-8.6-19.3-19.2-19.3L117.4,504.5z"/>
			<path fill="#FFFFFF" stroke="#5E6367" stroke-width="0.5" stroke-miterlimit="10" d="M120.8,507.7l-0.1,40.9l90.1,0.3
				c9.2,0,16.6-7.4,16.7-16.6l0-7.6c0-9.2-7.4-16.6-16.6-16.7L120.8,507.7z"/>
			<path fill="#FFFFFF" stroke="#5E6367" stroke-width="0.5" stroke-miterlimit="10" d="M120.8,507.7l-0.1,40.9l90.1,0.3
				c9.2,0,16.6-7.4,16.7-16.6l0-7.6c0-9.2-7.4-16.6-16.6-16.7L120.8,507.7z"/>
			<path fill="#FFFFFF" stroke="#5E6367" stroke-width="0.5" stroke-miterlimit="10" d="M126.6,525.2c-1.6,0-2.8,1.3-2.8,2.9
				c0,1.6,1.3,3,2.8,3c1.6,0,2.8-1.3,2.8-2.9C129.4,526.5,128.2,525.2,126.6,525.2"/>
			<path fill="#FFFFFF" stroke="#5E6367" stroke-width="0.5" stroke-miterlimit="10" d="M126.6,525.2c-1.6,0-2.8,1.3-2.8,2.9
				c0,1.6,1.3,3,2.8,3c1.6,0,2.8-1.3,2.8-2.9C129.4,526.5,128.2,525.2,126.6,525.2z"/>
			<polygon fill="#FFFFFF" stroke="#5E6367" stroke-width="0.5" stroke-miterlimit="10" points="118.7,522.3 113,528.1 118.7,534 
				124.4,528.1 			"/>
			<polygon fill="#FFFFFF" stroke="#5E6367" stroke-width="0.5" stroke-miterlimit="10" points="118.7,522.3 113,528.1 118.7,534 
				124.4,528.1 			"/>
			
				<rect x="124" y="520.3" transform="matrix(3.383024e-03 -1 1 3.383024e-03 -403.1574 651.6563)" fill="#FFFFFF" stroke="#5E6367" stroke-width="0.5" stroke-miterlimit="10" width="2.7" height="15.5"/>
			
				<rect x="124" y="520.3" transform="matrix(3.383024e-03 -1 1 3.383024e-03 -403.1574 651.6563)" fill="#FFFFFF" stroke="#5E6367" stroke-width="0.5" stroke-miterlimit="10" width="2.7" height="15.5"/>
		</g>
		<g>
			
				<rect x="195.9" y="643.7" transform="matrix(3.600911e-03 -1 1 3.600911e-03 -448.5522 879.8027)" fill="#FFFFFF" stroke="#5E6367" stroke-width="0.5" stroke-miterlimit="10" width="42.6" height="42.6"/>
			
				<rect x="195.9" y="643.7" transform="matrix(3.600911e-03 -1 1 3.600911e-03 -448.5522 879.8027)" fill="#FFFFFF" stroke="#5E6367" stroke-width="0.5" stroke-miterlimit="10" width="42.6" height="42.6"/>
			
				<rect x="205.2" y="643.7" transform="matrix(3.857996e-03 -1 1 3.857996e-03 -439.2993 851.2076)" fill="#FFFFFF" stroke="#5E6367" stroke-width="0.5" stroke-miterlimit="10" width="4.8" height="4.8"/>
			
				<rect x="205.2" y="643.7" transform="matrix(3.857996e-03 -1 1 3.857996e-03 -439.2993 851.2076)" fill="#FFFFFF" stroke="#5E6367" stroke-width="0.5" stroke-miterlimit="10" width="4.8" height="4.8"/>
			
				<rect x="210" y="643.7" transform="matrix(3.240724e-03 -1 1 3.240724e-03 -434.4515 856.3777)" fill="#FFFFFF" stroke="#5E6367" stroke-width="0.5" stroke-miterlimit="10" width="4.8" height="4.8"/>
			
				<rect x="210" y="643.7" transform="matrix(3.240724e-03 -1 1 3.240724e-03 -434.4515 856.3777)" fill="#FFFFFF" stroke="#5E6367" stroke-width="0.5" stroke-miterlimit="10" width="4.8" height="4.8"/>
			
				<rect x="214.7" y="643.8" transform="matrix(3.240724e-03 -1 1 3.240724e-03 -429.7314 861.148)" fill="#FFFFFF" stroke="#5E6367" stroke-width="0.5" stroke-miterlimit="10" width="4.8" height="4.8"/>
			
				<rect x="214.7" y="643.8" transform="matrix(3.240724e-03 -1 1 3.240724e-03 -429.7314 861.148)" fill="#FFFFFF" stroke="#5E6367" stroke-width="0.5" stroke-miterlimit="10" width="4.8" height="4.8"/>
			
				<rect x="219.5" y="643.8" transform="matrix(3.240724e-03 -1 1 3.240724e-03 -425.0106 865.9191)" fill="#FFFFFF" stroke="#5E6367" stroke-width="0.5" stroke-miterlimit="10" width="4.8" height="4.8"/>
			
				<rect x="219.5" y="643.8" transform="matrix(3.240724e-03 -1 1 3.240724e-03 -425.0106 865.9191)" fill="#FFFFFF" stroke="#5E6367" stroke-width="0.5" stroke-miterlimit="10" width="4.8" height="4.8"/>
			
				<rect x="224.2" y="643.8" transform="matrix(3.242725e-03 -1 1 3.242725e-03 -420.3304 870.647)" fill="#FFFFFF" stroke="#5E6367" stroke-width="0.5" stroke-miterlimit="10" width="4.8" height="4.8"/>
			
				<rect x="224.2" y="643.8" transform="matrix(3.242725e-03 -1 1 3.242725e-03 -420.3304 870.647)" fill="#FFFFFF" stroke="#5E6367" stroke-width="0.5" stroke-miterlimit="10" width="4.8" height="4.8"/>
			<path fill="#FFFFFF" stroke="#5E6367" stroke-width="0.5" stroke-miterlimit="10" d="M216.6,677.8c6.6,0,12-5.3,12-11.9
				c0-6.6-5.3-12-11.9-12c-6.6,0-12,5.3-12,11.9C204.7,672.4,210,677.8,216.6,677.8"/>
			<path fill="#FFFFFF" stroke="#5E6367" stroke-width="0.5" stroke-miterlimit="10" d="M216.6,677.8c6.6,0,12-5.3,12-11.9
				c0-6.6-5.3-12-11.9-12c-6.6,0-12,5.3-12,11.9C204.7,672.4,210,677.8,216.6,677.8z"/>
		</g>
		<g>
			<path fill="#FFFFFF" stroke="#5E6367" stroke-width="0.5" stroke-miterlimit="10" d="M111,569.4l0,34.9l16.2,0
				c9.2,0,16.6-7.4,16.6-16.6v-1.7c0-9.2-7.4-16.6-16.6-16.6L111,569.4z"/>
			<path fill="#FFFFFF" stroke="#5E6367" stroke-width="0.5" stroke-miterlimit="10" d="M111,569.4l0,34.9l16.2,0
				c9.2,0,16.6-7.4,16.6-16.6v-1.7c0-9.2-7.4-16.6-16.6-16.6L111,569.4z"/>
			<path fill="#FFFFFF" stroke="#5E6367" stroke-width="0.5" stroke-miterlimit="10" d="M116.5,572.2l0,29.3l10.5,0
				c7.7,0,14-6.2,14-13.9v-1.4c0-7.7-6.2-14-13.9-14L116.5,572.2z"/>
			<path fill="#FFFFFF" stroke="#5E6367" stroke-width="0.5" stroke-miterlimit="10" d="M116.5,572.2l0,29.3l10.5,0
				c7.7,0,14-6.2,14-13.9v-1.4c0-7.7-6.2-14-13.9-14L116.5,572.2z"/>
			<path fill="#FFFFFF" stroke="#5E6367" stroke-width="0.5" stroke-miterlimit="10" d="M119.2,574.9l0,24l7.8,0
				c6.3,0,11.4-5.1,11.4-11.4v-1.2c0-6.3-5.1-11.4-11.4-11.4L119.2,574.9z"/>
			<path fill="#FFFFFF" stroke="#5E6367" stroke-width="0.5" stroke-miterlimit="10" d="M119.2,574.9l0,24l7.8,0
				c6.3,0,11.4-5.1,11.4-11.4v-1.2c0-6.3-5.1-11.4-11.4-11.4L119.2,574.9z"/>
			<path fill="#FFFFFF" stroke="#5E6367" stroke-width="0.5" stroke-miterlimit="10" d="M125.3,584.5c-1.3,0-2.4,1.1-2.4,2.4
				c0,1.3,1.1,2.4,2.4,2.4c1.3,0,2.4-1.1,2.4-2.4C127.7,585.6,126.6,584.5,125.3,584.5"/>
			<path fill="#FFFFFF" stroke="#5E6367" stroke-width="0.5" stroke-miterlimit="10" d="M125.3,584.5c-1.3,0-2.4,1.1-2.4,2.4
				c0,1.3,1.1,2.4,2.4,2.4c1.3,0,2.4-1.1,2.4-2.4C127.7,585.6,126.6,584.5,125.3,584.5z"/>
			
				<rect x="115.4" y="583.6" transform="matrix(0.7075 -0.7067 0.7067 0.7075 -380.0348 255.5692)" fill="#FFFFFF" stroke="#5E6367" stroke-width="0.5" stroke-miterlimit="10" width="6.7" height="6.7"/>
			
				<rect x="115.4" y="583.6" transform="matrix(0.7075 -0.7067 0.7067 0.7075 -380.0348 255.5692)" fill="#FFFFFF" stroke="#5E6367" stroke-width="0.5" stroke-miterlimit="10" width="6.7" height="6.7"/>
			
				<rect x="117.8" y="585.8" fill="#FFFFFF" stroke="#5E6367" stroke-width="0.5" stroke-miterlimit="10" width="12.9" height="2.1"/>
			
				<rect x="117.8" y="585.8" fill="#FFFFFF" stroke="#5E6367" stroke-width="0.5" stroke-miterlimit="10" width="12.9" height="2.1"/>
		</g>
		<g>
			<path fill="#FFFFFF" stroke="#5E6367" stroke-width="0.5" stroke-miterlimit="10" d="M165,632.2l0,6.7c0,7-5.7,12.6-12.7,12.6
				l-41.4-0.2l0.1-32l41.4,0.2C159.4,619.6,165.1,625.3,165,632.2"/>
			<path fill="#FFFFFF" stroke="#5E6367" stroke-width="0.5" stroke-miterlimit="10" d="M165,632.2l0,6.7c0,7-5.7,12.6-12.7,12.6
				l-41.4-0.2l0.1-32l41.4,0.2C159.4,619.6,165.1,625.3,165,632.2z"/>
			<path fill="#FFFFFF" stroke="#5E6367" stroke-width="0.5" stroke-miterlimit="10" d="M161.9,632.8l0,5.5
				c0,5.7-4.7,10.3-10.3,10.3l-25.7-0.1l0.1-26.1l25.7,0.1C157.3,622.5,161.9,627.2,161.9,632.8"/>
			<path fill="#FFFFFF" stroke="#5E6367" stroke-width="0.5" stroke-miterlimit="10" d="M161.9,632.8l0,5.5
				c0,5.7-4.7,10.3-10.3,10.3l-25.7-0.1l0.1-26.1l25.7,0.1C157.3,622.5,161.9,627.2,161.9,632.8z"/>
			<path fill="#FFFFFF" stroke="#5E6367" stroke-width="0.5" stroke-miterlimit="10" d="M158.2,633.5l0,4.2c0,4.4-3.6,7.9-7.9,7.9
				l-20.8-0.1l0.1-20.1l20.8,0.1C154.7,625.5,158.3,629.1,158.2,633.5"/>
			<path fill="#FFFFFF" stroke="#5E6367" stroke-width="0.5" stroke-miterlimit="10" d="M158.2,633.5l0,4.2c0,4.4-3.6,7.9-7.9,7.9
				l-20.8-0.1l0.1-20.1l20.8,0.1C154.7,625.5,158.3,629.1,158.2,633.5z"/>
			<path fill="#FFFFFF" stroke="#5E6367" stroke-width="0.5" stroke-miterlimit="10" d="M140.4,632.5c-1.7,0-3,1.4-3.1,3
				c0,1.7,1.3,3,3,3.1c1.7,0,3-1.4,3.1-3C143.5,633.8,142.1,632.5,140.4,632.5"/>
			<path fill="#FFFFFF" stroke="#5E6367" stroke-width="0.5" stroke-miterlimit="10" d="M140.4,632.5c-1.7,0-3,1.4-3.1,3
				c0,1.7,1.3,3,3,3.1c1.7,0,3-1.4,3.1-3C143.5,633.8,142.1,632.5,140.4,632.5z"/>
			
				<rect x="101.4" y="629.1" transform="matrix(3.572799e-03 -1 1 3.572799e-03 -518.4735 750.5328)" fill="#FFFFFF" stroke="#5E6367" stroke-width="0.5" stroke-miterlimit="10" width="32" height="12.7"/>
			
				<rect x="101.4" y="629.1" transform="matrix(3.572799e-03 -1 1 3.572799e-03 -518.4735 750.5328)" fill="#FFFFFF" stroke="#5E6367" stroke-width="0.5" stroke-miterlimit="10" width="32" height="12.7"/>
		</g>
	</g>
</g>
<g id="Furniture">
	<g>
		
			<rect x="346" y="249.3" transform="matrix(-1 -4.490598e-11 4.490598e-11 -1 723.359 597.6016)" fill="#FFFFFF" stroke="#5E6367" stroke-width="0.5" stroke-miterlimit="10" width="31.4" height="99"/>
		<rect x="376.2" y="249.3" fill="#FFFFFF" stroke="#5E6367" stroke-width="0.5" stroke-miterlimit="10" width="4.5" height="99"/>
		<polyline fill="#FFFFFF" stroke="#5E6367" stroke-width="0.5" stroke-miterlimit="10" points="362.8,252.7 369,252.7 369,342.2 
			362.8,342.2 		"/>
		<polyline fill="#FFFFFF" stroke="#5E6367" stroke-width="0.5" stroke-miterlimit="10" points="362.8,342.7 359.3,337.6 
			359.3,257.2 362.8,252.1 		"/>
		
			<rect x="353.9" y="285.5" transform="matrix(-1 -4.611301e-11 4.611301e-11 -1 713.1752 594.2426)" fill="#FFFFFF" stroke="#5E6367" stroke-width="0.5" stroke-miterlimit="10" width="5.3" height="23.3"/>
	</g>
	<g>
		
			<rect x="145.6" y="466.2" transform="matrix(3.009459e-03 -1 1 3.009459e-03 -355.7157 699.8045)" fill="#FFFFFF" stroke="#5E6367" stroke-width="0.5" stroke-miterlimit="10" width="54.9" height="124.1"/>
		
			<rect x="145.6" y="466.2" transform="matrix(3.009459e-03 -1 1 3.009459e-03 -355.7157 699.8045)" fill="#FFFFFF" stroke="#5E6367" stroke-width="0.5" stroke-miterlimit="10" width="54.9" height="124.1"/>
		<path fill="#FFFFFF" stroke="#5E6367" stroke-width="0.5" stroke-miterlimit="10" d="M117.4,504.5l-0.1,47.3l94.3,0.3
			c10.6,0,19.3-8.5,19.3-19.2l0-8.8c0-10.6-8.6-19.3-19.2-19.3L117.4,504.5z"/>
		<path fill="#FFFFFF" stroke="#5E6367" stroke-width="0.5" stroke-miterlimit="10" d="M117.4,504.5l-0.1,47.3l94.3,0.3
			c10.6,0,19.3-8.5,19.3-19.2l0-8.8c0-10.6-8.6-19.3-19.2-19.3L117.4,504.5z"/>
		<path fill="#FFFFFF" stroke="#5E6367" stroke-width="0.5" stroke-miterlimit="10" d="M120.8,507.7l-0.1,40.9l90.1,0.3
			c9.2,0,16.6-7.4,16.7-16.6l0-7.6c0-9.2-7.4-16.6-16.6-16.7L120.8,507.7z"/>
		<path fill="#FFFFFF" stroke="#5E6367" stroke-width="0.5" stroke-miterlimit="10" d="M120.8,507.7l-0.1,40.9l90.1,0.3
			c9.2,0,16.6-7.4,16.7-16.6l0-7.6c0-9.2-7.4-16.6-16.6-16.7L120.8,507.7z"/>
		<path fill="#FFFFFF" stroke="#5E6367" stroke-width="0.5" stroke-miterlimit="10" d="M126.6,525.2c-1.6,0-2.8,1.3-2.8,2.9
			c0,1.6,1.3,3,2.8,3c1.6,0,2.8-1.3,2.8-2.9C129.4,526.5,128.2,525.2,126.6,525.2"/>
		<path fill="#FFFFFF" stroke="#5E6367" stroke-width="0.5" stroke-miterlimit="10" d="M126.6,525.2c-1.6,0-2.8,1.3-2.8,2.9
			c0,1.6,1.3,3,2.8,3c1.6,0,2.8-1.3,2.8-2.9C129.4,526.5,128.2,525.2,126.6,525.2z"/>
		<polygon fill="#FFFFFF" stroke="#5E6367" stroke-width="0.5" stroke-miterlimit="10" points="118.7,522.3 113,528.1 118.7,534 
			124.4,528.1 		"/>
		<polygon fill="#FFFFFF" stroke="#5E6367" stroke-width="0.5" stroke-miterlimit="10" points="118.7,522.3 113,528.1 118.7,534 
			124.4,528.1 		"/>
		
			<rect x="124" y="520.3" transform="matrix(3.383024e-03 -1 1 3.383024e-03 -403.1574 651.6563)" fill="#FFFFFF" stroke="#5E6367" stroke-width="0.5" stroke-miterlimit="10" width="2.7" height="15.5"/>
		
			<rect x="124" y="520.3" transform="matrix(3.383024e-03 -1 1 3.383024e-03 -403.1574 651.6563)" fill="#FFFFFF" stroke="#5E6367" stroke-width="0.5" stroke-miterlimit="10" width="2.7" height="15.5"/>
	</g>
	<g>
		
			<rect x="195.9" y="643.7" transform="matrix(3.600911e-03 -1 1 3.600911e-03 -448.5522 879.8027)" fill="#FFFFFF" stroke="#5E6367" stroke-width="0.5" stroke-miterlimit="10" width="42.6" height="42.6"/>
		
			<rect x="195.9" y="643.7" transform="matrix(3.600911e-03 -1 1 3.600911e-03 -448.5522 879.8027)" fill="#FFFFFF" stroke="#5E6367" stroke-width="0.5" stroke-miterlimit="10" width="42.6" height="42.6"/>
		
			<rect x="205.2" y="643.7" transform="matrix(3.857996e-03 -1 1 3.857996e-03 -439.2993 851.2076)" fill="#FFFFFF" stroke="#5E6367" stroke-width="0.5" stroke-miterlimit="10" width="4.8" height="4.8"/>
		
			<rect x="205.2" y="643.7" transform="matrix(3.857996e-03 -1 1 3.857996e-03 -439.2993 851.2076)" fill="#FFFFFF" stroke="#5E6367" stroke-width="0.5" stroke-miterlimit="10" width="4.8" height="4.8"/>
		
			<rect x="210" y="643.7" transform="matrix(3.240724e-03 -1 1 3.240724e-03 -434.4515 856.3777)" fill="#FFFFFF" stroke="#5E6367" stroke-width="0.5" stroke-miterlimit="10" width="4.8" height="4.8"/>
		
			<rect x="210" y="643.7" transform="matrix(3.240724e-03 -1 1 3.240724e-03 -434.4515 856.3777)" fill="#FFFFFF" stroke="#5E6367" stroke-width="0.5" stroke-miterlimit="10" width="4.8" height="4.8"/>
		
			<rect x="214.7" y="643.8" transform="matrix(3.240724e-03 -1 1 3.240724e-03 -429.7314 861.148)" fill="#FFFFFF" stroke="#5E6367" stroke-width="0.5" stroke-miterlimit="10" width="4.8" height="4.8"/>
		
			<rect x="214.7" y="643.8" transform="matrix(3.240724e-03 -1 1 3.240724e-03 -429.7314 861.148)" fill="#FFFFFF" stroke="#5E6367" stroke-width="0.5" stroke-miterlimit="10" width="4.8" height="4.8"/>
		
			<rect x="219.5" y="643.8" transform="matrix(3.240724e-03 -1 1 3.240724e-03 -425.0106 865.9191)" fill="#FFFFFF" stroke="#5E6367" stroke-width="0.5" stroke-miterlimit="10" width="4.8" height="4.8"/>
		
			<rect x="219.5" y="643.8" transform="matrix(3.240724e-03 -1 1 3.240724e-03 -425.0106 865.9191)" fill="#FFFFFF" stroke="#5E6367" stroke-width="0.5" stroke-miterlimit="10" width="4.8" height="4.8"/>
		
			<rect x="224.2" y="643.8" transform="matrix(3.242725e-03 -1 1 3.242725e-03 -420.3304 870.647)" fill="#FFFFFF" stroke="#5E6367" stroke-width="0.5" stroke-miterlimit="10" width="4.8" height="4.8"/>
		
			<rect x="224.2" y="643.8" transform="matrix(3.242725e-03 -1 1 3.242725e-03 -420.3304 870.647)" fill="#FFFFFF" stroke="#5E6367" stroke-width="0.5" stroke-miterlimit="10" width="4.8" height="4.8"/>
		<path fill="#FFFFFF" stroke="#5E6367" stroke-width="0.5" stroke-miterlimit="10" d="M216.6,677.8c6.6,0,12-5.3,12-11.9
			c0-6.6-5.3-12-11.9-12c-6.6,0-12,5.3-12,11.9C204.7,672.4,210,677.8,216.6,677.8"/>
		<path fill="#FFFFFF" stroke="#5E6367" stroke-width="0.5" stroke-miterlimit="10" d="M216.6,677.8c6.6,0,12-5.3,12-11.9
			c0-6.6-5.3-12-11.9-12c-6.6,0-12,5.3-12,11.9C204.7,672.4,210,677.8,216.6,677.8z"/>
	</g>
	<g>
		<path fill="#FFFFFF" stroke="#5E6367" stroke-width="0.5" stroke-miterlimit="10" d="M111,569.4l0,34.9l16.2,0
			c9.2,0,16.6-7.4,16.6-16.6v-1.7c0-9.2-7.4-16.6-16.6-16.6L111,569.4z"/>
		<path fill="#FFFFFF" stroke="#5E6367" stroke-width="0.5" stroke-miterlimit="10" d="M111,569.4l0,34.9l16.2,0
			c9.2,0,16.6-7.4,16.6-16.6v-1.7c0-9.2-7.4-16.6-16.6-16.6L111,569.4z"/>
		<path fill="#FFFFFF" stroke="#5E6367" stroke-width="0.5" stroke-miterlimit="10" d="M116.5,572.2l0,29.3l10.5,0
			c7.7,0,14-6.2,14-13.9v-1.4c0-7.7-6.2-14-13.9-14L116.5,572.2z"/>
		<path fill="#FFFFFF" stroke="#5E6367" stroke-width="0.5" stroke-miterlimit="10" d="M116.5,572.2l0,29.3l10.5,0
			c7.7,0,14-6.2,14-13.9v-1.4c0-7.7-6.2-14-13.9-14L116.5,572.2z"/>
		<path fill="#FFFFFF" stroke="#5E6367" stroke-width="0.5" stroke-miterlimit="10" d="M119.2,574.9l0,24l7.8,0
			c6.3,0,11.4-5.1,11.4-11.4v-1.2c0-6.3-5.1-11.4-11.4-11.4L119.2,574.9z"/>
		<path fill="#FFFFFF" stroke="#5E6367" stroke-width="0.5" stroke-miterlimit="10" d="M119.2,574.9l0,24l7.8,0
			c6.3,0,11.4-5.1,11.4-11.4v-1.2c0-6.3-5.1-11.4-11.4-11.4L119.2,574.9z"/>
		<path fill="#FFFFFF" stroke="#5E6367" stroke-width="0.5" stroke-miterlimit="10" d="M125.3,584.5c-1.3,0-2.4,1.1-2.4,2.4
			c0,1.3,1.1,2.4,2.4,2.4c1.3,0,2.4-1.1,2.4-2.4C127.7,585.6,126.6,584.5,125.3,584.5"/>
		<path fill="#FFFFFF" stroke="#5E6367" stroke-width="0.5" stroke-miterlimit="10" d="M125.3,584.5c-1.3,0-2.4,1.1-2.4,2.4
			c0,1.3,1.1,2.4,2.4,2.4c1.3,0,2.4-1.1,2.4-2.4C127.7,585.6,126.6,584.5,125.3,584.5z"/>
		
			<rect x="115.4" y="583.6" transform="matrix(0.7075 -0.7067 0.7067 0.7075 -380.0348 255.5692)" fill="#FFFFFF" stroke="#5E6367" stroke-width="0.5" stroke-miterlimit="10" width="6.7" height="6.7"/>
		
			<rect x="115.4" y="583.6" transform="matrix(0.7075 -0.7067 0.7067 0.7075 -380.0348 255.5692)" fill="#FFFFFF" stroke="#5E6367" stroke-width="0.5" stroke-miterlimit="10" width="6.7" height="6.7"/>
		
			<rect x="117.8" y="585.8" fill="#FFFFFF" stroke="#5E6367" stroke-width="0.5" stroke-miterlimit="10" width="12.9" height="2.1"/>
		
			<rect x="117.8" y="585.8" fill="#FFFFFF" stroke="#5E6367" stroke-width="0.5" stroke-miterlimit="10" width="12.9" height="2.1"/>
	</g>
	<g>
		<path fill="#FFFFFF" stroke="#5E6367" stroke-width="0.5" stroke-miterlimit="10" d="M165,632.2l0,6.7c0,7-5.7,12.6-12.7,12.6
			l-41.4-0.2l0.1-32l41.4,0.2C159.4,619.6,165.1,625.3,165,632.2"/>
		<path fill="#FFFFFF" stroke="#5E6367" stroke-width="0.5" stroke-miterlimit="10" d="M165,632.2l0,6.7c0,7-5.7,12.6-12.7,12.6
			l-41.4-0.2l0.1-32l41.4,0.2C159.4,619.6,165.1,625.3,165,632.2z"/>
		<path fill="#FFFFFF" stroke="#5E6367" stroke-width="0.5" stroke-miterlimit="10" d="M161.9,632.8l0,5.5c0,5.7-4.7,10.3-10.3,10.3
			l-25.7-0.1l0.1-26.1l25.7,0.1C157.3,622.5,161.9,627.2,161.9,632.8"/>
		<path fill="#FFFFFF" stroke="#5E6367" stroke-width="0.5" stroke-miterlimit="10" d="M161.9,632.8l0,5.5c0,5.7-4.7,10.3-10.3,10.3
			l-25.7-0.1l0.1-26.1l25.7,0.1C157.3,622.5,161.9,627.2,161.9,632.8z"/>
		<path fill="#FFFFFF" stroke="#5E6367" stroke-width="0.5" stroke-miterlimit="10" d="M158.2,633.5l0,4.2c0,4.4-3.6,7.9-7.9,7.9
			l-20.8-0.1l0.1-20.1l20.8,0.1C154.7,625.5,158.3,629.1,158.2,633.5"/>
		<path fill="#FFFFFF" stroke="#5E6367" stroke-width="0.5" stroke-miterlimit="10" d="M158.2,633.5l0,4.2c0,4.4-3.6,7.9-7.9,7.9
			l-20.8-0.1l0.1-20.1l20.8,0.1C154.7,625.5,158.3,629.1,158.2,633.5z"/>
		<path fill="#FFFFFF" stroke="#5E6367" stroke-width="0.5" stroke-miterlimit="10" d="M140.4,632.5c-1.7,0-3,1.4-3.1,3
			c0,1.7,1.3,3,3,3.1c1.7,0,3-1.4,3.1-3C143.5,633.8,142.1,632.5,140.4,632.5"/>
		<path fill="#FFFFFF" stroke="#5E6367" stroke-width="0.5" stroke-miterlimit="10" d="M140.4,632.5c-1.7,0-3,1.4-3.1,3
			c0,1.7,1.3,3,3,3.1c1.7,0,3-1.4,3.1-3C143.5,633.8,142.1,632.5,140.4,632.5z"/>
		
			<rect x="101.4" y="629.1" transform="matrix(3.572799e-03 -1 1 3.572799e-03 -518.4735 750.5328)" fill="#FFFFFF" stroke="#5E6367" stroke-width="0.5" stroke-miterlimit="10" width="32" height="12.7"/>
		
			<rect x="101.4" y="629.1" transform="matrix(3.572799e-03 -1 1 3.572799e-03 -518.4735 750.5328)" fill="#FFFFFF" stroke="#5E6367" stroke-width="0.5" stroke-miterlimit="10" width="32" height="12.7"/>
	</g>
	<g>
		<g>
			
				<rect x="445.2" y="240.3" fill="#FFFFFF" stroke="#5E6367" stroke-width="0.5" stroke-miterlimit="10" width="145.1" height="118.3"/>
			
				<rect x="449.4" y="240.9" fill="#FFFFFF" stroke="#5E6367" stroke-width="0.5" stroke-miterlimit="10" width="141" height="117.1"/>
			<path fill="#FFFFFF" stroke="#5E6367" stroke-width="0.5" stroke-miterlimit="10" d="M578.6,304.8h-20.9c-2.4,0-4.3,1.9-4.3,4.3
				v36.8c0,2.4,1.9,4.3,4.3,4.3h20.9c2.4,0,4.3-1.9,4.3-4.3v-36.8C583,306.7,581,304.8,578.6,304.8z"/>
			<polygon fill="#FFFFFF" stroke="#5E6367" stroke-width="0.5" stroke-miterlimit="10" points="541.5,240.9 449.4,240.9 449.4,358 
				524.9,358 541.5,328.4 			"/>
			<polyline fill="#FFFFFF" stroke="#5E6367" stroke-width="0.5" stroke-miterlimit="10" points="541.6,328.3 516.7,333.4 
				525,358.2 			"/>
			<path fill="#FFFFFF" stroke="#5E6367" stroke-width="0.5" stroke-miterlimit="10" d="M578.6,249.1h-20.9c-2.4,0-4.3,1.9-4.3,4.3
				v36.8c0,2.4,1.9,4.3,4.3,4.3h20.9c2.4,0,4.3-1.9,4.3-4.3v-36.8C583,251.1,581,249.1,578.6,249.1z"/>
		</g>
		<g>
			
				<rect x="560.1" y="363.8" fill="#FFFFFF" stroke="#5E6367" stroke-width="0.5" stroke-miterlimit="10" width="30.2" height="30.2"/>
			
				<rect x="557.3" y="376.2" fill="#FFFFFF" stroke="#5E6367" stroke-width="0.5" stroke-miterlimit="10" width="5.4" height="5.4"/>
			
				<rect x="563.6" y="363.8" fill="#FFFFFF" stroke="#5E6367" stroke-width="0.5" stroke-miterlimit="10" width="26.8" height="30.2"/>
		</g>
		<g>
			
				<rect x="560.1" y="203.6" fill="#FFFFFF" stroke="#5E6367" stroke-width="0.5" stroke-miterlimit="10" width="30.2" height="30.2"/>
			<rect x="557.3" y="216" fill="#FFFFFF" stroke="#5E6367" stroke-width="0.5" stroke-miterlimit="10" width="5.4" height="5.4"/>
			
				<rect x="563.6" y="203.6" fill="#FFFFFF" stroke="#5E6367" stroke-width="0.5" stroke-miterlimit="10" width="26.8" height="30.2"/>
		</g>
	</g>
	<g>
		<g>
			
				<rect x="507.4" y="399.8" transform="matrix(6.011008e-12 1 -1 6.011008e-12 990.2052 -61.928)" fill="#FFFFFF" stroke="#5E6367" stroke-width="0.5" stroke-miterlimit="10" width="37.4" height="128.6"/>
		</g>
		<line fill="#FFFFFF" stroke="#5E6367" stroke-width="0.5" stroke-miterlimit="10" x1="461.8" y1="463.5" x2="590.4" y2="463.5"/>
		<rect x="465.6" y="447.5" fill="#FFFFFF" stroke="#5E6367" stroke-width="0.5" stroke-miterlimit="10" width="2.9" height="33"/>
		<rect x="473.7" y="447.5" fill="#FFFFFF" stroke="#5E6367" stroke-width="0.5" stroke-miterlimit="10" width="2.9" height="33"/>
		<rect x="481.9" y="447.5" fill="#FFFFFF" stroke="#5E6367" stroke-width="0.5" stroke-miterlimit="10" width="2.9" height="33"/>
		<rect x="490" y="447.5" fill="#FFFFFF" stroke="#5E6367" stroke-width="0.5" stroke-miterlimit="10" width="2.9" height="33"/>
		<rect x="506.3" y="447.5" fill="#FFFFFF" stroke="#5E6367" stroke-width="0.5" stroke-miterlimit="10" width="2.9" height="33"/>
		<polygon fill="#FFFFFF" stroke="#5E6367" stroke-width="0.5" stroke-miterlimit="10" points="530.1,480.4 527.3,479.8 
			534.3,447.6 537.1,448.2 		"/>
		<g>
			
				<rect x="554.2" y="409.3" transform="matrix(2.641957e-11 1 -1 2.641957e-11 999.6703 -112.1067)" fill="#FFFFFF" stroke="#5E6367" stroke-width="0.5" stroke-miterlimit="10" width="3.3" height="69"/>
			
				<rect x="551.9" y="438.9" transform="matrix(1.386263e-12 1 -1 1.386263e-12 996.0063 -113.0793)" fill="#FFFFFF" stroke="#5E6367" stroke-width="0.5" stroke-miterlimit="10" width="5.2" height="5.1"/>
		</g>
		<g>
			
				<rect x="489.9" y="414" transform="matrix(-9.533003e-12 1 -1 -9.533003e-12 935.373 -47.8094)" fill="#FFFFFF" stroke="#5E6367" stroke-width="0.5" stroke-miterlimit="10" width="3.3" height="59.6"/>
			
				<rect x="489.8" y="439.2" transform="matrix(-4.160412e-12 1 -1 -4.160412e-12 934.2038 -50.6302)" fill="#FFFFFF" stroke="#5E6367" stroke-width="0.5" stroke-miterlimit="10" width="5.2" height="5.1"/>
		</g>
	</g>
	<g>
		<g>
			
				<rect x="156.6" y="399.7" transform="matrix(-5.090879e-11 1 -1 -5.090879e-11 639.2639 288.734)" fill="#FFFFFF" stroke="#5E6367" stroke-width="0.5" stroke-miterlimit="10" width="37.4" height="128.6"/>
		</g>
		<line fill="#FFFFFF" stroke="#5E6367" stroke-width="0.5" stroke-miterlimit="10" x1="239.6" y1="463.4" x2="111" y2="463.4"/>
		
			<rect x="232.9" y="447.3" transform="matrix(-1 -4.687196e-11 4.687196e-11 -1 468.5952 927.7155)" fill="#FFFFFF" stroke="#5E6367" stroke-width="0.5" stroke-miterlimit="10" width="2.9" height="33"/>
		
			<rect x="224.7" y="447.3" transform="matrix(-1 -4.433843e-11 4.433843e-11 -1 452.3143 927.7155)" fill="#FFFFFF" stroke="#5E6367" stroke-width="0.5" stroke-miterlimit="10" width="2.9" height="33"/>
		
			<rect x="216.6" y="447.3" transform="matrix(-1 -4.560542e-11 4.560542e-11 -1 436.0334 927.7155)" fill="#FFFFFF" stroke="#5E6367" stroke-width="0.5" stroke-miterlimit="10" width="2.9" height="33"/>
		
			<rect x="208.4" y="447.3" transform="matrix(-1 -3.800439e-11 3.800439e-11 -1 419.7526 927.7155)" fill="#FFFFFF" stroke="#5E6367" stroke-width="0.5" stroke-miterlimit="10" width="2.9" height="33"/>
		
			<rect x="192.2" y="447.3" transform="matrix(-1 -4.687196e-11 4.687196e-11 -1 387.1909 927.7155)" fill="#FFFFFF" stroke="#5E6367" stroke-width="0.5" stroke-miterlimit="10" width="2.9" height="33"/>
		<polygon fill="#FFFFFF" stroke="#5E6367" stroke-width="0.5" stroke-miterlimit="10" points="171.3,480.3 174.1,479.7 
			167.1,447.4 164.3,448.1 		"/>
		<g>
			
				<rect x="143.8" y="409.2" transform="matrix(-7.136176e-11 1 -1 -7.136176e-11 589.0853 298.1991)" fill="#FFFFFF" stroke="#5E6367" stroke-width="0.5" stroke-miterlimit="10" width="3.3" height="69"/>
			
				<rect x="144.2" y="438.8" transform="matrix(-4.628050e-11 1 -1 -4.628050e-11 588.1126 294.5351)" fill="#FFFFFF" stroke="#5E6367" stroke-width="0.5" stroke-miterlimit="10" width="5.2" height="5.1"/>
		</g>
		<g>
			
				<rect x="208.1" y="413.8" transform="matrix(-3.540830e-11 1 -1 -3.540830e-11 653.3826 233.9018)" fill="#FFFFFF" stroke="#5E6367" stroke-width="0.5" stroke-miterlimit="10" width="3.3" height="59.6"/>
			
				<rect x="206.3" y="439.1" transform="matrix(-4.073382e-11 1 -1 -4.073382e-11 650.5618 232.7326)" fill="#FFFFFF" stroke="#5E6367" stroke-width="0.5" stroke-miterlimit="10" width="5.2" height="5.1"/>
		</g>
	</g>
	<g>
		<g>
			<ellipse fill="#FFFFFF" stroke="#5E6367" stroke-width="0.5" stroke-miterlimit="10" cx="280" cy="206.3" rx="17.5" ry="17.7"/>
			
				<rect x="262.5" y="224.1" transform="matrix(-1 -4.543134e-11 4.543134e-11 -1 559.9791 452.3177)" fill="#FFFFFF" stroke="#5E6367" stroke-width="0.5" stroke-miterlimit="10" width="35" height="4.2"/>
			
				<rect x="247.6" y="213.4" transform="matrix(-4.408847e-11 1 -1 -4.408847e-11 475.8335 -44.9486)" fill="#FFFFFF" stroke="#5E6367" stroke-width="0.5" stroke-miterlimit="10" width="25.6" height="4.2"/>
			
				<rect x="286.8" y="213.4" transform="matrix(-4.387620e-11 1 -1 -4.387620e-11 515.0304 -84.1456)" fill="#FFFFFF" stroke="#5E6367" stroke-width="0.5" stroke-miterlimit="10" width="25.6" height="4.2"/>
			<ellipse fill="#FFFFFF" stroke="#5E6367" stroke-width="0.5" stroke-miterlimit="10" cx="280" cy="206.3" rx="12.7" ry="12.8"/>
		</g>
		
			<rect x="233.3" y="147.3" transform="matrix(-1 -4.071333e-11 4.071333e-11 -1 571.0059 341.9013)" fill="#FFFFFF" stroke="#5E6367" stroke-width="0.5" stroke-miterlimit="10" width="104.5" height="47.2"/>
	</g>
	<g>
		
			<rect x="69.1" y="189.2" transform="matrix(4.500939e-11 -1 1 4.500939e-11 -78.2198 360.8539)" fill="#FFFFFF" stroke="#5E6367" stroke-width="0.5" stroke-miterlimit="10" width="144.4" height="60.7"/>
		
			<rect x="71.2" y="187.4" transform="matrix(4.480067e-11 -1 1 4.480067e-11 -76.1611 358.7952)" fill="#FFFFFF" stroke="#5E6367" stroke-width="0.5" stroke-miterlimit="10" width="140.3" height="60.1"/>
		<path fill="#FFFFFF" stroke="#5E6367" stroke-width="0.5" stroke-miterlimit="10" d="M118.1,159.1v20.6c0,2.4,2,4.4,4.4,4.4h36.4
			c2.4,0,4.4-2,4.4-4.4v-20.6c0-2.4-2-4.4-4.4-4.4h-36.4C120.1,154.7,118.1,156.7,118.1,159.1z"/>
		<polygon fill="#FFFFFF" stroke="#5E6367" stroke-width="0.5" stroke-miterlimit="10" points="111.3,195.9 111.3,287.6 
			171.4,287.6 171.4,212.5 156.2,195.9 		"/>
		<polyline fill="#FFFFFF" stroke="#5E6367" stroke-width="0.5" stroke-miterlimit="10" points="156.1,195.8 156.4,213.8 
			171.5,212.4 		"/>
	</g>
	<g>
	</g>
	<g>
	</g>
	<g>
	</g>
	<g>
	</g>
	<g>
	</g>
	<g>
	</g>
	<g>
	</g>
</g>
</svg>
