<svg width="116" height="115" viewBox="0 0 116 115" fill="none" xmlns="http://www.w3.org/2000/svg">
<path fill-rule="evenodd" clip-rule="evenodd" d="M66.019 0.127093C84.584 24.2934 81.9964 57.3141 61.0869 77.7761C55.6164 62.004 56.6236 52.0726 58.0607 42.532C60.3358 54.626 59.4153 66.416 55.078 77.6068C48.0488 72.2741 22.1074 37.0908 50.3239 0.00115967C40.1427 1.56448 30.6822 5.78977 23.2926 11.1354C19.4416 29.8084 25.394 46.5359 30.4043 55.564C22.8454 46.9441 16.0464 34.811 16.2244 17.38C8.6612 25.1662 3.34265 35.3972 1.20221 46.0148C6.00844 56.4977 13.7366 64.7398 22.6631 70.5024C13.9494 66.9198 6.12132 61.4047 0.116787 54.1223C-0.560513 64.9656 1.71018 75.835 7.71905 86.2919C20.3533 90.756 37.5724 90.6518 51.4527 85.2236C39.4914 92.6276 27.3564 95.4199 12.5948 93.5656C17.1014 98.9765 22.077 103.415 27.5171 106.789C31.8761 105.143 36.3915 103.106 39.5478 101.052C36.8777 103.601 33.6084 106.189 30.413 108.356C36.2134 111.535 42.4264 113.633 48.6697 114.679C52.1691 111.262 55.2604 107.245 58.0998 102.498C60.6136 106.758 63.6875 110.914 67.4344 114.644C73.7515 113.589 80.0166 111.444 85.7389 108.309C82.474 106.185 79.374 103.597 76.6908 101.178C80.0383 103.15 84.2323 105.251 88.5219 106.68C93.9794 103.28 98.8681 98.9374 103.158 93.6264C88.3005 95.5241 75.2755 91.9459 64.5472 85.1845C79.2785 90.7126 95.0388 90.6865 108.094 86.3396C114.103 75.8828 116.391 64.3924 115.714 53.5491C109.488 61.3396 101.786 66.872 93.072 70.2983C102.506 63.9625 109.822 55.7681 114.563 45.1897C112.332 34.7328 106.8 24.7276 99.2372 16.9414C99.6019 28.9529 95.0257 43.9521 86.985 53.2755C92.4077 43.7089 96.1589 25.2357 92.9157 11.383C85.435 5.68555 76.1959 1.69909 66.0147 0.135779L66.019 0.127093Z" fill="#E4232F"/>
</svg>
